<svg xmlns="http://www.w3.org/2000/svg" viewBox="0 0 512 512" version="1.1" width="512" height="512"> <path stroke-linecap="round" stroke-linejoin="round" stroke-miterlimit="2" d="M 149.732 50.077 C 145.481 52.321, 140.689 58.319, 137.810 65 C 136.743 67.475, 135.458 70.400, 134.954 71.500 C 130.409 81.422, 127.986 109.159, 130.328 124.466 C 131.777 133.934, 131.758 134.640, 129.961 138.586 C 126.331 146.553, 123.169 161.129, 122.366 173.598 C 121.041 194.154, 125.658 213.921, 135 227.691 C 142.262 238.393, 142.134 242.155, 134.250 249.874 C 107.121 276.435, 98.216 303.458, 108.176 329 C 109.356 332.025, 110.889 335.175, 111.583 336 C 114.088 338.979, 114.278 342.727, 112.125 346.695 C 96.685 375.154, 97.666 407.974, 114.733 434 C 117.078 437.575, 118.997 441.348, 118.998 442.384 C 119.001 444.862, 116.889 452.242, 115.831 453.450 C 114.468 455.008, 114.889 464.469, 116.462 467.622 C 121.623 477.969, 128.328 480, 157.319 480 C 182.631 480, 193.004 478.387, 199.487 473.442 C 203.382 470.471, 202.786 470.472, 209.254 473.431 C 212.177 474.767, 219.889 476.853, 226.391 478.065 C 239.028 480.419, 238.121 480.470, 255.092 476.448 C 261.863 474.843, 271.845 469.155, 277.083 463.917 L 280.935 460.065 282.823 464.333 C 285.737 470.921, 290.365 475.507, 296.753 478.135 C 302.290 480.414, 303.449 480.500, 328.500 480.500 L 354.500 480.500 359.620 477.799 C 369.592 472.538, 371.721 467.750, 370.613 453.074 L 369.958 444.392 373.757 438.946 C 382.268 426.743, 387.329 415.449, 388.966 405 C 391.195 390.778, 389.844 365.764, 386.501 359.355 C 385.682 357.785, 385.010 355.926, 385.006 355.225 C 384.991 352.075, 370.692 327.164, 367.913 325.446 C 365.946 324.231, 367.251 322.374, 372.089 319.500 C 391.986 307.684, 400.383 293.598, 407.560 260 C 408.923 253.620, 411.575 208.242, 410.640 207.306 C 410.377 207.044, 411.814 204.055, 413.831 200.665 C 417.460 194.567, 417.500 194.381, 417.500 183.500 C 417.500 170.881, 415.799 166.577, 407.401 157.952 C 396.521 146.778, 374.381 142.993, 360.826 149.992 C 356.432 152.260, 355.561 151.573, 354.500 145 C 354.101 142.525, 353.280 139.890, 352.677 139.144 C 351.983 138.288, 351.749 134.606, 352.040 129.144 C 353.318 105.134, 351.449 79.377, 347.976 73.157 C 347.467 72.246, 346.404 69.854, 345.614 67.841 C 341.075 56.276, 332.560 47.980, 325.270 48.021 C 314.153 48.083, 292.603 61.073, 281.442 74.440 C 279.274 77.036, 276.375 80.474, 275 82.078 L 272.500 84.996 263 82.921 C 252.809 80.695, 223.547 80.581, 218 82.745 C 210.624 85.623, 208.209 85.326, 206.120 81.288 C 200.949 71.288, 178.637 54.868, 163.791 50.138 C 155.661 47.547, 154.535 47.542, 149.732 50.077 M 152.862 61.894 C 144.093 68.792, 138.856 100.933, 141.945 128.902 C 143.140 139.724, 143.112 140.145, 140.963 143.769 C 133.023 157.164, 130.716 186.380, 136.311 202.683 C 142.602 221.012, 154.414 235.118, 169.500 242.318 C 173.900 244.418, 178.181 246.492, 179.013 246.928 C 189.286 252.311, 211.332 255.319, 241 255.387 C 277.258 255.469, 293.977 252.438, 315.431 241.891 C 327.258 236.077, 336.188 227.463, 341.335 216.904 C 345.805 207.735, 346.037 203.183, 342.390 196.153 C 337.740 187.192, 338.310 173.288, 343.644 165.527 C 344.433 164.380, 344.982 161.033, 344.956 157.527 C 344.912 151.437, 344.392 148.390, 341.536 137.500 C 340.185 132.352, 340.126 129.796, 341.119 119.500 C 343.158 98.362, 339.488 76.383, 332.134 65.694 C 327.284 58.645, 323.512 58.225, 313.370 63.605 C 301.319 69.999, 291.558 78.592, 283.106 90.250 C 278.116 97.133, 278.223 97.118, 259.458 93.505 C 243.763 90.484, 234.821 90.367, 221 93 C 205.347 95.983, 203.928 95.833, 199.734 90.750 C 190.607 79.690, 181.445 71.957, 169.415 65.157 C 160.246 59.974, 156.293 59.195, 152.862 61.894 M 313 74.423 C 307.047 78.343, 301.468 84.420, 298.674 90.026 C 293.901 99.606, 294.470 100.611, 310.780 111.381 C 325.796 121.297, 327.158 121.842, 329.949 119.051 C 333.847 115.153, 332.356 89.576, 327.604 78.831 C 324.258 71.266, 319.825 69.928, 313 74.423 M 157.145 75.346 C 154.026 78.666, 152.362 84.813, 151.062 97.819 C 149.533 113.114, 151.214 122, 155.638 122 C 157.194 122, 174.693 110.651, 182.359 104.670 C 187.137 100.942, 187.028 96.809, 181.960 89.441 C 173.048 76.489, 161.978 70.201, 157.145 75.346 M 182 150.181 C 180.625 150.755, 177.790 151.928, 175.701 152.787 C 168.293 155.831, 163.709 163.854, 167.554 167.045 C 168.858 168.127, 170.272 167.740, 176.304 164.653 C 188.016 158.658, 198.565 159.629, 205.946 167.381 C 211.097 172.790, 216 171.925, 216 165.607 C 216 161.394, 207.286 153.121, 200.351 150.750 C 194.720 148.825, 185.897 148.551, 182 150.181 M 281.500 151.548 C 272.861 155.769, 266.656 165.470, 270.009 169.511 C 272.019 171.933, 274.355 171.245, 278.485 167.016 C 286.088 159.229, 298.097 158.637, 308.082 165.557 C 313.298 169.171, 316.408 168.600, 316.798 163.955 C 317.690 153.352, 294.494 145.199, 281.500 151.548 M 365.500 158.800 C 350.818 165.741, 345.086 185.001, 354.903 194.407 C 358.724 198.068, 359.589 197.345, 360.445 189.782 C 361.238 182.775, 362.244 181, 365.422 181 C 369.180 181, 370 182.910, 370 191.665 C 370 200.946, 370.755 202, 377.399 202 C 381.786 202, 382.575 200.617, 383.254 191.740 C 383.825 184.276, 385.071 182, 388.587 182 C 391.835 182, 393 184.762, 393 192.466 C 393 200.205, 394.020 201.101, 399.293 197.989 C 412.065 190.454, 407.929 168.445, 392.250 160.506 C 384.865 156.767, 371.591 155.920, 365.500 158.800 M 230 179.689 C 224.797 182.381, 225.080 184.631, 231.459 191.324 C 237.951 198.134, 238.854 200.681, 236.522 205.596 C 232.906 213.214, 223.612 213.713, 214.817 206.761 C 209.315 202.412, 206.834 202.455, 206.173 206.910 C 204.616 217.407, 228.272 224.639, 239.053 216.963 C 242.578 214.452, 243.157 214.488, 247.595 217.500 C 256.565 223.587, 276.500 218.387, 276.500 209.960 C 276.500 205.566, 271.779 204.316, 269.017 207.978 C 265 213.303, 252.234 212.474, 248.227 206.627 C 244.739 201.536, 245.312 199.520, 252.081 193.079 C 262.317 183.338, 259.410 179.281, 241.500 178.312 C 235.126 177.967, 232.789 178.247, 230 179.689 M 161.362 189.500 C 159.738 193.731, 161.456 194.614, 179.762 198.953 C 190.937 201.601, 193.316 201.892, 194.877 200.798 C 197.698 198.821, 195.978 195.374, 191.826 194.684 C 181.843 193.024, 168.501 189.901, 167.616 189.016 C 166.083 187.483, 162.015 187.797, 161.362 189.500 M 314 188.914 C 313.175 189.410, 307.418 190.743, 301.207 191.876 C 286.324 194.593, 280.501 198.057, 285.932 200.964 C 287.323 201.708, 289.774 201.555, 294.682 200.419 C 298.432 199.550, 304.875 198.208, 309 197.435 C 319.543 195.460, 321.201 194.591, 320.816 191.242 C 320.477 188.297, 317.003 187.111, 314 188.914 M 182.868 207.968 C 180.320 209.016, 175.370 210.187, 171.868 210.569 C 164.007 211.426, 161.783 212.494, 162.189 215.216 C 162.765 219.072, 165.077 219.481, 175.643 217.594 C 192.860 214.518, 197.020 212.445, 194.394 208.250 C 192.874 205.822, 188.351 205.711, 182.868 207.968 M 289.200 207.200 C 285.042 211.358, 289.195 214.276, 303.006 216.902 C 313.848 218.964, 314.702 218.995, 317.812 217.444 C 320.206 216.249, 321.028 215.226, 320.806 213.717 C 320.547 211.953, 319.128 211.354, 311.500 209.790 C 306.550 208.774, 300.700 207.526, 298.500 207.015 C 293.011 205.742, 290.611 205.789, 289.200 207.200 M 356.604 209.146 C 353.014 220.905, 350.916 228.504, 350.018 233 C 349.414 236.025, 347.349 243, 345.429 248.500 C 343.509 254, 341.206 260.975, 340.311 264 C 337.539 273.365, 333.912 275.493, 330.025 270.035 L 327.914 267.071 322.707 269.881 C 319.843 271.427, 315.700 273.270, 313.500 273.976 C 311.300 274.683, 309.050 275.590, 308.500 275.992 C 306.664 277.335, 284.628 282.237, 277.566 282.872 L 270.597 283.500 270.317 288 C 269.731 297.421, 265.678 303.595, 256.500 309.048 C 249.912 312.962, 233.348 312.640, 226.583 308.467 C 219.339 303.997, 216.024 299.338, 214.020 290.806 L 212.305 283.509 204.402 282.357 C 185.353 279.581, 165.701 272.273, 150.997 262.498 C 142.467 256.827, 143.144 256.636, 133.858 267.335 C 117.596 286.070, 112.236 311.233, 120.878 328.261 C 128.454 343.186, 147.890 358.200, 162.701 360.568 C 168.152 361.440, 168.413 360.476, 164.818 352.739 C 161.324 345.219, 161.576 343, 165.923 343 C 168.328 343, 169.587 343.923, 172.398 347.750 C 181.252 359.799, 180.311 359.317, 185.563 354.507 L 189.377 351.013 187.659 347.412 C 186.715 345.431, 184.570 342.104, 182.894 340.017 C 180.745 337.343, 179.942 335.383, 180.173 333.371 C 180.760 328.247, 187.657 328.954, 191.254 334.507 C 193.823 338.472, 195.084 338.516, 196.112 334.674 C 198.799 324.628, 181.571 305.520, 162.744 297.664 C 157.549 295.497, 154.956 287.941, 158.420 285.066 C 159.836 283.891, 169.472 288.073, 182.806 295.648 C 190.817 300.199, 205 315.726, 205 319.945 C 205 321.154, 207.227 321.180, 215 320.065 C 228.278 318.159, 243.425 322.725, 252.219 331.285 C 261.816 340.627, 275.950 366.318, 283.146 387.500 C 283.706 389.150, 284.598 391.407, 285.127 392.517 C 285.655 393.626, 286.652 396.745, 287.342 399.449 C 289.108 406.370, 290.343 406.059, 291.810 398.325 C 293.155 391.235, 294.092 388.758, 299.757 377.328 C 302.930 370.924, 307.523 363.960, 313.987 355.750 C 316.274 352.845, 319.650 352.207, 323.066 354.035 C 325.693 355.441, 325.497 359.010, 322.567 363.102 C 315.154 373.454, 310.466 380.956, 308.306 385.920 C 306.970 388.989, 305.502 392.207, 305.042 393.071 C 303.679 395.634, 298.177 417.075, 297.437 422.708 C 296.322 431.201, 296.702 431.410, 305.965 427.396 C 324.312 419.445, 347.624 421.941, 358.798 433.052 C 362.788 437.019, 363.096 436.803, 368.861 426 C 375.875 412.856, 378.413 401.954, 378.407 385 C 378.403 371.891, 378.145 369.750, 375.722 362.685 C 370.467 347.367, 363.236 336.433, 350.453 324.479 C 345.748 320.080, 344.042 315.859, 346.011 313.487 C 347.672 311.486, 352.903 311.602, 355.212 313.692 C 356.970 315.283, 357.272 315.273, 360.291 313.537 C 379.504 302.483, 391.130 283.985, 397.082 255 C 398.681 247.211, 399.472 212.410, 398.070 211.543 C 397.402 211.130, 392.501 211.321, 387.178 211.967 C 377.723 213.114, 366.173 211.721, 358.758 208.540 C 357.639 208.059, 356.869 208.276, 356.604 209.146 M 237.092 269.122 C 217.149 275.074, 221.615 301.956, 242.554 301.994 C 247.052 302.003, 255.883 297.239, 258.095 293.611 C 260.395 289.840, 260.645 281.148, 258.570 277.135 C 255.284 270.780, 244.729 266.843, 237.092 269.122 M 211.500 331.724 C 208.114 332.556, 207.300 333.822, 206.658 339.258 C 205.532 348.792, 198.481 359.759, 189.500 365.947 C 185.681 368.578, 173.794 373, 170.541 373 C 168.682 373, 168.684 372.114, 170.515 381.764 C 174.257 401.490, 187.350 434.661, 196.113 446.613 C 201.138 453.468, 209.369 460.350, 216.583 463.729 C 225.675 467.987, 246.108 467.885, 256.933 463.527 C 274.186 456.581, 284.841 437.833, 281.102 421 C 277.715 405.756, 273.659 392.409, 269.937 384.261 C 268.872 381.929, 268 379.707, 268 379.323 C 268 378.938, 265.105 372.746, 261.566 365.562 C 252.029 346.204, 241.621 334.653, 231.392 332.077 C 227.124 331.002, 215.290 330.792, 211.500 331.724 M 121.042 353.922 C 112.987 368.972, 110.345 398.497, 115.888 411.500 C 118.261 417.066, 124.400 428.876, 126.045 431.041 L 127.913 433.500 132.207 431.261 C 142.384 425.954, 150.697 423.887, 161.384 424.007 C 166.948 424.069, 171.800 424.093, 172.167 424.060 C 172.533 424.027, 171.304 420.288, 169.435 415.750 C 167.566 411.212, 166.028 406.953, 166.018 406.285 C 166.008 405.617, 165.268 402.917, 164.373 400.285 C 163.479 397.653, 161.791 390.137, 160.623 383.583 C 158.548 371.934, 158.433 371.645, 155.500 370.710 C 153.850 370.185, 149.656 368.460, 146.180 366.877 C 142.704 365.295, 139.648 364, 139.388 364 C 139.128 364, 138.372 363.559, 137.708 363.020 C 133.984 359.998, 122.997 352, 122.571 352 C 122.296 352, 121.608 352.865, 121.042 353.922 M 227 354.936 C 222.875 356.394, 218.233 358.130, 216.685 358.794 C 215.137 359.457, 213.687 360, 213.465 360 C 213.242 360, 210.683 361.047, 207.780 362.326 C 204.876 363.605, 199.203 365.941, 195.173 367.516 C 185.052 371.472, 181.993 375.690, 185.557 380.777 C 187.136 383.032, 190.816 383.733, 192.550 382.111 C 193.073 381.622, 197.775 379.528, 203 377.458 C 208.225 375.387, 212.999 373.310, 213.609 372.842 C 214.219 372.373, 217.144 371.122, 220.109 370.061 C 237.570 363.816, 242.271 360.977, 241.374 357.219 C 239.931 351.179, 238.340 350.927, 227 354.936 M 238.977 373.892 C 234.839 375.326, 231.014 376.778, 230.477 377.117 C 229.940 377.456, 227.025 378.528, 224 379.499 C 220.975 380.470, 218.050 381.596, 217.500 382.002 C 216.950 382.408, 214.700 383.298, 212.500 383.981 C 210.300 384.664, 207.600 385.780, 206.500 386.460 C 205.400 387.140, 202.700 388.270, 200.500 388.970 C 190.472 392.161, 187.191 397.191, 192 402 C 194.698 404.698, 195.900 404.561, 205.136 400.500 C 214.993 396.166, 215.094 396.171, 217.322 401.004 C 219.574 405.889, 219.253 406.423, 212.775 408.575 C 197.491 413.651, 196.774 415.455, 202.892 433.427 C 208.613 450.235, 213.497 455.528, 218.345 450.171 C 220.722 447.545, 220.463 445.671, 216.052 433.518 C 213.880 427.536, 212.311 422.306, 212.564 421.897 C 213.297 420.711, 222.858 417.794, 223.901 418.439 C 224.421 418.760, 225.140 420.363, 225.500 422 C 225.860 423.637, 226.569 425.234, 227.077 425.548 C 229.068 426.778, 227.824 429.067, 224.250 430.746 C 219.350 433.048, 218.828 436.162, 222.666 440.188 C 225.881 443.561, 229.584 443.545, 237.375 440.126 C 239.644 439.130, 243.075 437.703, 245 436.953 C 255.099 433.022, 257.684 428.536, 253.108 422.885 C 251.235 420.572, 251.167 420.565, 246.145 422.171 C 240.597 423.945, 240.460 423.882, 237.625 418.300 C 235.322 413.764, 235.568 412.673, 239.250 411.097 C 241.037 410.332, 244.297 408.860, 246.494 407.826 C 251.414 405.510, 251.479 405.581, 255.357 417.626 C 259.636 430.920, 259.999 431.500, 264.025 431.500 C 272.524 431.500, 271.419 421.477, 260.500 399.530 C 256.713 391.919, 255.317 391.684, 242.869 396.562 C 237.716 398.581, 232.935 400.455, 232.245 400.726 C 230.993 401.217, 228 395.496, 228 392.612 C 228 391.745, 230.114 390.471, 233.250 389.448 C 236.137 388.506, 238.950 387.424, 239.500 387.043 C 240.050 386.662, 242.525 385.777, 245 385.076 C 252.897 382.841, 255.534 377.534, 251 373 C 248.594 370.594, 248.464 370.604, 238.977 373.892 M 155.093 435.084 C 137.133 438.610, 127.031 447.689, 127.006 460.327 C 126.996 465.043, 131.993 469.187, 137.231 468.808 L 141.500 468.500 141.500 460.500 C 141.500 451.805, 141.920 450.516, 145.017 449.706 C 148.273 448.854, 149.937 452.566, 150.236 461.342 L 150.500 469.076 156.500 468.788 L 162.500 468.500 162.801 461.523 C 163.130 453.883, 164.718 451, 168.596 451 C 171.757 451, 172.424 452.439, 173 460.500 L 173.500 467.500 181 467.494 C 186.628 467.490, 189.180 467.028, 191.225 465.645 L 193.951 463.802 191.231 460.151 C 189.735 458.143, 188.229 456.275, 187.883 456 C 187.538 455.725, 185.672 452.350, 183.738 448.500 C 179.357 439.781, 177.784 438.359, 169.855 435.948 C 162.965 433.853, 161.734 433.781, 155.093 435.084 M 312.466 436.337 C 297.117 442.932, 288.958 456.043, 295.421 463.724 C 298.454 467.328, 305.385 470.312, 309.605 469.830 L 312.500 469.500 313 460.666 C 313.409 453.435, 313.852 451.576, 315.441 450.416 C 319.543 447.423, 321.671 450.366, 322.174 459.732 C 322.641 468.411, 323.270 469.169, 330.155 469.355 L 335.500 469.500 336 461.500 C 336.570 452.378, 337.164 451, 340.524 451 C 343.735 451, 344.900 453.485, 345.789 462.231 L 346.528 469.500 349.914 469.226 C 354.938 468.819, 359.733 466.201, 360.412 463.493 C 362.644 454.603, 352.580 440.303, 341.164 436.140 C 333.036 433.176, 319.608 433.269, 312.466 436.337" stroke="#000000" fill="black" fill-rule="evenodd"/> </svg>