<svg xmlns="http://www.w3.org/2000/svg" viewBox="0 0 512 512" version="1.1" width="512" height="512"> <path stroke-linecap="round" stroke-linejoin="round" stroke-miterlimit="2" d="M 231.196 41.298 L 228 44.595 228 84.175 C 228 128.470, 228.160 129.678, 234.427 132.666 C 237.656 134.206, 237.941 134.178, 240.971 132.021 C 242.713 130.780, 244.449 128.805, 244.828 127.632 C 245.207 126.460, 245.288 106.973, 245.008 84.329 L 244.500 43.157 242.076 40.579 C 238.713 37.002, 235.130 37.239, 231.196 41.298 M 322.500 78.426 C 319.856 79.614, 316 83.206, 316 84.482 C 316 84.734, 314.875 87.400, 313.500 90.406 C 312.125 93.412, 311 96.576, 311 97.436 C 311 98.296, 310.550 99, 310 99 C 309.450 99, 309 99.873, 309 100.941 C 309 102.009, 308.550 103.160, 308 103.500 C 307.450 103.840, 307 104.991, 307 106.059 C 307 107.127, 306.550 108, 306 108 C 305.450 108, 305 108.681, 305 109.514 C 305 110.346, 304.588 111.809, 304.084 112.764 C 303.580 113.719, 302.425 116.300, 301.516 118.500 C 298.513 125.774, 297.775 127.483, 296.883 129.236 C 296.397 130.191, 296 131.852, 296 132.927 C 296 134.002, 295.550 135.160, 295 135.500 C 291.856 137.443, 298.231 147, 302.672 147 C 305.707 147, 310.500 142.213, 311.419 138.264 C 311.773 136.744, 312.949 133.588, 314.031 131.250 C 315.114 128.912, 316.852 125.088, 317.893 122.750 C 318.934 120.412, 320.996 115.800, 322.476 112.500 C 323.955 109.200, 325.521 105.600, 325.956 104.500 C 327.014 101.823, 330.997 92.933, 332.109 90.764 C 333.844 87.382, 333.071 83.288, 330.099 80.106 C 326.828 76.604, 326.645 76.564, 322.500 78.426 M 148 83.716 C 143.099 85.475, 139.607 94.403, 143 96.500 C 143.550 96.840, 144 97.848, 144 98.739 C 144 99.631, 147.192 106.917, 151.093 114.930 C 154.994 122.944, 159.139 131.525, 160.304 134 C 167.511 149.312, 173.196 153.213, 179.099 146.894 C 183.007 142.711, 182.840 141.521, 176.622 129.176 C 173.664 123.304, 170.330 116.475, 169.214 114 C 164.076 102.612, 159.500 93.471, 158.784 93.167 C 158.353 92.983, 158 91.996, 158 90.972 C 158 87.009, 151.655 82.405, 148 83.716 M 399.500 132.208 C 393.712 136.346, 378.403 147.493, 368.500 154.781 C 363 158.829, 357.448 162.896, 356.162 163.820 C 342.033 173.969, 339.890 178.292, 346.106 184.099 C 348.974 186.778, 353 188.026, 353 186.236 C 353 185.816, 354.688 184.731, 356.750 183.826 C 358.813 182.921, 361.494 181.240, 362.708 180.090 C 363.923 178.941, 365.136 178, 365.405 178 C 365.673 178, 373.229 172.529, 382.196 165.842 C 391.163 159.155, 400.481 152.293, 402.902 150.592 C 414.433 142.493, 416.772 137.473, 411.354 132.452 C 408.058 129.397, 403.561 129.305, 399.500 132.208 M 62.046 140.800 C 55.772 147.074, 57.629 149.899, 75.672 161.527 C 83.277 166.429, 90.008 170.903, 90.629 171.470 C 91.251 172.036, 93.925 173.850, 96.573 175.500 C 99.221 177.150, 102.538 179.283, 103.944 180.239 C 105.350 181.195, 107.175 182.288, 108 182.666 C 108.825 183.044, 109.725 183.642, 110 183.993 C 111.105 185.405, 119.659 190.777, 122 191.530 C 131.220 194.493, 138.892 186.755, 133.250 180.183 C 131.375 178, 115.438 167, 114.150 167 C 113.725 167, 112.505 166.190, 111.439 165.200 C 110.372 164.209, 108.825 163.079, 108 162.688 C 106.043 161.762, 103.936 160.390, 86.454 148.670 C 69.381 137.225, 66.538 136.308, 62.046 140.800 M 224.676 152.657 C 224.266 153.067, 221.584 153.731, 218.716 154.132 C 212.230 155.040, 208.091 155.918, 205.500 156.937 C 204.400 157.369, 201.700 158.280, 199.500 158.960 C 185.646 163.246, 167.181 174.873, 155.198 186.856 C 144.240 197.814, 133 213.808, 133 218.442 C 133 219.299, 132.550 220, 132 220 C 131.450 220, 131 220.681, 131 221.514 C 131 222.346, 130.603 223.809, 130.117 224.764 C 128.575 227.794, 127.260 231.378, 126.177 235.500 C 125.599 237.700, 124.535 241.750, 123.813 244.500 C 120.865 255.726, 122.449 297.304, 126.088 304.236 C 126.590 305.191, 127 306.660, 127 307.500 C 127 308.340, 127.411 309.809, 127.913 310.764 C 129.905 314.552, 134 323.741, 134 324.424 C 134 325.915, 148.159 345.696, 152.738 350.602 C 162.171 360.707, 175.438 370.191, 189.500 376.880 C 193.350 378.712, 197.306 380.628, 198.291 381.139 C 199.276 381.650, 200.482 381.820, 200.972 381.518 C 201.461 381.215, 202.144 381.425, 202.490 381.984 C 202.835 382.543, 204.190 383, 205.500 383 C 206.810 383, 208.131 383.402, 208.435 383.894 C 209.982 386.398, 253.754 387.519, 263.500 385.305 C 280.135 381.526, 289.593 377.381, 306.592 366.422 C 327.138 353.177, 342.008 335.377, 349.970 314.500 C 350.389 313.400, 351.191 311.375, 351.752 310 C 355.272 301.371, 357.991 283.992, 357.996 270.082 C 358 259.177, 355.374 237.183, 353.873 235.550 C 353.393 235.027, 353 233.592, 353 232.359 C 353 231.126, 352.550 229.840, 352 229.500 C 351.450 229.160, 351 227.784, 351 226.441 C 351 225.098, 350.550 224, 350 224 C 349.450 224, 349 223.409, 349 222.687 C 349 219.021, 336.464 198.423, 329.715 191 C 318.242 178.381, 290.809 160.432, 279.809 158.346 C 277.989 158.001, 276.050 157.392, 275.500 156.993 C 274.487 156.259, 272.512 155.735, 263.500 153.807 C 257.539 152.532, 225.743 151.591, 224.676 152.657 M 224.500 171.668 C 221.750 171.917, 219.072 172.543, 218.550 173.060 C 218.028 173.577, 216.334 174, 214.786 174 C 213.239 174, 211.191 174.397, 210.236 174.883 C 209.281 175.369, 207.375 176.223, 206 176.781 C 186.213 184.813, 178.176 189.888, 167 201.409 C 149.411 219.540, 140.555 242.951, 140.674 271 C 140.719 281.652, 143.454 299.528, 145.954 305.500 C 147.420 309.004, 152.015 318.387, 153.897 321.719 C 161.362 334.935, 179.910 351.680, 194.500 358.374 C 197.800 359.889, 201.281 361.549, 202.236 362.064 C 203.191 362.579, 204.852 363, 205.927 363 C 207.002 363, 208.160 363.450, 208.500 364 C 208.840 364.550, 210.415 365, 212 365 C 213.585 365, 215.124 365.392, 215.420 365.871 C 217.436 369.132, 260.001 369.156, 263.450 365.898 C 263.973 365.404, 265.441 365, 266.714 365 C 267.986 365, 269.809 364.603, 270.764 364.117 C 271.719 363.631, 273.625 362.785, 275 362.236 C 284.540 358.432, 286.797 357.406, 289.154 355.804 C 290.614 354.812, 292.110 354, 292.479 354 C 294.098 354, 308.349 342.400, 313.108 337.208 C 321.097 328.492, 332.785 308.740, 334.624 300.847 C 334.925 299.556, 335.602 296.700, 336.128 294.500 C 340.052 278.105, 338.938 248.194, 333.894 234.500 C 326.634 214.790, 310.309 195.378, 293 185.873 C 291.625 185.118, 290.275 184.252, 290 183.948 C 289.541 183.441, 285.239 181.434, 279 178.816 C 277.625 178.239, 275.719 177.369, 274.764 176.883 C 273.809 176.397, 272.340 176, 271.500 176 C 270.660 176, 269.191 175.605, 268.236 175.123 C 262.311 172.129, 239.406 170.320, 224.500 171.668 M 431.706 218.627 C 431.361 218.972, 429.261 219.647, 427.040 220.127 C 424.818 220.607, 421.087 221.475, 418.750 222.055 C 413.726 223.301, 408.370 224.499, 401.500 225.913 C 398.750 226.479, 394.925 227.368, 393 227.889 C 391.075 228.409, 387.475 229.380, 385 230.047 C 374.658 232.833, 372.852 234.227, 372.702 239.543 C 372.479 247.414, 377.689 249.247, 391 245.981 C 393.475 245.374, 396.850 244.649, 398.500 244.370 C 400.150 244.092, 402.400 243.475, 403.500 243 C 404.600 242.525, 406.850 241.908, 408.500 241.630 C 410.150 241.351, 413.525 240.622, 416 240.009 C 421.671 238.606, 433.545 236.038, 437.536 235.353 C 449.156 233.357, 448.012 218, 436.244 218 C 434.093 218, 432.051 218.282, 431.706 218.627 M 39.627 232.244 C 38.182 234.139, 37 236.619, 37 237.755 C 37 240.121, 42.098 244.804, 45.327 245.405 C 53.321 246.893, 61.845 248.144, 70.500 249.101 C 85.764 250.788, 94.095 251.810, 98.566 252.545 C 105.836 253.741, 111.200 246.287, 107.325 240.374 C 105.231 237.178, 102.472 236.115, 93 234.855 C 88.875 234.307, 82.575 233.422, 79 232.889 C 66.831 231.073, 57.513 229.949, 49.877 229.374 L 42.254 228.800 39.627 232.244 M 273.268 232.414 C 263.468 235.978, 255.922 245.160, 255.651 253.851 C 255.339 263.854, 261.096 264.904, 270.173 256.500 C 278.487 248.803, 280.570 248.915, 289.991 257.560 C 297.764 264.694, 300.444 265.416, 302.763 261 C 306.780 253.350, 298.525 237.979, 288.446 234.342 C 278.352 230.700, 278.078 230.665, 273.268 232.414 M 185.883 235.533 C 180.932 238.022, 175 244.365, 175 247.169 C 175 248.111, 174.550 249.160, 174 249.500 C 171.921 250.785, 172.852 259.512, 175.314 261.826 C 178.398 264.722, 179.026 264.607, 183.054 260.405 C 188.050 255.192, 194.468 251, 197.454 251 C 199.306 251, 201.924 252.858, 206.612 257.500 C 213.763 264.581, 215.535 265.188, 218.826 261.686 C 221.788 258.532, 221.755 251.607, 218.750 245.963 C 216.392 241.534, 209.580 235, 207.320 235 C 206.594 235, 206 234.550, 206 234 C 206 231.899, 190.807 233.057, 185.883 235.533 M 287.317 286.250 C 286.200 287.488, 283.472 291.200, 281.254 294.500 C 277.792 299.652, 266.123 312, 264.717 312 C 264.457 312, 262.502 312.749, 260.372 313.664 C 255.115 315.924, 253.913 316.133, 243.104 316.674 C 222.914 317.684, 209.020 310.874, 201.127 296.100 C 196.105 286.701, 190.977 283.423, 187.200 287.200 C 185.752 288.648, 185.590 298.628, 187 299.500 C 187.550 299.840, 188 301.130, 188 302.368 C 188 309.228, 199.208 321.816, 210 327.076 C 222.994 333.410, 226.504 334.223, 240.638 334.166 C 253.810 334.113, 256.710 333.505, 267 328.644 C 278.225 323.341, 292 310.927, 292 306.116 C 292 305.502, 292.450 305, 293 305 C 293.550 305, 294 304.190, 294 303.200 C 294 302.210, 294.521 300.879, 295.158 300.242 C 296.816 298.584, 296.784 287.650, 295.116 285.640 C 293.199 283.330, 289.707 283.603, 287.317 286.250 M 375.880 294.965 C 371.789 297.462, 370.661 300.922, 372.562 305.138 C 373.665 307.583, 375.198 309.262, 376.662 309.630 C 377.948 309.953, 379 310.618, 379 311.108 C 379 311.599, 379.810 312, 380.800 312 C 381.790 312, 383.027 312.374, 383.550 312.831 C 384.072 313.288, 387.425 314.455, 391 315.425 C 394.575 316.395, 398.281 317.596, 399.236 318.094 C 400.191 318.592, 401.852 319, 402.927 319 C 404.002 319, 405.160 319.450, 405.500 320 C 405.840 320.550, 407.190 321, 408.500 321 C 409.810 321, 411.160 321.450, 411.500 322 C 411.840 322.550, 413.415 323, 415 323 C 416.585 323, 418.129 323.399, 418.430 323.887 C 418.731 324.374, 420.670 325.076, 422.739 325.447 C 427.192 326.245, 432.811 327.897, 435.236 329.123 C 436.191 329.605, 438.077 330, 439.427 330 C 440.777 330, 442.160 330.450, 442.500 331 C 444.750 334.641, 454 328.295, 454 323.110 C 454 319.466, 449.332 315.090, 444.632 314.328 C 442.608 313.999, 440.711 313.341, 440.417 312.865 C 440.123 312.389, 438.585 312, 437 312 C 435.415 312, 433.840 311.550, 433.500 311 C 433.160 310.450, 431.585 310, 430 310 C 428.415 310, 426.840 309.550, 426.500 309 C 426.160 308.450, 425.002 308, 423.927 308 C 422.852 308, 421.191 307.592, 420.236 307.092 C 417.679 305.755, 408.056 303, 405.944 303 C 404.940 303, 403.840 302.550, 403.500 302 C 403.160 301.450, 401.810 301, 400.500 301 C 399.190 301, 397.840 300.550, 397.500 300 C 397.160 299.450, 395.784 299, 394.441 299 C 393.098 299, 392 298.550, 392 298 C 392 297.450, 391.190 297, 390.200 297 C 389.210 297, 387.972 296.587, 387.450 296.082 C 385.978 294.660, 377.691 293.859, 375.880 294.965 M 94.500 304.403 C 92.300 305.122, 88.475 306.269, 86 306.952 C 83.525 307.636, 80.719 308.601, 79.764 309.097 C 78.809 309.594, 77.148 310, 76.073 310 C 74.998 310, 73.840 310.450, 73.500 311 C 73.160 311.550, 71.810 312, 70.500 312 C 69.190 312, 67.856 312.424, 67.536 312.942 C 67.215 313.460, 64.933 314.187, 62.464 314.558 C 59.995 314.928, 57.729 315.629, 57.429 316.115 C 57.128 316.602, 55.810 317, 54.500 317 C 53.190 317, 51.840 317.450, 51.500 318 C 51.160 318.550, 50.002 319, 48.927 319 C 47.852 319, 46.191 319.420, 45.236 319.934 C 44.281 320.447, 41.343 321.451, 38.707 322.165 C 30.327 324.433, 26.813 330.951, 31.061 336.350 C 33.633 339.620, 38.523 339.676, 49.500 336.561 C 52.800 335.625, 56.737 334.615, 58.250 334.316 C 59.762 334.017, 61 333.374, 61 332.887 C 61 332.399, 62.098 332, 63.441 332 C 64.784 332, 66.160 331.550, 66.500 331 C 66.840 330.450, 67.998 330, 69.073 330 C 70.148 330, 71.809 329.595, 72.764 329.100 C 73.719 328.604, 77.200 327.423, 80.500 326.475 C 83.800 325.527, 87.281 324.357, 88.236 323.876 C 89.191 323.394, 90.852 323, 91.927 323 C 93.002 323, 94.160 322.550, 94.500 322 C 94.840 321.450, 96.415 321, 98 321 C 99.585 321, 101.160 320.550, 101.500 320 C 101.840 319.450, 102.879 318.986, 103.809 318.968 C 107.029 318.908, 111 314.355, 111 310.722 C 111 303.844, 104.190 301.236, 94.500 304.403 M 346.174 358.314 C 344.649 359.938, 344 361.892, 344 364.860 C 344 369.633, 342.838 368.250, 360.496 384.500 C 382.169 404.446, 386.445 408.481, 387.790 410.256 C 393.638 417.969, 404 415.953, 404 407.102 C 404 402.041, 402.097 399.745, 387.431 387.114 C 385.269 385.252, 377.137 377.489, 369.361 369.864 C 353.740 354.548, 350.997 353.181, 346.174 358.314 M 131.500 361.331 C 130.400 362.546, 127.700 365.056, 125.500 366.909 C 123.300 368.762, 117.225 374.387, 112 379.410 C 106.775 384.432, 100.123 390.527, 97.218 392.954 C 87.846 400.784, 85.901 406.352, 90.589 411.923 C 95.770 418.081, 97.514 417.188, 116.209 398.808 C 123.654 391.488, 133.378 382.116, 137.819 377.980 L 145.893 370.459 145.035 366.657 C 143.330 359.096, 136.100 356.252, 131.500 361.331 M 184.850 398.438 C 181.645 401.410, 175.567 413.724, 164.829 439 C 164.245 440.375, 163.369 442.281, 162.883 443.236 C 162.397 444.191, 162 445.654, 162 446.486 C 162 447.319, 161.550 448, 161 448 C 160.450 448, 160 448.599, 160 449.331 C 160 450.062, 158.877 452.875, 157.504 455.581 C 152.921 464.614, 155.121 470, 163.392 470 C 166.170 470, 167.459 469.267, 169.913 466.290 C 172.672 462.942, 178 453.291, 178 451.639 C 178 451.030, 179.237 448.113, 183.998 437.500 C 184.985 435.300, 186.540 431.700, 187.455 429.500 C 188.370 427.300, 189.992 423.770, 191.059 421.655 C 192.127 419.541, 193 417.179, 193 416.405 C 193 415.632, 193.450 415, 194 415 C 194.550 415, 195 414.137, 195 413.083 C 195 412.029, 195.480 411.007, 196.068 410.811 C 196.655 410.615, 197.216 408.363, 197.315 405.805 C 197.643 397.327, 190.562 393.142, 184.850 398.438 M 299.783 397.750 C 295.474 402.690, 295.485 403.060, 300.239 414 C 301.314 416.475, 302.873 420.075, 303.701 422 C 304.530 423.925, 306.118 427.525, 307.231 430 C 308.343 432.475, 309.609 435.400, 310.044 436.500 C 311.007 438.936, 315.333 448.551, 318.800 455.962 C 323.616 466.259, 331.378 469.491, 335.932 463.096 C 338.618 459.323, 338.615 459.299, 334.401 450.238 C 329.659 440.042, 326.921 433.953, 325.975 431.500 C 325.551 430.400, 324.551 427.925, 323.752 426 C 322.953 424.075, 321.690 420.925, 320.944 419 C 320.199 417.075, 318.331 413.092, 316.794 410.148 C 315.257 407.205, 314 404.256, 314 403.595 C 314 402.933, 312.516 400.954, 310.702 399.196 C 306.942 395.551, 302.244 394.929, 299.783 397.750 M 241.113 407.583 C 239.049 410.207, 239 411.126, 239 447.029 L 239 483.788 241.901 486.894 C 245.685 490.944, 249.634 491.035, 253.349 487.158 L 256.072 484.315 255.786 447.729 C 255.509 412.357, 255.430 411.050, 253.400 408.322 C 250.334 404.202, 244.069 403.825, 241.113 407.583" stroke="#000000" fill="black" fill-rule="evenodd"/> </svg>