<svg xmlns="http://www.w3.org/2000/svg" viewBox="0 0 512 512" version="1.1" width="512" height="512"> <path stroke-linecap="round" stroke-linejoin="round" stroke-miterlimit="2" d="M 258.500 55.966 C 257.400 56.457, 255.064 56.891, 253.309 56.930 C 251.554 56.968, 249.872 57.398, 249.571 57.885 C 249.271 58.371, 247.781 59.001, 246.262 59.284 C 241.248 60.217, 239.117 60.852, 235.287 62.554 C 233.204 63.480, 229.925 64.931, 228 65.779 C 221.577 68.609, 207.757 78.091, 201.691 83.829 C 190.920 94.017, 182.216 107.435, 173.616 127.112 C 171.349 132.298, 170.716 132.670, 160.750 134.674 C 159.238 134.978, 158 135.626, 158 136.113 C 158 136.601, 157.109 137, 156.020 137 C 153.952 137, 148.461 138.901, 141.261 142.111 C 138.929 143.150, 136.747 144, 136.412 144 C 136.077 144, 134.384 144.630, 132.651 145.399 C 130.918 146.169, 127.973 147.406, 126.107 148.149 C 120.513 150.376, 99.154 161.307, 86.500 168.420 C 84.053 169.795, 73.281 176.939, 70.547 179 C 58.617 187.991, 56.939 193.960, 64.250 201.395 C 71.200 208.462, 87.588 219.373, 102 226.528 C 122.623 236.766, 123.119 237, 124.193 237 C 124.746 237, 126.841 237.721, 128.849 238.602 C 130.857 239.483, 133.625 240.661, 135 241.219 C 136.375 241.777, 138.190 242.574, 139.033 242.990 C 139.876 243.405, 142.126 244.080, 144.033 244.488 C 145.940 244.897, 147.950 245.555, 148.500 245.951 C 149.050 246.348, 152.200 247.466, 155.500 248.436 C 167.124 251.853, 168.518 252.284, 170.500 253.080 C 172.748 253.983, 180.825 255.896, 185.759 256.694 C 187.552 256.984, 189.266 257.621, 189.568 258.110 C 189.871 258.600, 191.576 259, 193.359 259 C 195.142 259, 197.140 259.540, 197.800 260.200 C 198.460 260.860, 199 261.030, 199 260.578 C 199 260.125, 199.675 260.315, 200.500 261 C 201.325 261.685, 202 263.116, 202 264.180 C 202 266.128, 201.309 267.467, 192.282 283 C 182.297 300.182, 180.095 304.222, 167.490 328.500 C 163.493 336.200, 158.527 345.650, 156.456 349.500 C 154.385 353.350, 150.793 360.100, 148.475 364.500 C 146.156 368.900, 142.344 376.100, 140.004 380.500 C 134.409 391.020, 123.617 411.711, 119.141 420.500 C 117.180 424.350, 115.311 427.725, 114.986 428 C 114.661 428.275, 113.565 430.300, 112.550 432.500 C 111.535 434.700, 110.424 436.725, 110.082 437 C 109.739 437.275, 108.906 438.759, 108.230 440.297 C 103.958 450.013, 114.287 456.584, 120.732 448.250 C 123.913 444.137, 125.306 441.787, 136 422.500 C 137.830 419.200, 140.097 415.150, 141.039 413.500 C 141.981 411.850, 144.588 407.285, 146.834 403.355 C 149.079 399.425, 153.021 392.225, 155.593 387.355 C 165.138 369.287, 170.388 359.241, 175.378 349.500 C 178.195 344, 180.737 339.275, 181.027 339 C 181.317 338.725, 184.151 333.325, 187.325 327 C 190.499 320.675, 196.443 309.200, 200.534 301.500 C 204.625 293.800, 209.413 284.641, 211.174 281.146 C 214.297 274.950, 216.538 272.764, 217.851 274.632 C 218.663 275.787, 227.016 279.294, 235.052 281.855 C 241.355 283.863, 248.287 285.137, 258 286.074 C 263.225 286.578, 267.950 287.149, 268.500 287.342 C 269.940 287.848, 298.487 285.326, 305 284.117 C 313.843 282.476, 319.124 280.815, 327.484 277.046 L 332.468 274.798 334.984 277.828 C 336.368 279.494, 338.393 282.577, 339.485 284.679 C 340.577 286.780, 342.939 290.841, 344.735 293.702 C 346.531 296.563, 348 299.110, 348 299.362 C 348 299.615, 349.729 302.899, 351.842 306.660 C 353.955 310.422, 357.345 316.551, 359.376 320.281 C 361.407 324.010, 363.938 328.609, 365 330.500 C 366.062 332.391, 368.590 336.990, 370.616 340.719 C 372.643 344.449, 375.663 349.975, 377.329 353 C 378.994 356.025, 381.514 360.750, 382.928 363.500 C 384.343 366.250, 385.725 368.725, 386 369 C 386.275 369.275, 387.805 371.975, 389.400 375 C 390.995 378.025, 393.291 382.300, 394.501 384.500 C 395.712 386.700, 398.426 391.650, 400.534 395.500 C 402.642 399.350, 406.421 406.111, 408.933 410.525 C 411.445 414.939, 414.174 419.889, 414.998 421.525 C 415.823 423.161, 416.723 424.725, 416.998 425 C 417.274 425.275, 418.396 427.300, 419.490 429.500 C 420.585 431.700, 421.710 433.725, 421.990 434 C 422.271 434.275, 423.850 437.177, 425.500 440.450 C 431.528 452.405, 437.164 455.421, 441.997 449.277 C 444.764 445.758, 444.142 442.241, 439.063 432.690 C 436.960 428.736, 434.173 423.475, 432.870 421 C 431.566 418.525, 430.163 416.350, 429.750 416.167 C 429.337 415.983, 428.997 415.308, 428.994 414.667 C 428.990 414.025, 428.383 412.375, 427.643 411 C 426.904 409.625, 424.151 404.450, 421.527 399.500 C 418.902 394.550, 415.623 388.475, 414.239 386 C 411.566 381.219, 407.246 373.148, 399.518 358.500 C 393.137 346.404, 391.591 343.591, 391 343 C 390.725 342.725, 389.603 340.700, 388.507 338.500 C 387.411 336.300, 384.895 331.575, 382.915 328 C 380.936 324.425, 377.724 318.575, 375.778 315 C 373.832 311.425, 370.989 306.250, 369.460 303.500 C 367.931 300.750, 366.189 297.600, 365.590 296.500 C 364.990 295.400, 364.275 294.275, 364 294 C 363.725 293.725, 362.616 291.700, 361.536 289.500 C 360.455 287.300, 358.093 283.129, 356.286 280.231 C 354.479 277.332, 353 274.736, 353 274.461 C 353 274.185, 351.875 272.178, 350.500 270 C 349.125 267.822, 348 265.161, 348 264.087 C 348 262.019, 348.372 261.849, 357 259.979 C 360.025 259.323, 363.281 258.385, 364.236 257.893 C 365.191 257.402, 367.077 257, 368.427 257 C 369.777 257, 371.134 256.592, 371.442 256.094 C 371.750 255.595, 374.251 254.878, 377 254.500 C 379.749 254.122, 382.250 253.405, 382.558 252.906 C 382.866 252.408, 384.190 252, 385.500 252 C 386.810 252, 388.124 251.609, 388.419 251.131 C 388.714 250.654, 390.785 249.970, 393.022 249.613 C 395.258 249.255, 397.855 248.573, 398.794 248.098 C 401.324 246.816, 404.900 245.415, 410.500 243.513 C 413.250 242.579, 417.875 240.731, 420.777 239.407 C 423.680 238.083, 426.717 237, 427.527 237 C 428.337 237, 429 236.550, 429 236 C 429 235.450, 429.900 235, 431 235 C 432.100 235, 433 234.550, 433 234 C 433 233.450, 433.563 232.998, 434.250 232.996 C 435.509 232.991, 450.355 225.739, 452.401 224.129 C 453.006 223.654, 456.200 221.787, 459.500 219.980 C 465.834 216.512, 467.529 215.328, 476.926 207.800 C 491.741 195.931, 491.024 188.433, 474 177.199 C 470.975 175.202, 468.275 173.296, 468 172.962 C 467.725 172.627, 466.825 172.044, 466 171.664 C 465.175 171.284, 462.250 169.606, 459.500 167.934 C 456.750 166.262, 453.712 164.640, 452.750 164.330 C 451.788 164.020, 451 163.418, 451 162.992 C 451 162.566, 449.767 161.907, 448.260 161.529 C 446.753 161.151, 445.291 160.516, 445.010 160.119 C 444.499 159.394, 423.518 149, 422.566 149 C 422.287 149, 419.600 147.875, 416.594 146.500 C 413.588 145.125, 410.869 144, 410.553 144 C 410.237 144, 408.071 143.146, 405.739 142.102 C 403.408 141.059, 399.025 139.422, 396 138.466 C 392.975 137.509, 389.600 136.368, 388.500 135.929 C 386.610 135.176, 383.364 134.167, 376.500 132.198 C 374.013 131.485, 373.318 130.582, 372.439 126.919 C 371.383 122.520, 371.088 121.662, 368.344 115 C 361.669 98.789, 345.877 80.198, 330.639 70.609 C 324.599 66.808, 315.256 62.379, 309.500 60.587 C 306.200 59.560, 302.600 58.364, 301.500 57.928 C 295.843 55.689, 262.525 54.168, 258.500 55.966 M 255 76.652 C 251.164 77.236, 244.611 79.251, 243.550 80.174 C 243.028 80.628, 241.655 81, 240.500 81 C 239.345 81, 237.860 81.540, 237.200 82.200 C 236.540 82.860, 236 83.054, 236 82.632 C 236 82.209, 234.693 82.794, 233.096 83.932 C 231.498 85.069, 229.902 86, 229.548 86 C 227.483 86, 216.800 94.126, 210.750 100.299 C 202.097 109.129, 197.777 115.743, 192.989 127.500 C 192.317 129.150, 191.400 131.232, 190.952 132.127 C 188.625 136.772, 188.809 140.619, 191.510 143.829 C 192.977 145.573, 194.775 147, 195.506 147 C 196.236 147, 196.985 147.455, 197.170 148.010 C 197.355 148.566, 199.980 149.128, 203.003 149.260 C 208.432 149.497, 208.504 149.463, 208.838 146.500 C 209.025 144.850, 209.525 143.050, 209.951 142.500 C 210.376 141.950, 211.027 140.150, 211.398 138.500 C 216.058 117.736, 244.013 90.418, 268.170 83.021 C 280.898 79.124, 270.815 74.248, 255 76.652 M 166.500 151 C 166.160 151.550, 164.810 152, 163.500 152 C 162.190 152, 160.871 152.399, 160.570 152.887 C 160.269 153.374, 158.387 154.080, 156.388 154.455 C 154.389 154.830, 152.022 155.504, 151.127 155.952 C 150.232 156.400, 148.375 157.223, 147 157.781 C 145.625 158.339, 142.857 159.517, 140.849 160.398 C 138.841 161.279, 136.746 162, 136.193 162 C 135.641 162, 133.459 162.855, 131.345 163.901 C 129.230 164.946, 122.100 168.416, 115.500 171.611 C 101.725 178.279, 90.438 185.313, 88.900 188.187 C 88.073 189.733, 88.242 190.618, 89.670 192.226 C 92.824 195.776, 108.006 204.971, 117 208.777 C 118.375 209.359, 121.975 210.951, 125 212.316 C 128.025 213.680, 132.975 215.608, 136 216.600 C 139.025 217.592, 141.928 218.763, 142.450 219.202 C 142.973 219.641, 144.408 220, 145.641 220 C 146.874 220, 148.144 220.424, 148.464 220.942 C 148.785 221.460, 151.067 222.187, 153.536 222.558 C 156.005 222.928, 158.271 223.629, 158.571 224.115 C 158.872 224.602, 160.415 225, 162 225 C 163.585 225, 165.134 225.408, 165.442 225.906 C 165.750 226.405, 168.364 227.130, 171.251 227.518 C 174.138 227.906, 176.950 228.567, 177.500 228.986 C 178.050 229.406, 180.075 230.046, 182 230.409 C 183.925 230.773, 189.100 231.750, 193.500 232.581 C 232.991 240.041, 237.428 240.449, 278 240.337 C 313.272 240.241, 327.961 239.141, 348 235.097 C 360.311 232.613, 367.873 231.007, 371.500 230.107 C 373.700 229.560, 377.750 228.620, 380.500 228.016 C 383.250 227.413, 386.281 226.487, 387.236 225.960 C 388.191 225.432, 389.852 225, 390.927 225 C 392.002 225, 393.124 224.609, 393.419 224.131 C 393.714 223.654, 395.785 222.970, 398.022 222.613 C 400.258 222.255, 402.855 221.573, 403.794 221.098 C 406.574 219.689, 410.187 218.261, 415.500 216.470 C 418.250 215.543, 422.300 213.959, 424.500 212.949 C 426.700 211.940, 430.525 210.192, 433 209.066 C 441.261 205.306, 451.342 199.257, 456.659 194.869 L 461.921 190.527 459.343 187.836 C 456.605 184.979, 444.681 177.325, 439.250 174.939 C 437.463 174.154, 436 173.172, 436 172.756 C 436 172.340, 435.502 172, 434.893 172 C 434.284 172, 430.797 170.618, 427.143 168.930 C 416.300 163.919, 413.908 162.952, 406 160.383 C 402.975 159.400, 400.073 158.237, 399.550 157.798 C 399.028 157.359, 397.592 157, 396.359 157 C 395.126 157, 393.872 156.602, 393.571 156.115 C 393.271 155.629, 390.928 154.916, 388.365 154.532 C 385.803 154.148, 382.881 153.318, 381.874 152.689 C 380.440 151.794, 379.438 151.899, 377.271 153.171 C 366.806 159.316, 356.228 164.742, 348 168.187 C 346.625 168.762, 344.810 169.574, 343.967 169.990 C 343.124 170.405, 340.874 171.080, 338.967 171.488 C 337.060 171.897, 335.050 172.548, 334.500 172.935 C 333.367 173.733, 327.659 175.493, 321 177.096 C 300.028 182.146, 268.780 183.011, 246 179.171 C 236.951 177.646, 228.628 175.874, 226.500 175.021 C 222.977 173.606, 213.817 171, 212.372 171 C 211.602 171, 210.191 170.603, 209.236 170.117 C 206.155 168.549, 202.561 167.141, 200 166.498 C 194.526 165.123, 176.481 156.180, 174.277 153.750 C 173.404 152.787, 172.085 152, 171.345 152 C 170.605 152, 170 151.550, 170 151 C 170 150.450, 169.352 150, 168.559 150 C 167.766 150, 166.840 150.450, 166.500 151 M 166.557 179.047 C 156.509 184.060, 152.580 191.671, 157.500 196.591 C 161.661 200.752, 170.433 198.017, 176.342 190.716 C 183.609 181.738, 176.988 173.843, 166.557 179.047 M 371.343 180.566 C 363.858 188.051, 381.416 203.436, 390.906 197.709 C 397.087 193.978, 393.481 185.427, 383.712 180.647 C 376.951 177.340, 374.585 177.324, 371.343 180.566 M 235.966 193.820 C 224.331 198.977, 222.730 216, 233.881 216 C 243.011 216, 248.780 201.358, 241.923 195.589 C 238.659 192.842, 238.368 192.756, 235.966 193.820 M 306.551 197.344 C 303.614 201.194, 303.408 203.339, 305.494 208.332 C 308.950 216.603, 315.517 219.201, 320.313 214.195 C 323.053 211.335, 324.025 205.751, 322 204.500 C 321.450 204.160, 321 203.097, 321 202.137 C 321 201.178, 319.516 198.954, 317.702 197.196 C 313.295 192.924, 309.888 192.969, 306.551 197.344 M 237.196 316.298 C 235.438 318.111, 233.997 320.024, 233.994 320.548 C 233.990 321.071, 233.407 322.625, 232.697 324 C 231.987 325.375, 230.606 329.200, 229.627 332.500 C 227.891 338.354, 226.605 341.827, 224.952 345.127 C 224.504 346.022, 223.830 348.389, 223.455 350.388 C 223.080 352.387, 222.374 354.269, 221.887 354.570 C 221.399 354.871, 221 355.998, 221 357.073 C 221 358.148, 220.576 359.809, 220.059 360.764 C 219.541 361.719, 218.342 365.200, 217.395 368.500 C 216.447 371.800, 215.370 374.950, 215 375.500 C 214.630 376.050, 213.553 379.200, 212.605 382.500 C 211.658 385.800, 210.459 389.281, 209.941 390.236 C 209.424 391.191, 209 392.852, 209 393.927 C 209 395.002, 208.576 396.144, 208.058 396.464 C 207.540 396.785, 206.813 399.067, 206.442 401.536 C 206.072 404.005, 205.371 406.271, 204.885 406.571 C 204.398 406.872, 204 408.190, 204 409.500 C 204 410.810, 203.550 412.160, 203 412.500 C 200.554 414.011, 201.902 421.740, 205.077 424.411 C 208.777 427.525, 209.391 427.570, 213.003 424.998 C 214.954 423.608, 216.334 421.235, 217.508 417.248 C 218.438 414.086, 219.582 410.600, 220.050 409.500 C 221.621 405.801, 224 397.943, 224 396.451 C 224 395.638, 224.520 393.966, 225.156 392.736 C 227.418 388.361, 227.761 387.374, 228.463 383.217 C 228.854 380.903, 229.585 378.757, 230.087 378.446 C 230.589 378.136, 231 376.810, 231 375.500 C 231 374.190, 231.398 372.872, 231.885 372.571 C 232.371 372.271, 233.072 370.005, 233.442 367.536 C 233.813 365.067, 234.540 362.785, 235.058 362.464 C 235.576 362.144, 236 360.810, 236 359.500 C 236 358.190, 236.450 356.840, 237 356.500 C 237.550 356.160, 238 354.810, 238 353.500 C 238 352.190, 238.424 350.856, 238.942 350.536 C 239.460 350.215, 240.187 347.933, 240.558 345.464 C 240.928 342.995, 241.629 340.729, 242.115 340.429 C 242.602 340.128, 243 338.874, 243 337.641 C 243 336.408, 243.441 334.959, 243.979 334.421 C 244.517 333.883, 245.492 330.003, 246.146 325.800 C 248.015 313.778, 243.887 309.395, 237.196 316.298 M 305.405 315.105 C 303.371 317.353, 303.008 326.066, 304.852 328.356 C 305.359 328.985, 306.089 331.410, 306.474 333.745 C 306.859 336.079, 307.585 338.243, 308.087 338.554 C 308.589 338.864, 309 339.998, 309 341.073 C 309 342.148, 309.424 343.809, 309.941 344.764 C 310.459 345.719, 311.629 349.200, 312.541 352.500 C 314.138 358.275, 315.378 361.767, 316.993 365.038 C 317.411 365.885, 318.073 368.470, 318.463 370.783 C 318.854 373.097, 319.585 375.243, 320.087 375.554 C 320.589 375.864, 321 377.190, 321 378.500 C 321 379.810, 321.411 381.136, 321.913 381.446 C 322.415 381.757, 323.129 383.806, 323.500 386 C 323.871 388.194, 324.585 390.243, 325.087 390.554 C 325.589 390.864, 326 392.190, 326 393.500 C 326 394.810, 326.398 396.128, 326.885 396.429 C 327.371 396.729, 328.072 398.995, 328.442 401.464 C 328.813 403.933, 329.540 406.215, 330.058 406.536 C 330.576 406.856, 331 408.190, 331 409.500 C 331 410.810, 331.391 412.124, 331.869 412.419 C 332.346 412.714, 333.034 414.813, 333.397 417.083 C 334.141 421.731, 338.632 427, 341.850 427 C 345.811 427, 351.862 417.269, 349 415.500 C 348.450 415.160, 348 413.810, 348 412.500 C 348 411.190, 347.602 409.872, 347.115 409.571 C 346.629 409.271, 345.928 407.005, 345.558 404.536 C 345.187 402.067, 344.460 399.785, 343.942 399.464 C 343.424 399.144, 343 398.002, 343 396.927 C 343 395.852, 342.606 394.191, 342.124 393.236 C 341.643 392.281, 340.438 388.800, 339.448 385.500 C 338.457 382.200, 337.276 379.073, 336.823 378.550 C 336.370 378.028, 336 376.784, 336 375.786 C 336 374.789, 335.576 373.191, 335.059 372.236 C 334.541 371.281, 333.342 367.800, 332.395 364.500 C 331.447 361.200, 330.336 358.050, 329.925 357.500 C 329.515 356.950, 328.863 354.808, 328.476 352.739 C 328.090 350.670, 327.374 348.731, 326.887 348.430 C 326.399 348.129, 326 346.810, 326 345.500 C 326 344.190, 325.601 342.871, 325.113 342.570 C 324.626 342.269, 323.920 340.387, 323.545 338.388 C 323.170 336.389, 322.496 334.022, 322.048 333.127 C 321.600 332.232, 320.760 330.375, 320.181 329 C 319.603 327.625, 318.257 324.434, 317.191 321.908 C 315.440 317.760, 310.662 313, 308.251 313 C 307.733 313, 306.453 313.947, 305.405 315.105 M 271.526 360.971 C 268.469 364.349, 268.107 370.175, 268.015 417.380 C 267.935 458.243, 268.102 463.455, 269.536 465.040 C 273.260 469.155, 279.829 468.165, 282.452 463.093 C 283.754 460.576, 283.987 455.354, 283.919 430.300 C 283.791 383.035, 282.850 363.597, 280.569 361.076 C 278.197 358.455, 273.849 358.404, 271.526 360.971" stroke="#000000" fill="black" fill-rule="evenodd"/> </svg>