<svg xmlns="http://www.w3.org/2000/svg" viewBox="0 0 512 512" version="1.1" width="512" height="512"> <path stroke-linecap="round" stroke-linejoin="round" stroke-miterlimit="2" d="M 231.500 52.564 C 213.758 54.990, 210.539 55.578, 208.316 56.800 C 207.114 57.460, 204.778 58, 203.125 58 C 201.471 58, 199.840 58.450, 199.500 59 C 199.160 59.550, 197.645 60, 196.132 60 C 194.620 60, 192.509 60.661, 191.441 61.468 C 190.374 62.276, 188.524 62.951, 187.331 62.968 C 186.138 62.986, 183.888 63.633, 182.331 64.407 C 178.535 66.295, 174.977 67.741, 172.250 68.505 C 171.012 68.851, 170 69.554, 170 70.067 C 170 70.580, 168.875 71, 167.500 71 C 166.125 71, 165 71.401, 165 71.892 C 165 72.382, 163.875 73.066, 162.500 73.411 C 161.125 73.756, 160 74.480, 160 75.019 C 160 75.559, 159.306 76, 158.457 76 C 157.609 76, 154.478 77.800, 151.500 80 C 148.522 82.200, 145.784 84, 145.415 84 C 143.009 84, 120.994 104.424, 114.428 112.746 C 111.717 116.182, 109.162 118.994, 108.750 118.996 C 108.338 118.998, 108 119.467, 108 120.037 C 108 120.607, 105.750 124.278, 103 128.194 C 100.250 132.110, 98 135.918, 98 136.657 C 98 137.396, 97.594 138, 97.098 138 C 96.602 138, 95.691 139.238, 95.075 140.750 C 94.459 142.262, 92.629 145.750, 91.008 148.500 C 89.387 151.250, 87.779 154.175, 87.434 155 C 86.321 157.660, 83.730 163.450, 82.853 165.236 C 82.384 166.191, 81.986 167.766, 81.968 168.736 C 81.951 169.706, 81.276 171.374, 80.468 172.441 C 79.661 173.509, 79 175.620, 79 177.132 C 79 178.645, 78.550 180.160, 78 180.500 C 77.450 180.840, 77 182.355, 77 183.868 C 77 185.380, 76.339 187.491, 75.532 188.559 C 74.724 189.626, 74.049 192.358, 74.032 194.628 C 74.014 196.898, 73.306 200.417, 72.457 202.448 C 70.571 206.963, 70.287 254.804, 72.107 261.500 C 72.705 263.700, 73.529 267.975, 73.938 271 C 74.347 274.025, 75.204 277.767, 75.841 279.315 C 76.478 280.863, 77 283.451, 77 285.065 C 77 286.679, 77.450 288, 78 288 C 78.550 288, 79 289.295, 79 290.878 C 79 292.460, 79.675 294.315, 80.500 295 C 81.325 295.685, 82 297.540, 82 299.122 C 82 300.705, 82.401 302, 82.891 302 C 84.362 302, 84.718 309.008, 83.339 310.822 C 82.638 311.745, 82.035 313.850, 82 315.500 C 81.965 317.150, 81.276 319.374, 80.468 320.441 C 79.661 321.509, 79 324.070, 79 326.132 C 79 328.195, 78.550 330.160, 78 330.500 C 76.683 331.314, 76.683 352.686, 78 353.500 C 78.550 353.840, 79 355.611, 79 357.437 C 79 359.262, 79.675 361.315, 80.500 362 C 81.325 362.685, 82 363.697, 82 364.250 C 82 368.960, 100.086 386.445, 109.199 390.544 C 111.014 391.361, 113.175 392.403, 114 392.859 C 118.227 395.197, 120.096 396, 121.312 396 C 122.049 396, 123.563 397.012, 124.678 398.250 C 126.502 400.276, 126.811 402.687, 127.785 422.500 C 128.936 445.902, 129.091 446.578, 135.573 456.471 C 138.083 460.302, 144.336 464.246, 154 468.095 C 158.817 470.013, 223.783 470.592, 253.500 468.981 C 292.990 466.841, 303.139 465.742, 305.087 463.395 C 305.724 462.628, 306.659 462, 307.165 462 C 308.809 462, 318.753 454.157, 320.746 451.290 C 323.831 446.849, 326 441.891, 326 439.281 C 326 437.954, 326.555 435.886, 327.234 434.684 C 328.384 432.648, 329.093 426.993, 330.602 407.797 C 331.323 398.625, 332.438 397.502, 341.888 396.433 C 345.274 396.050, 348.286 395.346, 348.581 394.868 C 348.877 394.391, 350.386 394, 351.937 394 C 353.487 394, 355.315 393.325, 356 392.500 C 356.685 391.675, 358.315 391, 359.622 391 C 360.930 391, 362 390.594, 362 390.098 C 362 389.602, 363.238 388.760, 364.750 388.228 C 369.870 386.427, 394 365.207, 394 362.506 C 394 361.884, 395.329 360.101, 396.954 358.544 C 398.578 356.988, 400.625 354.316, 401.501 352.607 C 402.377 350.898, 404.437 347.250, 406.079 344.500 C 407.721 341.750, 409.307 338.825, 409.604 338 C 409.901 337.175, 410.565 335.825, 411.079 335 C 411.592 334.175, 412.268 332.825, 412.579 332 C 412.891 331.175, 413.563 329.719, 414.073 328.764 C 414.583 327.809, 415 326.401, 415 325.636 C 415 324.871, 415.675 323.685, 416.500 323 C 417.325 322.315, 418 320.653, 418 319.306 C 418 317.959, 418.675 316.182, 419.500 315.357 C 420.325 314.532, 421 312.791, 421 311.488 C 421 310.184, 421.450 308.840, 422 308.500 C 422.550 308.160, 423.014 306.671, 423.032 305.191 C 423.049 303.711, 423.724 301.626, 424.532 300.559 C 425.339 299.491, 426 297.155, 426 295.368 C 426 293.580, 426.387 291.879, 426.859 291.587 C 427.331 291.295, 428.020 288.486, 428.389 285.344 C 428.759 282.202, 429.445 279.152, 429.916 278.566 C 430.386 277.980, 431.024 274.575, 431.335 271 C 431.645 267.425, 432.345 262.250, 432.890 259.500 C 434.203 252.875, 434.192 220.708, 432.874 215 C 432.303 212.525, 431.497 207.800, 431.083 204.500 C 430.669 201.200, 429.806 197.233, 429.165 195.685 C 428.524 194.137, 428 191.351, 428 189.494 C 428 187.637, 427.550 185.840, 427 185.500 C 426.450 185.160, 425.986 183.671, 425.968 182.191 C 425.951 180.711, 425.276 178.626, 424.468 177.559 C 423.661 176.491, 423 174.354, 423 172.809 C 423 171.264, 422.550 170, 422 170 C 421.450 170, 421 169.186, 421 168.191 C 421 167.196, 420.339 165.509, 419.532 164.441 C 418.724 163.374, 418.049 161.473, 418.032 160.219 C 418.014 158.964, 417.325 157.678, 416.500 157.362 C 415.675 157.045, 415 155.961, 415 154.952 C 415 153.943, 414.550 152.840, 414 152.500 C 413.450 152.160, 413 151.009, 413 149.941 C 413 148.873, 412.580 148, 412.067 148 C 411.554 148, 410.815 146.987, 410.424 145.750 C 410.032 144.512, 408.763 142.150, 407.604 140.500 C 406.444 138.850, 405.046 136.766, 404.497 135.869 C 402.317 132.304, 396.657 124.443, 395.592 123.500 C 394.971 122.950, 390.975 118.363, 386.712 113.307 C 382.448 108.250, 375.482 101.311, 371.230 97.885 C 366.979 94.460, 363.140 91.060, 362.700 90.329 C 362.260 89.598, 361.441 89, 360.880 89 C 360.318 89, 357.050 86.996, 353.618 84.547 C 350.186 82.098, 346.168 79.634, 344.689 79.072 C 343.210 78.510, 342 77.588, 342 77.025 C 342 76.461, 341.137 76, 340.083 76 C 339.029 76, 338.017 75.662, 337.833 75.250 C 337.650 74.838, 335.700 73.663, 333.500 72.640 C 331.300 71.617, 328.825 70.377, 328 69.884 C 327.175 69.391, 325.825 68.732, 325 68.421 C 324.175 68.109, 322.719 67.437, 321.764 66.927 C 320.809 66.417, 319.176 66, 318.136 66 C 317.096 66, 315.685 65.325, 315 64.500 C 314.315 63.675, 312.573 62.986, 311.128 62.968 C 309.682 62.951, 307.626 62.276, 306.559 61.468 C 305.491 60.661, 303.605 60, 302.368 60 C 301.130 60, 299.840 59.550, 299.500 59 C 299.160 58.450, 297.199 58, 295.141 58 C 293.083 58, 290.861 57.461, 290.203 56.803 C 289.068 55.668, 286.130 55.099, 271 53.088 C 258.250 51.392, 241.675 51.172, 231.500 52.564 M 237.500 77.983 C 234.750 78.446, 229.264 78.864, 225.309 78.912 C 221.354 78.961, 217.840 79.450, 217.500 80 C 217.160 80.550, 214.970 81, 212.632 81 C 210.295 81, 207.509 81.661, 206.441 82.468 C 205.374 83.276, 203.332 83.951, 201.904 83.968 C 199.567 83.997, 195.617 85.449, 190.764 88.064 C 189.809 88.579, 188.176 89, 187.136 89 C 186.096 89, 184.685 89.675, 184 90.500 C 183.315 91.325, 182.204 92, 181.531 92 C 180.201 92, 176.232 93.996, 171.500 97.045 C 169.850 98.108, 167.825 99.289, 167 99.670 C 154.224 105.565, 124.565 135.224, 118.670 148 C 118.289 148.825, 117.097 150.850, 116.021 152.500 C 113.531 156.317, 111 161.869, 111 163.515 C 111 164.214, 110.325 165.045, 109.500 165.362 C 108.675 165.678, 108 166.782, 108 167.815 C 108 169.525, 106.350 173.756, 103.936 178.236 C 103.421 179.191, 103 181.018, 103 182.295 C 103 183.573, 102.339 185.491, 101.532 186.559 C 100.724 187.626, 100.049 190.161, 100.032 192.191 C 100.014 194.221, 99.550 196.160, 99 196.500 C 98.450 196.840, 97.995 199.229, 97.988 201.809 C 97.982 204.389, 97.312 208.975, 96.500 212 C 94.798 218.340, 94.465 239.142, 95.994 243.601 C 96.874 246.166, 97.449 249.804, 99.647 266.708 C 99.948 269.023, 100.826 271.441, 101.597 272.081 C 102.369 272.721, 103 274.738, 103 276.563 C 103 278.389, 103.450 280.160, 104 280.500 C 104.550 280.840, 105.003 281.879, 105.006 282.809 C 105.010 283.739, 105.685 285.789, 106.506 287.364 C 107.328 288.940, 108 291.472, 108 292.992 C 108 294.512, 108.675 296.315, 109.500 297 C 111.599 298.742, 111.624 314.793, 109.532 317.559 C 108.724 318.626, 108.049 320.873, 108.032 322.550 C 108.014 324.228, 107.549 326.051, 106.998 326.602 C 106.447 327.153, 105.728 329.605, 105.399 332.052 C 105.071 334.498, 104.397 336.927, 103.901 337.450 C 102.527 338.899, 102.886 344.266, 104.500 346.397 C 105.290 347.441, 105.705 348.669, 105.422 349.127 C 104.238 351.042, 114.208 363.234, 118.498 365.117 C 119.599 365.600, 121.175 366.376, 122 366.842 C 126.093 369.153, 128.109 370, 129.518 370 C 130.368 370, 131.322 370.675, 131.638 371.500 C 131.955 372.325, 133.011 373, 133.985 373 C 134.958 373, 136.315 373.675, 137 374.500 C 137.685 375.325, 138.801 376, 139.482 376 C 141.430 376, 149.996 383.986, 150.032 385.835 C 150.049 386.751, 150.724 388.374, 151.532 389.441 C 152.714 391.003, 153 395.443, 153 412.191 L 153 433 157 437 C 163.270 443.270, 174.192 442.341, 170.158 435.881 C 169.521 434.861, 169 430.603, 169 426.418 C 169 417.814, 170.701 414.293, 176.178 411.561 C 180.583 409.363, 182.036 409.581, 186.272 413.073 C 189.512 415.743, 190 416.704, 190 420.406 C 190 425.616, 191.789 435.694, 193.257 438.750 C 194.189 440.689, 195.116 441, 199.969 441 C 206.020 441, 208 439.870, 208 436.414 C 208 435.212, 208.672 432.940, 209.494 431.364 C 210.324 429.773, 210.990 425.876, 210.994 422.594 C 211.002 414.981, 214.297 409.991, 219.301 410.015 C 225.580 410.045, 228.991 415.385, 228.996 425.191 C 228.998 428.871, 229.450 432.160, 230 432.500 C 230.550 432.840, 231 434.147, 231 435.404 C 231 439.376, 233.962 441, 241.206 441 C 250.097 441, 250.289 440.650, 251.637 422 C 252.166 414.686, 252.581 413.231, 254.614 411.573 C 260.593 406.697, 271 410.242, 271 417.155 C 271 418.792, 271.455 420.981, 272.011 422.020 C 272.566 423.058, 273.295 426.741, 273.629 430.204 C 274.538 439.604, 275.755 441, 283.037 441 C 287.461 441, 289.876 440.444, 292.269 438.876 C 299.178 434.346, 299.617 433.011, 302.034 409.105 C 302.612 403.388, 303.515 397.905, 304.042 396.921 C 304.569 395.937, 305 393.357, 305 391.188 C 305 388.903, 305.631 386.721, 306.500 386 C 307.325 385.315, 308 384.214, 308 383.552 C 308 381.848, 312.318 378, 314.231 378 C 315.112 378, 315.983 377.585, 316.167 377.078 C 316.350 376.570, 318.525 375.862, 321 375.504 C 323.475 375.146, 325.928 374.436, 326.450 373.926 C 326.973 373.417, 328.773 372.986, 330.450 372.968 C 332.128 372.951, 334.374 372.276, 335.441 371.468 C 336.509 370.661, 338.646 370, 340.191 370 C 341.736 370, 343 369.550, 343 369 C 343 368.450, 344.070 368, 345.378 368 C 346.685 368, 348.315 367.325, 349 366.500 C 349.685 365.675, 350.895 365, 351.689 365 C 352.484 365, 354.608 363.875, 356.411 362.500 C 358.214 361.125, 359.983 360, 360.343 360 C 362.951 360, 379.787 341.065, 384.500 332.830 C 388.358 326.089, 392 318.603, 392 317.414 C 392 316.636, 392.450 316, 393 316 C 393.550 316, 394 314.930, 394 313.622 C 394 312.315, 394.675 310.685, 395.500 310 C 396.325 309.315, 397 307.515, 397 306 C 397 304.485, 397.675 302.685, 398.500 302 C 399.325 301.315, 400 299.487, 400 297.937 C 400 296.386, 400.450 294.840, 401 294.500 C 401.550 294.160, 402.016 292.446, 402.035 290.691 C 402.055 288.936, 402.714 286.375, 403.500 285 C 404.286 283.625, 404.945 280.438, 404.965 277.917 C 404.984 275.396, 405.338 272.997, 405.750 272.587 C 407.103 271.240, 409.281 249.760, 409.358 237 C 409.432 224.831, 407.708 209.267, 405.897 205.764 C 405.404 204.809, 404.986 202.334, 404.968 200.264 C 404.951 198.194, 404.276 195.626, 403.468 194.559 C 402.661 193.491, 402 191.129, 402 189.309 C 402 187.489, 401.550 186, 401 186 C 400.450 186, 400 184.736, 400 183.191 C 400 181.646, 399.339 179.509, 398.532 178.441 C 397.724 177.374, 397.049 175.543, 397.032 174.372 C 397.014 173.202, 396.325 171.685, 395.500 171 C 394.675 170.315, 393.967 169.023, 393.927 168.128 C 393.887 167.232, 393.007 165.150, 391.971 163.500 C 390.936 161.850, 389.296 158.925, 388.327 157 C 387.358 155.075, 386.201 153.050, 385.756 152.500 C 385.311 151.950, 381.621 146.977, 377.555 141.448 C 371.746 133.549, 349.115 110, 347.333 110 C 347.134 110, 344.445 107.942, 341.356 105.426 C 338.267 102.910, 334.786 100.428, 333.620 99.911 C 332.454 99.394, 330.150 98.091, 328.500 97.017 C 324.556 94.449, 319.111 92, 317.346 92 C 316.571 92, 315.678 91.325, 315.362 90.500 C 315.045 89.675, 313.928 89, 312.879 89 C 310.967 89, 310.330 88.757, 304.169 85.669 C 302.337 84.751, 299.614 84, 298.119 84 C 296.624 84, 294.861 83.461, 294.203 82.803 C 291.430 80.030, 247.515 76.298, 237.500 77.983 M 145 219.717 C 136.464 222.676, 124.255 233.891, 124.009 239 C 123.969 239.825, 123.276 241.374, 122.468 242.441 C 121.661 243.509, 121 245.421, 121 246.691 C 121 247.961, 120.550 249, 120 249 C 119.450 249, 119 250.520, 119 252.378 C 119 254.236, 118.325 257.371, 117.500 259.346 C 115.495 264.145, 115.495 278.855, 117.500 283.654 C 118.325 285.629, 119 288.545, 119 290.136 C 119 291.726, 119.384 293.809, 119.853 294.764 C 121.942 299.016, 123.913 303.679, 124.499 305.750 C 124.849 306.988, 125.506 308, 125.959 308 C 126.412 308, 127.038 309.014, 127.349 310.253 C 128.118 313.320, 137.240 322.325, 141.794 324.513 C 143.832 325.493, 146.281 326.678, 147.236 327.147 C 156.842 331.865, 177.084 321.220, 183.056 308.311 C 184.123 306.006, 185.446 303.842, 185.997 303.502 C 186.549 303.161, 187.014 301.896, 187.032 300.691 C 187.049 299.486, 187.724 297.626, 188.532 296.559 C 189.339 295.491, 190 293.219, 190 291.509 C 190 289.799, 190.477 287.923, 191.059 287.341 C 193.410 284.990, 190.908 253.508, 188.151 250.751 C 187.518 250.118, 187 248.620, 187 247.422 C 187 246.225, 186.325 244.685, 185.500 244 C 184.675 243.315, 184 242.119, 184 241.342 C 184 237.482, 172.536 224.829, 166.555 222.087 C 156.324 217.396, 152.811 217.010, 145 219.717 M 268.573 221.256 C 262.685 224.293, 250 236.080, 250 238.515 C 250 239.197, 249.325 240.315, 248.500 241 C 247.675 241.685, 247 243.090, 247 244.122 C 247 245.155, 246.550 246, 246 246 C 245.450 246, 245 247.250, 245 248.777 C 245 250.305, 244.239 252.642, 243.309 253.970 C 241.893 255.990, 241.612 259.025, 241.583 272.566 C 241.548 289.284, 241.433 288.639, 246.147 298.236 C 246.616 299.191, 247 300.879, 247 301.986 C 247 303.094, 247.429 304, 247.953 304 C 248.477 304, 249.702 305.688, 250.674 307.750 C 252.805 312.271, 265.312 324.963, 269.500 326.855 C 271.150 327.601, 273.989 328.923, 275.809 329.795 C 280.558 332.068, 301.308 331.936, 303.871 329.617 C 304.853 328.728, 306.579 328, 307.706 328 C 308.833 328, 310.315 327.325, 311 326.500 C 311.685 325.675, 312.766 325, 313.404 325 C 314.710 325, 325.369 314.314, 326.372 312 C 326.730 311.175, 327.884 309.150, 328.938 307.500 C 329.992 305.850, 330.887 303.578, 330.927 302.450 C 330.967 301.323, 331.539 299.861, 332.197 299.203 C 336.122 295.278, 336.249 263.157, 332.362 257.527 C 331.613 256.443, 331 254.557, 331 253.337 C 331 252.116, 330.550 250.840, 330 250.500 C 329.450 250.160, 329 248.832, 329 247.548 C 329 246.264, 328.325 244.955, 327.500 244.638 C 326.675 244.322, 326 243.354, 326 242.489 C 326 240.185, 318.609 230.562, 314.790 227.894 C 312.980 226.631, 311.233 225.213, 310.907 224.744 C 310.581 224.275, 307.656 222.567, 304.407 220.949 C 295.503 216.515, 277.464 216.669, 268.573 221.256 M 201.869 311.750 C 199.363 314.363, 196.555 318.075, 195.629 320 C 194.703 321.925, 193.553 324.175, 193.073 325 C 190.404 329.595, 187 337.424, 187 338.970 C 187 339.952, 186.325 341.315, 185.500 342 C 184.675 342.685, 184 344.513, 184 346.063 C 184 347.614, 183.550 349.160, 183 349.500 C 182.450 349.840, 181.986 351.329, 181.968 352.809 C 181.951 354.289, 181.276 356.374, 180.468 357.441 C 178.390 360.189, 178.485 372.285, 180.610 375.528 C 182.678 378.683, 188.876 380.672, 191.787 379.114 C 192.932 378.501, 195.222 378, 196.875 378 C 198.529 378, 200.139 377.585, 200.452 377.077 C 200.766 376.569, 202.368 375.858, 204.011 375.497 C 205.655 375.136, 207 374.427, 207 373.921 C 207 373.414, 207.868 373, 208.929 373 C 209.989 373, 211.532 372.325, 212.357 371.500 C 213.182 370.675, 214.741 370, 215.822 370 C 216.902 370, 218.045 370.675, 218.362 371.500 C 218.678 372.325, 219.825 373, 220.910 373 C 221.994 373, 223.160 373.450, 223.500 374 C 223.840 374.550, 224.936 375, 225.937 375 C 226.937 375, 228.315 375.675, 229 376.500 C 229.685 377.325, 231.294 378, 232.575 378 C 233.857 378, 236.064 378.528, 237.480 379.173 C 239.449 380.070, 240.330 380.070, 241.227 379.173 C 241.872 378.528, 243.125 378, 244.012 378 C 246.268 378, 250 372.622, 250 369.370 C 250 367.106, 246.606 359.129, 243.034 353 C 242.132 351.451, 234.699 335.660, 233.621 333 C 233.286 332.175, 232.612 330.825, 232.122 330 C 231.632 329.175, 230.626 327.150, 229.886 325.500 C 229.146 323.850, 227.519 321.108, 226.270 319.406 C 225.022 317.704, 224 315.883, 224 315.359 C 224 314.835, 222.294 312.740, 220.208 310.703 C 216.859 307.433, 215.832 307, 211.420 307 C 206.767 307, 206.113 307.325, 201.869 311.750" stroke="#000000" fill="black" fill-rule="evenodd"/> </svg>