<svg xmlns="http://www.w3.org/2000/svg" viewBox="0 0 512 512" version="1.1" width="512" height="512"> <path stroke-linecap="round" stroke-linejoin="round" stroke-miterlimit="2" d="M 241.299 31.250 C 239.365 33.373, 239.215 35.136, 238.625 62.500 C 238.282 78.450, 237.709 102.345, 237.352 115.599 C 236.834 134.871, 236.965 139.860, 238.007 140.504 C 239.632 141.509, 253.209 141.152, 254.308 140.076 C 254.752 139.641, 254.635 134.608, 254.048 128.892 C 253.105 119.711, 252.340 103.145, 250.292 47.556 C 249.790 33.918, 249.556 32.456, 247.621 30.839 C 244.815 28.494, 243.746 28.563, 241.299 31.250 M 167.241 65.986 C 165.330 69.045, 165.756 73.503, 168.500 79.192 C 169.875 82.042, 171 84.785, 171 85.286 C 171 85.787, 171.629 87.616, 172.399 89.349 C 173.168 91.082, 174.609 94.975, 175.600 98 C 176.592 101.025, 177.763 103.928, 178.202 104.450 C 178.641 104.973, 179.003 106.098, 179.006 106.950 C 179.010 107.803, 179.685 109.789, 180.506 111.364 C 181.328 112.940, 182 114.672, 182 115.213 C 182 115.755, 182.633 117.616, 183.406 119.349 C 184.179 121.082, 185.603 124.750, 186.571 127.500 C 187.539 130.250, 188.706 132.927, 189.165 133.450 C 189.624 133.972, 190.003 135.097, 190.006 135.950 C 190.010 136.802, 190.685 138.789, 191.506 140.364 C 192.328 141.940, 193 143.572, 193 143.992 C 193 144.412, 193.666 146.349, 194.480 148.297 L 195.960 151.839 200.975 149.419 C 203.733 148.089, 206.373 147, 206.840 147 C 207.308 147, 208.481 146.126, 209.448 145.057 C 211.141 143.186, 210.977 142.643, 204.981 130.307 C 188.826 97.066, 177 71.678, 177 70.235 C 177 68.899, 171.542 64, 170.053 64 C 169.189 64, 167.923 64.894, 167.241 65.986 M 314.551 67.344 C 313.148 69.184, 312 70.986, 312 71.348 C 312 71.979, 309.475 77.419, 297.307 103 C 289.787 118.809, 288.432 121.747, 286.003 127.500 C 284.842 130.250, 282.723 134.811, 281.295 137.635 C 278.586 142.991, 278.714 145.644, 281.727 146.618 C 282.702 146.933, 285.721 148.096, 288.435 149.203 C 293.613 151.314, 296 150.396, 296 146.295 C 296 145.568, 296.409 144.191, 296.909 143.236 C 297.410 142.281, 299.719 136.325, 302.042 130 C 304.365 123.675, 306.839 117.150, 307.539 115.500 C 308.239 113.850, 309.584 110.250, 310.527 107.500 C 311.471 104.750, 312.864 101.082, 313.622 99.349 C 314.380 97.616, 315 95.478, 315 94.599 C 315 93.719, 315.450 93, 316 93 C 316.550 93, 317 92.340, 317 91.534 C 317 90.728, 317.737 88.365, 318.639 86.284 C 325.078 71.414, 325.550 69.214, 322.901 66.395 C 319.833 63.129, 317.569 63.387, 314.551 67.344 M 89.557 92.223 C 88.701 93.445, 88 94.838, 88 95.319 C 88 96.261, 96.287 105.538, 127.500 139.541 C 138.500 151.524, 150.135 164.404, 153.355 168.164 C 156.575 171.924, 159.833 175, 160.594 175 C 162.303 175, 173.500 164.987, 173.500 163.459 C 173.500 162.850, 168.103 157.435, 161.506 151.426 C 154.909 145.417, 145.009 136.260, 139.506 131.078 C 134.003 125.896, 127.475 119.792, 125 117.513 C 122.525 115.234, 114.963 108.112, 108.195 101.685 C 95.151 89.297, 92.536 87.969, 89.557 92.223 M 382.415 101.250 C 375.823 107.438, 365.270 117.207, 358.964 122.960 C 352.659 128.713, 344.125 136.596, 340 140.479 C 330.443 149.475, 317.408 161.129, 315.766 162.147 C 314.373 163.010, 325.443 175, 327.633 175 C 328.697 175, 355.866 146.712, 389.250 110.845 C 401.288 97.912, 403.113 94.513, 399.800 91.200 C 397.104 88.504, 394.221 90.170, 382.415 101.250 M 230.500 157.663 C 224.939 158.116, 211.699 161.083, 210.550 162.132 C 210.027 162.610, 208.902 163.002, 208.050 163.004 C 206.180 163.010, 191.254 170.460, 188.967 172.530 C 188.074 173.338, 186.842 174, 186.231 174 C 183.579 174, 167.163 191.838, 161.843 200.500 C 154.038 213.207, 152.426 216.829, 153.918 218.308 C 154.850 219.233, 156.739 217.819, 162.343 212 C 172.314 201.646, 180.342 194.610, 188 189.514 C 195.523 184.508, 205.862 179, 207.736 179 C 208.446 179, 209.809 178.588, 210.764 178.085 C 217.960 174.294, 239.789 171.596, 251.815 173.012 C 283.751 176.773, 299.299 184.345, 323.138 207.747 C 333.514 217.934, 337.914 220.696, 335.153 215.291 C 334.650 214.306, 333.203 211.250, 331.937 208.500 C 315.352 172.459, 278.082 153.780, 230.500 157.663 M 67.747 169.727 C 64.728 173.063, 65.563 175.563, 70.750 178.715 C 76.908 182.458, 120.501 204, 121.917 204 C 122.513 204, 123 204.450, 123 205 C 123 205.550, 123.584 206, 124.298 206 C 125.011 206, 128.673 207.576, 132.435 209.503 C 138.838 212.782, 139.360 212.894, 140.606 211.253 C 141.338 210.289, 141.951 208.782, 141.968 207.904 C 141.986 207.026, 142.708 204.888, 143.573 203.154 C 145.515 199.261, 145.108 196.639, 142.489 196.157 C 141.395 195.955, 138.124 194.713, 135.220 193.395 C 132.317 192.078, 129.685 191, 129.371 191 C 129.058 191, 127.384 190.358, 125.651 189.572 C 123.918 188.787, 120.250 187.159, 117.500 185.954 C 114.750 184.749, 110.728 182.917, 108.562 181.882 C 106.396 180.847, 104.234 180, 103.757 180 C 103.280 180, 100.777 179.075, 98.195 177.945 C 92.878 175.619, 91.152 174.885, 85.500 172.554 C 83.300 171.646, 80.703 170.465, 79.728 169.929 C 75.839 167.792, 69.594 167.687, 67.747 169.727 M 412.500 170.081 C 409.750 171.165, 406.375 172.551, 405 173.160 C 403.625 173.769, 401.600 174.633, 400.500 175.079 C 399.400 175.526, 396.250 176.840, 393.500 178 C 390.750 179.160, 387.600 180.472, 386.500 180.916 C 385.400 181.360, 382.797 182.460, 380.716 183.361 C 378.635 184.263, 376.272 185, 375.466 185 C 374.660 185, 374 185.450, 374 186 C 374 186.550, 373.328 187, 372.507 187 C 370.592 187, 364.765 189.456, 354.590 194.552 C 346.882 198.413, 346.507 198.756, 346.650 201.823 C 346.915 207.533, 351.881 216.219, 353.167 213.224 C 353.350 212.797, 362.500 207.908, 373.500 202.360 C 424.668 176.553, 425 176.364, 425 173 C 425 168.221, 420.112 167.079, 412.500 170.081 M 232.818 198.042 C 226.166 198.818, 221.352 200.089, 215.349 202.654 C 213.616 203.394, 211.742 204, 211.186 204 C 209.442 204, 188 215.221, 188 216.133 C 188 216.610, 187.438 217.005, 186.750 217.010 C 184.782 217.026, 169.347 230.305, 165.071 235.659 C 162.945 238.322, 159.810 241.526, 158.103 242.780 C 155.370 244.788, 155 245.640, 155 249.922 C 155 254.566, 155.261 255.026, 160.809 260.142 C 178.175 276.160, 190.003 284.940, 202 290.719 C 210.037 294.591, 213.338 295.852, 224 299.120 C 233.552 302.049, 269.425 300.394, 273.450 296.839 C 273.972 296.378, 275.097 295.985, 275.950 295.966 C 276.802 295.947, 279.300 295.063, 281.500 294 C 283.700 292.937, 285.802 292.053, 286.171 292.034 C 289.648 291.858, 309.050 277.842, 319.500 267.958 C 323.350 264.316, 328.188 260.324, 330.250 259.087 C 333.850 256.927, 334 256.618, 334 251.386 L 334 245.935 325.250 237.108 C 315.754 227.528, 306.623 219.762, 300.429 215.995 C 298.268 214.681, 296.275 213.357, 295.999 213.053 C 295.111 212.072, 284.108 206.279, 276.096 202.574 C 274.224 201.708, 271.952 201, 271.046 201 C 270.141 201, 268.973 200.576, 268.450 200.058 C 266.030 197.659, 245.877 196.519, 232.818 198.042 M 223 213.758 C 210.936 217.656, 193.732 227.948, 181.705 238.463 C 169.616 249.032, 169.617 249.027, 176.151 255.697 C 183.017 262.704, 194.287 271.576, 199 273.683 C 199.825 274.052, 200.725 274.612, 201 274.928 C 201.275 275.244, 203.750 276.542, 206.500 277.814 C 209.250 279.085, 212.281 280.547, 213.236 281.063 C 214.191 281.578, 215.660 282, 216.500 282 C 217.340 282, 218.809 282.421, 219.764 282.937 C 228.755 287.786, 264.219 287.748, 269.450 282.883 C 269.973 282.398, 271.105 282, 271.966 282 C 274.594 282, 294.864 271.348, 299.830 267.356 C 307.886 260.883, 316.061 252.589, 316.635 250.308 C 317.334 247.535, 316.473 246.540, 305.500 237.446 C 291.634 225.954, 286.375 222.716, 271 216.201 C 261.766 212.289, 260.300 212.703, 266.539 217.462 C 274.192 223.299, 279 234.293, 279 245.952 C 279 261.019, 271.352 272.861, 257.312 279.534 C 232.134 291.501, 201.999 263.048, 210.549 235.381 C 212.862 227.896, 214.205 225.692, 220.366 219.275 C 225.314 214.121, 225.941 212.808, 223 213.758 M 118.898 239.435 C 118.615 239.718, 99.285 240.444, 75.942 241.047 L 33.500 242.145 31.041 244.554 L 28.582 246.963 30.645 249.732 C 32.680 252.463, 32.892 252.508, 46.603 253.115 C 94.442 255.233, 130.109 256.012, 132.034 254.982 C 133.857 254.006, 134.053 253.085, 133.793 246.692 L 133.500 239.500 126.456 239.210 C 122.582 239.051, 119.181 239.152, 118.898 239.435 M 355.466 240.227 C 355.158 241.030, 355.040 245.020, 355.203 249.094 L 355.500 256.500 360 256.363 C 379.624 255.763, 430.970 253.880, 441.500 253.373 C 455.366 252.706, 458 251.769, 458 247.500 C 458 242.606, 456.283 242.250, 429.500 241.585 C 386.149 240.510, 370.716 239.994, 363.263 239.372 C 357.443 238.886, 355.917 239.053, 355.466 240.227 M 155.485 280.024 C 153.045 283.973, 162.917 301.842, 173.886 313.333 C 182.992 322.873, 203.746 336, 209.721 336 C 210.754 336, 212.028 336.415, 212.550 336.923 C 213.551 337.896, 220.163 339.416, 231 341.164 C 238.499 342.375, 265.445 341.683, 267.273 340.234 C 267.948 339.699, 270.243 338.946, 272.373 338.562 C 274.503 338.178, 276.978 337.464, 277.873 336.976 C 278.768 336.488, 282.637 334.687, 286.470 332.974 C 309.433 322.716, 331.448 299.602, 333.666 283.422 C 334.506 277.292, 333.497 277.796, 325.622 287.438 C 318.522 296.129, 310.909 302.881, 300.500 309.716 C 293.590 314.253, 282.044 320, 279.838 320 C 279.010 320, 277.996 320.337, 277.584 320.749 C 276.301 322.032, 266.992 324.084, 254.827 325.766 C 244.050 327.256, 242.439 327.254, 233.827 325.740 C 219.761 323.268, 213.607 321.908, 212.500 321.027 C 211.950 320.589, 210.056 319.922, 208.291 319.545 C 195.872 316.890, 173.226 300.329, 161.830 285.566 C 156.338 278.453, 156.415 278.520, 155.485 280.024 M 137 282.843 C 137 283.372, 135.762 284.277, 134.250 284.854 C 132.738 285.431, 126.100 288.854, 119.500 292.461 C 112.900 296.067, 105.025 300.245, 102 301.745 C 98.975 303.245, 96.275 304.704, 96 304.986 C 95.302 305.703, 75.092 315.645, 71.802 316.890 C 70.319 317.451, 68.354 319.056, 67.437 320.455 C 63.713 326.139, 71.657 330.410, 78.846 326.590 C 82.885 324.443, 88.688 322, 89.747 322 C 90.663 322, 95.689 319.847, 99.236 317.936 C 100.191 317.421, 101.398 317, 101.917 317 C 102.847 317, 114.856 311.816, 118.236 309.956 C 119.191 309.430, 120.398 309, 120.917 309 C 121.436 309, 124.704 307.708, 128.180 306.128 C 131.656 304.548, 136.682 302.445, 139.348 301.455 C 144.868 299.404, 145.835 297.937, 143.771 294.742 C 142.975 293.509, 141.509 290.348, 140.513 287.717 C 138.810 283.216, 137 280.705, 137 282.843 M 349.975 285.565 C 349.439 286.976, 349 288.482, 349 288.911 C 349 289.341, 348.283 291.129, 347.408 292.885 C 345.220 297.270, 346.029 298.594, 352.718 301.574 C 355.898 302.990, 359.918 304.791, 361.651 305.575 C 363.384 306.359, 365.058 307, 365.371 307 C 365.685 307, 368.400 308.125, 371.406 309.500 C 374.412 310.875, 377.576 312, 378.436 312 C 379.296 312, 380 312.450, 380 313 C 380 313.550, 380.644 314, 381.430 314 C 382.217 314, 385.929 315.386, 389.680 317.081 C 393.431 318.776, 397.850 320.762, 399.500 321.495 C 401.150 322.228, 404.982 323.956, 408.016 325.336 C 416.590 329.235, 418.505 329.495, 420.913 327.087 C 425.195 322.805, 423.563 320.807, 410 313.730 C 404.225 310.716, 397.700 307.234, 395.500 305.990 C 393.300 304.747, 385.650 300.687, 378.500 296.969 C 360.543 287.630, 358.573 286.574, 358.001 285.980 C 357.434 285.391, 352.160 283, 351.428 283 C 351.165 283, 350.512 284.154, 349.975 285.565 M 152.593 328.492 C 143.987 338.164, 136.043 346.714, 121 362.494 C 104.035 380.289, 90 396.248, 90 397.742 C 90 405.041, 96.732 404.879, 104.034 397.405 C 112.110 389.140, 136.073 366.695, 156.238 348.511 L 173.968 332.522 167.763 326.261 C 164.350 322.817, 161.241 320, 160.853 320 C 160.466 320, 156.748 323.822, 152.593 328.492 M 322.719 326.779 C 316.116 333.451, 315.997 333.882, 319.944 336.801 C 321.563 337.998, 327.784 343.595, 333.767 349.239 C 339.750 354.882, 354.896 369.175, 367.425 381 C 379.954 392.825, 391.093 402.835, 392.177 403.245 C 395.976 404.681, 399.679 400.935, 398.218 397.132 C 397.552 395.398, 387.216 383.943, 353 347.023 C 345.575 339.012, 337.171 329.879, 334.324 326.728 C 331.477 323.578, 328.988 321, 328.792 321 C 328.597 321, 325.864 323.601, 322.719 326.779 M 288.500 349.411 C 285.750 350.697, 282.712 352.017, 281.750 352.343 C 279.867 352.982, 279.358 356.485, 281 357.500 C 281.550 357.840, 282 358.735, 282 359.489 C 282 360.243, 283.386 363.929, 285.081 367.680 C 286.776 371.431, 288.863 376.075, 289.719 378 C 290.575 379.925, 292.950 385.100, 294.997 389.500 C 301.091 402.602, 303.385 407.800, 308.453 420 C 311.743 427.920, 313.511 430, 316.955 430 C 321.250 430, 323.913 424.607, 321.177 421.450 C 320.724 420.927, 319.506 417.800, 318.471 414.500 C 317.436 411.200, 316.232 408.073, 315.795 407.550 C 315.358 407.028, 314.997 405.678, 314.994 404.550 C 314.990 403.423, 314.315 401.211, 313.494 399.636 C 312.672 398.060, 312 396.163, 312 395.420 C 312 394.217, 310.098 389.241, 308.005 384.967 C 307.592 384.124, 306.915 381.889, 306.500 380 C 306.085 378.111, 305.393 375.876, 304.962 375.033 C 304.530 374.190, 303.420 371.250, 302.494 368.500 C 301.569 365.750, 300.179 362.082, 299.406 360.349 C 298.633 358.616, 298 356.472, 298 355.585 C 298 354.698, 297.583 353.191, 297.073 352.236 C 296.563 351.281, 295.902 349.712, 295.604 348.750 C 294.921 346.541, 294.568 346.573, 288.500 349.411 M 194.263 349.250 C 193.723 349.938, 192.495 352.750, 191.535 355.500 C 190.574 358.250, 189.440 361.400, 189.014 362.500 C 186.026 370.216, 184.554 373.904, 183.364 376.651 C 182.614 378.384, 182 380.303, 182 380.915 C 182 381.527, 181.572 382.809, 181.048 383.764 C 180.065 385.558, 178.533 389.234, 175.533 397 C 174.577 399.475, 173.391 402.281, 172.897 403.236 C 172.404 404.191, 172 405.454, 172 406.041 C 172 406.629, 171.075 409.223, 169.945 411.805 C 168.815 414.387, 167.413 417.625, 166.829 419 C 166.245 420.375, 165.342 422.325, 164.823 423.333 C 162.374 428.090, 170.603 432.398, 174.213 428.250 C 175.880 426.335, 189.755 397.771, 195.101 385.250 C 195.864 383.462, 196.828 382, 197.244 382 C 197.660 382, 198 381.525, 198 380.945 C 198 379.793, 200.118 374.961, 206.224 362.182 C 208.410 357.608, 209.928 353.595, 209.599 353.265 C 209.123 352.790, 196.252 348, 195.450 348 C 195.337 348, 194.803 348.563, 194.263 349.250 M 235.943 357.750 C 235.729 360.574, 236.268 385.097, 237.101 410.500 C 238.923 466.035, 238.793 465, 243.967 465 C 249.437 465, 249.816 463.496, 250.267 440 C 250.494 428.175, 251.268 405.384, 251.986 389.353 C 252.705 373.322, 253.016 359.484, 252.678 358.603 C 252.031 356.918, 236.068 356.105, 235.943 357.750" stroke="#000000" fill="black" fill-rule="evenodd"/> </svg>