<svg xmlns="http://www.w3.org/2000/svg" viewBox="0 0 512 512" version="1.1" width="512" height="512"> <path stroke-linecap="round" stroke-linejoin="round" stroke-miterlimit="2" d="M 307.736 1.597 C 306.712 2.622, 313.150 12.111, 315.638 13.245 C 318.355 14.483, 323 12.913, 323 10.757 C 323 10.049, 323.874 7.839, 324.943 5.845 C 326.012 3.851, 326.612 1.945, 326.276 1.610 C 325.488 0.822, 308.523 0.811, 307.736 1.597 M 152.695 22.750 C 149.255 25.913, 143.820 30.750, 140.617 33.500 C 134.067 39.124, 126.407 48.500, 123.463 54.500 C 122.383 56.700, 121.219 58.725, 120.876 59 C 120.532 59.275, 119.918 61.075, 119.510 63 C 119.103 64.925, 118.309 67.070, 117.748 67.768 C 116.292 69.574, 115.615 95.441, 116.852 102 C 117.423 105.025, 118.600 110.875, 119.468 115 C 122.785 130.765, 123.148 133.683, 122.552 139.782 C 121.337 152.207, 111.850 162.708, 102.657 161.804 C 96.007 161.150, 93.066 151.139, 96.568 141.079 C 99.681 132.142, 96.363 116, 91.414 116 C 90.621 116, 88.888 118.362, 87.562 121.250 C 86.237 124.138, 81.855 130.863, 77.826 136.194 C 68.386 148.687, 65.269 154.734, 62.551 165.831 C 58.138 183.845, 64.296 205.682, 77.151 217.607 C 85.463 225.319, 106.650 238, 111.221 238 C 111.979 238, 113.027 238.401, 113.550 238.890 C 114.072 239.380, 118.291 240.534, 122.924 241.456 C 131.031 243.068, 131.442 243.061, 133.861 241.255 C 137.693 238.394, 137.495 237.534, 132.093 233.568 C 124.283 227.835, 120.044 221.330, 118.863 213.266 C 116.684 198.375, 119.392 191.483, 132.955 177.401 C 139.890 170.201, 143.708 165.321, 145.562 161.287 C 147.025 158.104, 148.623 154.717, 149.113 153.759 C 150.499 151.054, 151.868 139.679, 151.325 135.375 C 150.555 129.267, 149.238 121.119, 147.748 113.250 C 146.994 109.262, 146.711 106, 147.120 106 C 147.892 106, 151.685 110.971, 153.594 114.486 C 154.196 115.594, 156.278 119.425, 158.219 123 C 165.085 135.641, 167.281 143.320, 167.371 155 C 167.456 166.063, 166.832 168.654, 160.997 181.500 C 157.198 189.864, 154.191 196.934, 151.853 203 C 149.976 207.869, 150.094 224.709, 152.029 228.009 C 155.528 233.979, 159.295 237.818, 163.254 239.453 C 165.589 240.417, 168.281 241.609, 169.236 242.103 C 171.788 243.421, 176.593 243.195, 177.836 241.698 C 179.154 240.109, 178.439 237.124, 175.347 231.309 C 171.500 224.073, 172.818 213.162, 178.674 203.770 C 179.953 201.718, 181 199.814, 181 199.537 C 181 199.261, 182.688 196.207, 184.750 192.751 C 190.156 183.691, 195 173.018, 195 170.166 C 195 169.195, 195.562 167.838, 196.250 167.151 C 198.344 165.058, 197.965 131.718, 195.783 126 C 194.838 123.525, 193.480 119.925, 192.765 118 C 190.364 111.537, 182.999 98.006, 178.190 91.224 C 172.286 82.896, 167.942 75.728, 165.632 70.500 C 164.660 68.300, 163.461 65.600, 162.967 64.500 C 162.473 63.400, 161.577 60.025, 160.974 57 C 160.372 53.975, 159.632 50.270, 159.329 48.767 C 158.773 46.008, 161.255 31.126, 163.226 25.401 C 164.671 21.204, 163.535 17, 160.956 17 C 159.852 17, 156.135 19.587, 152.695 22.750 M 383.500 83.255 C 381.850 83.829, 379.082 84.906, 377.349 85.649 C 375.616 86.392, 373.478 87, 372.599 87 C 371.719 87, 371 87.401, 371 87.892 C 371 88.382, 369.865 89.068, 368.477 89.416 C 361.220 91.238, 340.874 106.010, 328.489 118.449 C 312.660 134.348, 284 175.759, 284 182.732 C 284 183.338, 283.663 183.983, 283.250 184.167 C 282.445 184.524, 279.751 189.870, 275.521 199.500 C 274.072 202.800, 272.486 206.400, 271.998 207.500 C 271.002 209.740, 267.326 218.431, 266.076 221.500 C 264.733 224.794, 255.588 243.183, 253.021 247.750 C 250.442 252.338, 246.428 253.658, 245.420 250.250 C 243.258 242.940, 241.735 241.520, 235.500 241 L 229.500 240.500 228.147 225 C 226.117 201.732, 227.730 191.210, 234.864 181.191 C 237.643 177.288, 237.370 175.355, 233.651 172.606 L 230.803 170.500 227.330 174.499 C 218.089 185.141, 215.917 198.967, 218 233.878 C 218.571 243.452, 218.782 243.169, 209.737 244.989 C 203.033 246.339, 201.663 248.142, 200.582 257.040 C 200.211 260.088, 199.297 264.363, 198.550 266.540 L 197.191 270.500 179.346 271.070 C 169.531 271.383, 160.600 272.109, 159.500 272.682 C 158.400 273.256, 155.568 274.021, 153.206 274.382 C 150.845 274.742, 148.145 275.441, 147.206 275.933 C 146.268 276.426, 143.025 277.814, 140 279.019 C 131.760 282.300, 124.119 286.888, 122.318 289.637 C 118.923 294.819, 124.381 299.223, 129.636 295.542 C 133.076 293.133, 143.352 288, 144.736 288 C 145.446 288, 146.809 287.570, 147.764 287.044 C 153.407 283.936, 177.119 280.517, 188.500 281.171 L 194.500 281.516 194.230 284.881 C 193.847 289.641, 195.399 291, 201.221 291 C 208.004 291, 215.141 297.890, 210.250 299.716 C 208.441 300.391, 190.887 311.007, 190 311.962 C 189.725 312.258, 183.875 316.270, 177 320.878 C 137.548 347.318, 115.621 364.449, 97.961 382.624 C 75.182 406.069, 67.229 419.293, 58.904 447.571 C 56.388 456.118, 59.251 466.906, 65.151 471.107 C 68.911 473.785, 79.809 474.308, 87.500 472.181 C 99.290 468.920, 132.579 468.836, 146.500 472.033 C 148.700 472.538, 155.901 472.962, 162.503 472.976 C 182.342 473.016, 195.890 467.783, 209.655 454.764 C 212.607 451.973, 215.230 449.897, 215.484 450.151 C 215.739 450.405, 217.535 453.661, 219.477 457.387 C 226.371 470.613, 235.671 479.920, 247.500 485.431 C 249.700 486.456, 252.292 487.685, 253.260 488.162 C 259.776 491.374, 285.134 491.266, 288.388 488.012 C 288.945 487.455, 289.994 487, 290.721 487 C 297.969 487, 319.663 468.910, 325 458.416 C 326.375 455.712, 327.725 453.275, 328 453 C 328.747 452.253, 330.929 446.211, 332.695 440 C 333.555 436.975, 334.538 428.658, 334.879 421.517 L 335.500 408.534 340 408.807 C 342.475 408.958, 346.839 409.579, 349.698 410.188 C 355.934 411.516, 366.268 409.732, 369.173 406.827 C 371.184 404.816, 371.756 395.119, 370.118 390.810 C 369.632 389.533, 369.070 384.216, 368.868 378.994 L 368.500 369.500 371 369.774 C 372.375 369.924, 376.277 370.562, 379.671 371.191 C 385.592 372.289, 397.158 370.694, 403 367.974 C 409.939 364.744, 416.532 361.327, 417.423 360.500 C 418.015 359.950, 420.173 358.250, 422.219 356.723 C 426.570 353.473, 433.521 344.008, 437.803 335.500 C 446.021 319.174, 447.622 301.296, 442.234 286 C 437.554 272.710, 419.898 254.454, 404.533 247.016 C 398.923 244.300, 398.927 243.988, 404.628 237.647 C 409.262 232.493, 412.752 226.032, 414.995 218.458 C 416.601 213.033, 415.685 187.033, 413.516 176.500 C 408.747 153.336, 406.901 130.176, 409.107 121.179 C 409.873 118.055, 410.500 111.675, 410.500 107 C 410.500 98.750, 410.382 98.324, 406.500 92.500 C 400.439 83.409, 392.380 80.170, 383.500 83.255 M 382 99.823 C 379.525 100.745, 377.275 101.733, 377 102.020 C 376.725 102.306, 375.375 103.085, 374 103.750 C 361.120 109.978, 351.291 117.532, 335.407 133.412 C 322.400 146.414, 312 159.111, 312 161.987 C 312 162.453, 311.663 162.983, 311.250 163.167 C 310.617 163.448, 306.092 172.329, 302.928 179.500 C 299.149 188.064, 297.231 201.921, 298.714 209.941 C 299.451 213.925, 299.893 214.474, 303.018 215.276 C 312.160 217.624, 312.512 224.487, 303.964 233.729 C 293.958 244.547, 289.034 254, 293.405 254 C 300.544 254, 312.113 242.758, 319.205 228.930 C 321.544 224.370, 323.225 222.307, 325 221.820 C 326.375 221.443, 330.425 220.378, 334 219.454 C 337.575 218.531, 341.625 217.409, 343 216.962 C 346.246 215.906, 359.506 212.165, 364 211.037 C 365.925 210.554, 369.310 209.685, 371.522 209.107 C 373.734 208.529, 378.459 207.584, 382.022 207.007 C 405.047 203.276, 403.536 203.744, 403.164 200.463 C 402.979 198.834, 402.452 197.108, 401.993 196.629 C 401.055 195.651, 383.633 198.625, 380.500 200.299 C 377.712 201.788, 350.372 202.554, 348.727 201.189 C 347.117 199.852, 346.746 195.799, 347.944 192.646 C 348.777 190.457, 354.179 187.330, 365 182.773 C 370.243 180.565, 373.713 179.020, 380.079 176.059 C 383.697 174.377, 387.034 173, 387.493 173 C 390.147 173, 396.136 169.308, 396.621 167.372 C 398.065 161.619, 395.473 160.341, 388.632 163.435 C 385.203 164.985, 377.301 168.498, 369.500 171.939 C 366.750 173.152, 363.082 174.787, 361.349 175.572 C 359.616 176.358, 357.697 177, 357.085 177 C 356.473 177, 355.072 177.562, 353.971 178.250 C 351.086 180.052, 344.621 176.539, 344.202 172.941 C 343.501 166.923, 358.509 153.553, 381.750 139.491 C 391.894 133.353, 393 132.401, 393 129.811 C 393 125.901, 390.757 125.338, 386.799 128.254 C 383.466 130.709, 364.407 142.494, 356.686 146.874 C 354.383 148.180, 348.813 151.705, 344.306 154.708 C 339.799 157.711, 335.299 160.014, 334.306 159.826 C 329.871 158.984, 332.905 149.373, 341.024 138.541 C 346.466 131.282, 367.150 112, 369.496 112 C 369.847 112, 371.692 110.811, 373.596 109.359 C 377.638 106.276, 384.332 102.400, 388.250 100.875 C 389.762 100.286, 391 99.398, 391 98.902 C 391 97.541, 387.040 97.946, 382 99.823 M 314.898 181.370 C 302.717 189.828, 309.980 210.009, 325.200 209.996 C 335.804 209.987, 343.212 197.745, 338.423 188.146 C 334.260 179.801, 322.172 176.320, 314.898 181.370 M 387.629 233.704 C 386.982 234.351, 376.618 237.223, 363 240.528 C 353.450 242.847, 344.014 245.742, 338.500 248.048 C 337.400 248.508, 333.125 249.896, 329 251.133 C 317.872 254.471, 316.809 256.033, 326.080 255.427 C 338.702 254.603, 343.027 254.112, 346.322 253.131 C 348.070 252.610, 352.200 251.409, 355.500 250.460 C 358.800 249.512, 362.918 248.121, 364.651 247.368 C 366.384 246.616, 368.409 245.959, 369.151 245.908 C 371.486 245.750, 390.401 235.560, 390.793 234.250 C 391.189 232.924, 388.818 232.515, 387.629 233.704 M 210.543 255.931 C 209.860 257.036, 211.437 258.230, 212.361 257.306 C 213.311 256.355, 213.134 255, 212.059 255 C 211.541 255, 210.859 255.419, 210.543 255.931 M 384 255.995 C 381.271 257.593, 375.708 260, 374.747 260 C 374.228 260, 372.384 260.620, 370.651 261.378 C 367.769 262.639, 365.118 263.561, 354.976 266.830 C 349.978 268.441, 338.917 270.180, 306.972 274.378 C 300.632 275.211, 294.669 276.142, 293.722 276.446 C 292.775 276.751, 291.311 277.216, 290.470 277.480 C 289.139 277.898, 289.192 278.457, 290.883 281.770 C 293.060 286.037, 297.740 290.409, 309.500 299.159 C 313.900 302.433, 320.650 307.513, 324.500 310.448 C 332.315 316.406, 349.850 334.205, 357.500 343.947 C 366.021 354.798, 366.265 355.009, 372 356.524 C 380.945 358.886, 394 358.305, 394 355.544 C 394 354.871, 392.988 353.852, 391.750 353.279 C 390.512 352.707, 385.966 349.407, 381.647 345.947 C 374.010 339.829, 373.810 339.558, 374.365 336.078 C 374.724 333.832, 375.972 331.664, 377.718 330.255 C 380.559 327.963, 385 327.197, 385 329 C 385 329.550, 385.502 330, 386.115 330 C 386.728 330, 391.882 333.150, 397.569 337 C 409.057 344.778, 412.191 345.554, 415.952 341.551 C 419.060 338.243, 418.345 337.009, 409.548 330.503 C 405.396 327.433, 401.940 324.376, 401.866 323.711 C 401.066 316.504, 403.008 311.137, 407.231 308.876 C 408.878 307.995, 420.866 311.352, 426.421 314.251 C 428.829 315.507, 431 312.936, 431 308.828 C 431 306.635, 430.426 305.894, 428.317 305.365 C 426.841 304.994, 424.478 304.088, 423.067 303.352 C 421.655 302.615, 419.803 302.010, 418.950 302.006 C 418.098 302.003, 416.973 301.604, 416.450 301.121 C 415.928 300.637, 413.910 299.734, 411.966 299.115 C 407.201 297.595, 402 292.704, 402 289.743 C 402 288.428, 403.305 286.124, 404.934 284.563 C 407.790 281.827, 408.068 281.771, 415.433 282.462 C 425.486 283.404, 426.274 281.889, 419.387 274.857 C 414.408 269.775, 400.517 260.014, 398.250 260.005 C 397.563 260.002, 397 259.590, 397 259.088 C 397 258.586, 395.202 257.872, 393.005 257.501 C 390.808 257.130, 388.757 256.415, 388.446 255.913 C 387.755 254.794, 385.997 254.827, 384 255.995 M 231.366 265.919 C 224.755 269.950, 222.495 274.431, 222.541 283.424 C 222.575 290.344, 222.948 292.073, 225.144 295.500 C 226.554 297.700, 228.050 300.579, 228.468 301.898 C 229.529 305.244, 246.327 321.474, 250.807 323.481 C 252.838 324.391, 255.400 325.539, 256.500 326.033 C 264.173 329.477, 275.743 328.823, 281.234 324.635 C 291.580 316.744, 290.186 303.639, 276.736 282.368 C 268.724 269.695, 241.411 259.793, 231.366 265.919 M 238.042 278.845 C 228.181 288.226, 235.835 303.578, 256 314.865 C 257.375 315.634, 261.345 316.317, 264.822 316.382 C 271.018 316.498, 271.220 316.417, 275.072 312.289 C 278.473 308.643, 279 307.455, 279 303.440 C 279 289.320, 263.094 275.061, 247.292 275.015 C 242.609 275.002, 241.677 275.388, 238.042 278.845 M 370.450 282.407 C 364.225 285.118, 361.748 289.541, 362.180 297.174 C 362.522 303.229, 362.913 304.315, 365.842 307.337 C 377.398 319.260, 394.341 309.815, 391.505 293.029 C 389.894 283.493, 379.730 278.365, 370.450 282.407 M 320.455 287.455 C 317.277 290.632, 317.352 291.274, 321.250 294.213 C 334.009 303.832, 348 305.304, 348 297.028 C 348 289.003, 326.410 281.499, 320.455 287.455 M 302.197 321.750 C 297.716 329.252, 286.200 341.249, 280.319 344.541 C 275.544 347.215, 275.540 348.641, 280.294 353.903 L 284.087 358.103 290.490 353.008 C 300.577 344.982, 315 327.212, 315 322.812 C 315 321.169, 308.932 315, 307.316 315 C 306.718 315, 304.414 318.038, 302.197 321.750 M 242.012 334.486 C 241.388 335.237, 240.251 342.073, 239.485 349.676 C 238.095 363.465, 236.307 379.262, 235.601 384 C 235.395 385.375, 234.736 390.100, 234.136 394.500 C 232.390 407.293, 230.377 417.666, 226.423 434.246 C 224.660 441.641, 240.433 466.148, 250.416 471.525 C 255.590 474.311, 256.684 472.584, 253.518 466.629 C 248.847 457.845, 251.351 451, 259.237 451 C 262.234 451, 263.449 451.707, 266.422 455.180 C 268.390 457.479, 270 459.763, 270 460.255 C 270 461.391, 277.980 474.870, 279.041 475.525 C 279.476 475.794, 281.005 475.568, 282.439 475.023 C 285.022 474.041, 285.282 470.758, 283.034 467.500 C 281.166 464.792, 278.811 456.448, 278.749 452.317 C 278.688 448.290, 279.113 447.289, 281.966 444.739 C 287.579 439.724, 293.069 442.376, 300.621 453.750 C 302.538 456.637, 304.433 459, 304.831 459 C 306.022 459, 309 455.088, 309 453.524 C 309 451.317, 304.354 443.308, 298.543 435.500 C 289.840 423.805, 289.036 420.488, 293.589 415.077 C 297.381 410.571, 299.333 411.122, 304.751 418.231 C 312.032 427.784, 317.542 433.401, 318.844 432.597 C 321.331 431.059, 319.205 406.817, 316.174 402.159 C 315.337 400.872, 309.892 396.301, 304.076 392.002 C 292.678 383.578, 274.182 365.296, 259.055 347.500 C 247.592 334.015, 244.416 331.589, 242.012 334.486 M 315.753 354.434 L 300.005 370.613 303.460 373.961 L 306.914 377.309 312.707 372.937 C 320.212 367.272, 335 352.498, 335 350.665 C 335 349.884, 335.675 348.685, 336.500 348 C 339.438 345.561, 336.168 337.617, 332.436 338.128 C 331.921 338.199, 324.414 345.536, 315.753 354.434 M 208.872 343.414 C 206.467 345.273, 202.738 348.753, 200.584 351.147 C 192.661 359.954, 189.473 360.733, 181.611 355.781 C 171.947 349.696, 157.296 351.995, 144.317 361.636 C 142.566 362.936, 140.854 364, 140.513 364 C 137.052 364, 97 400.718, 97 403.891 C 97 404.390, 95.364 407.207, 93.365 410.150 C 89.175 416.318, 80.020 434.755, 80.008 437.050 C 80.004 437.903, 79.597 439.028, 79.105 439.550 C 78.208 440.503, 76.292 447.667, 75.307 453.750 C 74.979 455.780, 75.198 457, 75.891 457 C 76.501 457, 77 456.415, 77 455.700 C 77 453.328, 88.053 431.982, 93.240 424.337 C 103.943 408.562, 127.969 387.221, 132.250 389.686 C 135.225 391.399, 131.199 405.703, 125.547 413.500 C 124.351 415.150, 121.254 420.100, 118.664 424.500 C 116.074 428.900, 113.512 433.175, 112.971 434 C 112.430 434.825, 111.686 436.175, 111.317 437 C 110.948 437.825, 109.643 440.112, 108.416 442.082 C 105.092 447.424, 103.816 452.716, 105.681 453.431 C 108.277 454.427, 112.051 454.044, 112.389 452.750 C 114.563 444.415, 117.897 437.544, 126.871 422.906 C 136.480 407.235, 137.873 405.429, 141.389 404.097 C 145.197 402.653, 145.328 402.680, 147.639 405.367 C 150.057 408.177, 151.042 416.238, 149.113 417.430 C 148.626 417.731, 147.920 419.613, 147.545 421.612 C 147.170 423.611, 146.475 425.978, 146 426.873 C 145.525 427.768, 144.689 430.300, 144.141 432.500 C 143.594 434.700, 142.407 438.975, 141.503 442 C 137.549 455.244, 137.550 456, 141.533 456 C 144.002 456, 147 451.883, 147 448.493 C 147 447.610, 149.073 440.725, 151.607 433.193 C 158.409 412.974, 164.116 407.025, 170.545 413.455 C 173.447 416.356, 173.704 420.406, 171.560 429.436 C 170.391 434.359, 168.598 453.424, 168.921 457.500 C 168.964 458.050, 170.463 458.500, 172.250 458.500 C 175.393 458.500, 175.522 458.335, 176.178 453.500 C 176.551 450.750, 177.588 443.100, 178.484 436.500 C 180.565 421.160, 181.636 414.417, 183.565 404.500 C 184.421 400.100, 185.743 392.900, 186.504 388.500 C 189.677 370.143, 188.610 371.961, 201.926 362.207 C 208.569 357.341, 213.001 350.926, 214.304 344.289 C 215.196 339.746, 213.888 339.535, 208.872 343.414 M 154.500 366.959 C 149.356 369.101, 146.517 373.794, 146.601 380.015 C 146.847 398.127, 168.267 403.769, 176.002 387.760 C 179.532 380.454, 178.227 375.040, 171.516 369.148 C 167.774 365.863, 159.645 364.817, 154.500 366.959 M 250.223 367.557 C 246.723 370.008, 247.438 373.907, 253.134 383.438 C 258.757 392.847, 261.165 394.432, 265.507 391.587 C 270.034 388.621, 269.154 384.689, 261.292 372.750 C 256.531 365.522, 254.493 364.565, 250.223 367.557 M 344 371.753 C 341.525 374.861, 336.896 380.201, 333.712 383.619 C 327.674 390.104, 327.685 389.995, 332.864 392.745 C 336.847 394.859, 338.329 394.231, 344.826 387.675 L 351.095 381.351 350.797 374.005 C 350.634 369.965, 350.050 366.534, 349.500 366.381 C 348.950 366.227, 346.475 368.645, 344 371.753 M 220.365 370.683 C 219.994 372.159, 219.088 374.522, 218.352 375.933 C 217.615 377.345, 217.010 379.261, 217.006 380.191 C 217.003 381.121, 216.589 382.136, 216.087 382.446 C 215.585 382.757, 214.859 384.921, 214.474 387.255 C 214.089 389.590, 213.345 392.031, 212.822 392.681 C 212.298 393.331, 211.496 400.981, 211.039 409.681 C 210.582 418.381, 209.884 426.512, 209.488 427.750 C 208.360 431.269, 210.699 430.459, 212.374 426.750 C 213.181 424.962, 214.130 422.375, 214.483 421 C 214.837 419.625, 215.511 417.600, 215.982 416.500 C 219.496 408.295, 224.580 368, 222.101 368 C 221.516 368, 220.735 369.208, 220.365 370.683 M 255.913 408.280 C 241.593 417.930, 249.105 439.839, 265.971 437.614 C 273.321 436.644, 279 430.024, 279 422.426 C 279 409.109, 266.264 401.304, 255.913 408.280" stroke="#000000" fill="black" fill-rule="evenodd"/> </svg>