<svg xmlns="http://www.w3.org/2000/svg" viewBox="0 0 512 512" version="1.1" width="512" height="512"> <path stroke-linecap="round" stroke-linejoin="round" stroke-miterlimit="2" d="M 247.954 34.352 C 247.653 34.667, 243.603 35.365, 238.954 35.903 C 228.010 37.167, 218.750 38.988, 217.550 40.111 C 217.027 40.600, 215.784 41, 214.786 41 C 213.789 41, 212.191 41.397, 211.236 41.883 C 210.281 42.369, 208.375 43.238, 207 43.813 C 171.703 58.591, 146.406 82.600, 129.887 117 C 124.807 127.578, 123.167 131.355, 122.502 134 C 121.859 136.561, 120.451 140.155, 118.883 143.236 C 118.397 144.191, 118 145.885, 118 147 C 118 148.115, 117.568 149.809, 117.040 150.764 C 115.971 152.698, 114.087 160.505, 113.302 166.256 C 113.020 168.322, 112.386 170.261, 111.894 170.565 C 111.402 170.869, 111 172.599, 111 174.410 C 111 176.220, 110.562 179.006, 110.027 180.601 C 108.984 183.711, 107.567 195.158, 103.543 233 C 100.685 259.871, 99.287 270.809, 96.574 287.500 C 94.316 301.395, 93.928 303.351, 93 305.500 C 92.525 306.600, 91.913 308.850, 91.641 310.500 C 90.641 316.552, 88.894 323.545, 87.960 325.236 C 87.432 326.191, 87 327.852, 87 328.927 C 87 330.002, 86.609 331.124, 86.131 331.419 C 85.654 331.714, 84.970 333.785, 84.613 336.022 C 84.255 338.258, 83.573 340.855, 83.098 341.794 C 82.622 342.732, 81.678 344.850, 81 346.500 C 80.322 348.150, 79.369 350.281, 78.883 351.236 C 78.397 352.191, 78 353.473, 78 354.085 C 78 354.697, 77.279 356.841, 76.398 358.849 C 75.517 360.857, 74.438 363.400, 74 364.500 C 73.562 365.600, 72.453 368.300, 71.534 370.500 C 70.616 372.700, 69.491 375.400, 69.034 376.500 C 68.578 377.600, 67.496 380.116, 66.631 382.090 C 62.092 392.448, 60.284 403.324, 62.086 409.427 C 66.986 426.022, 81.791 432.121, 104.500 426.899 C 107.250 426.266, 114.266 425.553, 120.090 425.315 C 135.035 424.703, 140.103 426.989, 146.644 437.296 C 149.159 441.258, 152.631 446.006, 154.358 447.847 C 157.550 451.248, 169.157 460, 170.476 460 C 170.873 460, 172.841 460.721, 174.849 461.602 C 186.539 466.731, 190.796 467.500, 207.500 467.500 C 221.561 467.500, 231.849 466.215, 236.236 463.912 C 237.191 463.410, 238.885 463, 240 463 C 241.115 463, 242.809 462.582, 243.764 462.072 C 244.719 461.562, 247.975 460.416, 251 459.526 C 254.025 458.635, 257.175 457.627, 258 457.284 C 266.621 453.705, 284.097 452.045, 293 453.959 C 296.025 454.610, 299.967 455.385, 301.759 455.681 C 303.552 455.978, 305.266 456.621, 305.568 457.110 C 305.871 457.600, 307.190 458, 308.500 458 C 309.810 458, 311.134 458.408, 311.442 458.906 C 311.750 459.405, 314.251 460.122, 317 460.500 C 319.749 460.878, 322.250 461.595, 322.558 462.094 C 322.866 462.592, 324.467 463, 326.116 463 C 327.765 463, 331.138 463.510, 333.611 464.132 C 343.263 466.563, 365.298 460.468, 370.658 453.886 C 373.018 450.989, 376 444.857, 376 442.904 C 376 437.739, 377.428 437, 387.413 437 C 422.646 437, 442.979 418.265, 436.432 391.831 C 435.570 388.349, 433.811 383.250, 432.523 380.500 C 427.128 368.980, 423.218 360.283, 421.958 357 C 421.218 355.075, 419.893 352.150, 419.013 350.500 C 418.133 348.850, 416.532 344.688, 415.457 341.250 C 414.381 337.813, 413.163 335, 412.750 335 C 412.338 335, 412 334.094, 412 332.986 C 412 331.879, 411.582 330.191, 411.072 329.236 C 410.562 328.281, 409.419 325.025, 408.534 322 C 407.648 318.975, 406.529 315.600, 406.048 314.500 C 405.567 313.400, 404.410 309.125, 403.478 305 C 402.545 300.875, 401.381 296.719, 400.891 295.764 C 400.401 294.809, 400 292.890, 400 291.500 C 400 290.110, 399.576 288.191, 399.057 287.236 C 398.539 286.281, 397.600 281.675, 396.971 277 C 396.341 272.325, 395.401 265.575, 394.882 262 C 393.793 254.512, 392.810 245.347, 390.540 221.500 C 389.649 212.150, 388.520 201.575, 388.031 198 C 387.541 194.425, 386.678 188.125, 386.114 184 C 385.549 179.875, 384.364 172.225, 383.480 167 C 382.597 161.775, 381.629 155.810, 381.331 153.744 C 381.033 151.678, 380.386 149.739, 379.894 149.435 C 379.402 149.131, 379 147.835, 379 146.556 C 379 144.043, 376.384 134.588, 374.908 131.764 C 374.408 130.809, 374 129.148, 374 128.073 C 374 126.998, 373.600 125.871, 373.111 125.568 C 372.622 125.266, 371.933 123.777, 371.579 122.259 C 371.226 120.742, 370.092 117.700, 369.058 115.500 C 368.025 113.300, 365.736 108.432, 363.973 104.683 C 353.567 82.552, 332.290 59.978, 312 49.540 C 302.410 44.607, 298.897 43, 297.705 43 C 296.987 43, 295.972 42.628, 295.450 42.174 C 291.817 39.015, 250.060 32.138, 247.954 34.352 M 241.807 53.527 C 241.435 53.898, 238.514 54.573, 235.315 55.027 C 227.825 56.088, 220.168 57.829, 217 59.192 C 215.625 59.784, 213.600 60.611, 212.500 61.031 C 189.703 69.733, 163.650 92.484, 151.753 114.079 C 150.366 116.597, 148.752 119.522, 148.166 120.579 C 145.535 125.327, 141 135.931, 141 137.334 C 141 138.185, 140.550 139.160, 140 139.500 C 139.450 139.840, 139 141.216, 139 142.559 C 139 143.902, 138.601 145, 138.113 145 C 137.626 145, 136.969 146.238, 136.654 147.750 C 135.679 152.434, 133.376 161.424, 132.747 163 C 132.418 163.825, 131.873 166.075, 131.536 168 C 131.200 169.925, 130.518 173.525, 130.022 176 C 127.647 187.853, 124.947 206.718, 122.508 228.500 C 120.409 247.249, 119.235 255.782, 115.493 279.500 C 114.626 285, 113.682 291.075, 113.396 293 C 113.110 294.925, 112.485 297.400, 112.006 298.500 C 111.528 299.600, 110.904 301.850, 110.619 303.500 C 108.975 313.045, 107.672 318.613, 106.889 319.450 C 106.400 319.972, 106 321.441, 106 322.714 C 106 323.986, 105.613 325.809, 105.141 326.764 C 103.756 329.564, 101 338.628, 101 340.384 C 101 341.273, 100.550 342, 100 342 C 99.450 342, 99 343.098, 99 344.441 C 99 345.784, 98.608 347.124, 98.129 347.420 C 97.650 347.716, 96.993 349.285, 96.669 350.906 C 96.345 352.527, 95.223 355.798, 94.177 358.176 C 93.130 360.554, 91.487 364.525, 90.525 367 C 89.564 369.475, 87.927 373.230, 86.889 375.345 C 85.850 377.459, 85 379.641, 85 380.193 C 85 381.098, 83.449 384.960, 80.857 390.510 C 80.341 391.616, 79.841 395.317, 79.746 398.733 C 79.430 410.128, 85.391 413.047, 102.500 409.877 C 105.800 409.265, 115.700 408.480, 124.500 408.132 L 140.500 407.500 141.175 393.500 C 141.546 385.800, 142.130 377.700, 142.473 375.500 C 142.816 373.300, 143.539 368.125, 144.079 364 C 151.333 308.634, 156.090 287, 161.012 287 C 164.033 287, 165.310 290.569, 164.551 296.893 C 164.180 299.977, 163.512 307.675, 163.066 314 C 162.619 320.325, 161.415 337.425, 160.389 352 C 158.232 382.649, 157.967 415.326, 159.823 421.865 C 165.421 441.589, 192.039 453.136, 221.500 448.619 C 237.577 446.155, 238.963 445.868, 239.568 444.890 C 239.871 444.400, 241.190 444, 242.500 444 C 243.810 444, 245.128 443.602, 245.429 443.115 C 245.729 442.629, 247.995 441.928, 250.464 441.558 C 252.933 441.187, 255.215 440.460, 255.536 439.942 C 255.856 439.424, 257.190 439, 258.500 439 C 259.810 439, 261.160 438.550, 261.500 438 C 261.840 437.450, 263.351 437, 264.859 437 C 269.701 437, 269.782 436.514, 269.233 410.665 C 268.769 388.789, 268.881 386.344, 270.410 385.075 C 274.532 381.653, 276.918 388.510, 281.516 417 C 283.701 430.538, 284.156 432.400, 285.716 434.183 C 286.525 435.108, 287.822 435.622, 288.597 435.325 C 290.274 434.681, 303.088 436.981, 304.450 438.171 C 304.972 438.627, 306.408 439, 307.641 439 C 308.874 439, 310.123 439.391, 310.419 439.868 C 310.714 440.346, 313.316 441.050, 316.203 441.432 C 319.089 441.815, 321.911 442.493, 322.475 442.939 C 324.193 444.297, 330.027 445.203, 340.086 445.676 C 351.004 446.188, 356.210 444.283, 357.456 439.318 C 358.246 436.171, 357.116 426.190, 355.883 425.428 C 355.397 425.128, 355 423.360, 355 421.500 C 355 419.640, 354.613 417.879, 354.140 417.586 C 353.666 417.294, 352.988 414.926, 352.631 412.324 C 352.019 407.861, 350.724 403.025, 348.930 398.500 C 348.493 397.400, 347.901 395.150, 347.614 393.500 C 346.545 387.365, 344.732 379.438, 343.954 377.500 C 343.512 376.400, 342.869 374.150, 342.524 372.500 C 340.714 363.837, 338.984 356.015, 337.990 352 C 333.479 333.793, 331.337 304.505, 334.003 297.492 C 335.517 293.509, 338.235 294.670, 339.897 300.011 C 340.665 302.480, 341.647 305.400, 342.079 306.500 C 342.510 307.600, 343.096 309.850, 343.381 311.500 C 345.045 321.159, 346.228 326.736, 346.988 328.500 C 347.821 330.434, 348.501 333.206, 349.686 339.500 C 349.997 341.150, 350.583 342.950, 350.989 343.500 C 351.395 344.050, 352.031 346.525, 352.403 349 C 353.127 353.824, 354.700 359.421, 356.123 362.236 C 356.605 363.191, 357 364.682, 357 365.549 C 357 366.415, 357.702 369.459, 358.560 372.312 C 359.418 375.165, 360.587 379.300, 361.157 381.500 C 361.728 383.700, 362.601 386.281, 363.097 387.236 C 363.594 388.191, 364 389.602, 364 390.372 C 364 392.891, 367.767 404.573, 370.048 409.127 C 370.496 410.022, 371.166 412.368, 371.536 414.341 C 372.493 419.441, 373.963 420.285, 380.716 419.614 C 383.897 419.298, 391.533 418.657, 397.684 418.189 C 414.119 416.939, 419.742 411.886, 418.705 399.298 C 418.138 392.427, 416.005 384, 414.832 384 C 414.374 384, 414 383.367, 414 382.592 C 414 381.818, 412.927 379.006, 411.615 376.342 C 409.216 371.471, 404.538 361.219, 403.017 357.500 C 402.567 356.400, 401.276 353.412, 400.146 350.860 C 399.017 348.309, 397.798 345.042, 397.436 343.601 C 397.074 342.160, 396.378 340.734, 395.889 340.432 C 395.400 340.129, 395 338.784, 395 337.441 C 395 336.098, 394.662 335, 394.250 335 C 393.837 335, 392.667 332.188, 391.649 328.750 C 390.632 325.313, 389.394 321.719, 388.899 320.764 C 388.405 319.809, 388 318.148, 388 317.073 C 388 315.998, 387.602 314.872, 387.115 314.571 C 386.629 314.271, 385.958 312.556, 385.625 310.762 C 385.292 308.968, 384.808 306.600, 384.548 305.500 C 384.289 304.400, 383.801 302.150, 383.463 300.500 C 383.126 298.850, 382.464 296.600, 381.993 295.500 C 381.522 294.400, 380.857 291.925, 380.517 290 C 380.176 288.075, 379.239 282.900, 378.435 278.500 C 376.270 266.653, 374.891 253.639, 372.131 219 C 371.496 211.025, 370.717 203.375, 370.401 202 C 370.085 200.625, 369.436 196.575, 368.959 193 C 368.062 186.290, 367.280 181.575, 364.647 167 C 362.706 156.259, 361.988 152.880, 361.246 151 C 360.620 149.413, 358.308 140.374, 357.346 135.750 C 357.031 134.238, 356.374 133, 355.887 133 C 355.399 133, 355 131.902, 355 130.559 C 355 129.216, 354.585 127.861, 354.077 127.548 C 353.569 127.234, 352.858 125.629, 352.496 123.982 C 352.134 122.334, 349.929 117.276, 347.596 112.741 C 335.618 89.461, 319.146 73.018, 298.011 63.246 C 286.693 58.013, 284.060 57.143, 272.500 54.821 C 266.370 53.590, 242.740 52.593, 241.807 53.527 M 181 131.163 C 169.296 137.922, 163.656 150.714, 163.658 170.500 C 163.659 181.806, 164.152 185.195, 166.591 190.651 C 167.366 192.384, 168 194.115, 168 194.497 C 168 196.113, 172.557 201.391, 176.281 204.089 C 191.008 214.756, 210.746 194.905, 212.663 167.500 C 212.970 163.100, 212.743 157.250, 212.157 154.500 C 210.232 145.468, 209.710 143.506, 209.091 143 C 208.756 142.725, 207.585 140.766, 206.490 138.646 C 201.908 129.775, 189.640 126.174, 181 131.163 M 264.715 137.560 C 260.110 140.938, 253 150.462, 253 153.252 C 253 153.993, 252.586 155.027, 252.081 155.550 C 251.575 156.072, 250.414 161.623, 249.501 167.884 C 246.298 189.855, 252.047 207.271, 264.519 213.378 C 276.471 219.230, 288.602 213.558, 295.244 199.011 C 296.879 195.430, 298.731 191.419, 299.359 190.099 C 300.891 186.875, 300.884 160.104, 299.350 156.901 C 298.717 155.581, 297.265 152.391, 296.124 149.812 C 289.658 135.210, 275.466 129.673, 264.715 137.560" stroke="#000000" fill="black" fill-rule="evenodd"/> </svg>