<svg xmlns="http://www.w3.org/2000/svg" viewBox="0 0 512 512" version="1.1" width="512" height="512"> <path stroke-linecap="round" stroke-linejoin="round" stroke-miterlimit="2" d="M 249.494 27.750 C 247.165 32.786, 240.616 45.811, 226.238 74 L 214.251 97.500 213.791 186.500 C 213.277 285.904, 212.717 277.266, 220.456 289.364 C 227.913 301.021, 228.113 304.281, 221.856 312.181 L 218.589 316.306 197.325 315.666 C 185.082 315.298, 175.035 315.416, 173.643 315.945 C 170.623 317.094, 156.986 331.092, 155.101 334.980 C 153.039 339.230, 154.881 342.683, 163.662 351.024 C 174.984 361.778, 175.008 361.780, 186 353.031 C 189.184 350.496, 204.643 348.557, 210.054 350.015 C 213.768 351.015, 225.888 362.452, 226.108 365.163 C 226.168 365.899, 226.302 380, 226.407 396.500 C 226.605 427.811, 227.789 438.900, 231.768 446.699 C 233.371 449.841, 233.351 449.936, 230.667 452.048 C 227.133 454.827, 223 463.014, 223 467.235 C 223 470.407, 227.153 478, 228.888 478 C 229.337 478, 230.172 480.823, 230.744 484.273 C 233.106 498.530, 237.770 503.028, 250.981 503.793 C 263.888 504.540, 271.858 498.992, 273.609 488.044 C 273.966 485.811, 275.663 481.878, 277.379 479.303 C 279.096 476.728, 281.255 473.469, 282.177 472.061 C 285.844 466.461, 283.455 457.692, 276.573 451.497 L 273.237 448.493 274.705 441.997 C 276.109 435.779, 276.634 432.517, 279.137 414.484 C 280.451 405.014, 280.817 378.903, 279.749 370.819 L 278.999 365.138 286.992 357.069 L 294.985 349 302.743 349.073 C 316.536 349.203, 320.199 350.125, 325.515 354.805 C 332.585 361.028, 334.219 360.672, 343.399 350.914 C 354.854 338.737, 354.792 336.832, 342.533 324.165 L 334.147 315.500 311.323 315.843 C 285.372 316.234, 284.751 316.065, 280.896 307.579 C 278.313 301.890, 278.453 301.081, 283.274 293.882 C 285.625 290.372, 288.550 285.574, 289.774 283.219 L 292 278.938 291.994 188.219 C 291.988 106.228, 291.831 97.211, 290.356 94.500 C 288.655 91.372, 263.443 40.851, 259.665 33 C 255.076 23.463, 252.170 21.963, 249.494 27.750 M 241.135 72.140 C 229.457 95.453, 229.072 96.422, 230.754 98.285 C 234.755 102.717, 251.866 116.997, 253.130 116.959 C 253.884 116.937, 256.075 115.540, 258 113.854 C 259.925 112.169, 264.988 107.872, 269.250 104.305 C 273.512 100.739, 277 97.126, 277 96.278 C 277 95.086, 254.731 49.473, 253.534 48.215 C 253.385 48.058, 247.806 58.825, 241.135 72.140 M 225.695 110.704 C 224.816 112.163, 225.482 258.504, 226.367 258.321 C 226.845 258.223, 228.055 256.873, 229.057 255.321 C 230.059 253.770, 234.946 248, 239.917 242.500 L 248.955 232.500 248.728 181.628 L 248.500 130.756 237.338 120.332 C 231.198 114.598, 225.959 110.266, 225.695 110.704 M 268.500 121.218 C 263.550 125.687, 259.176 129.877, 258.781 130.528 C 257.617 132.445, 257.342 219.001, 258.500 218.997 C 259.405 218.994, 271.050 206.158, 275.734 200 C 279.592 194.929, 280.126 188.378, 279.805 150.083 C 279.611 126.928, 279.136 113.561, 278.500 113.379 C 277.950 113.220, 273.450 116.748, 268.500 121.218 M 272.813 220.184 C 269.341 224.135, 264.508 229.554, 262.074 232.226 L 257.647 237.085 257.865 263.292 C 258.074 288.422, 258.169 289.572, 260.153 291.250 C 265.161 295.486, 272.166 291.775, 277.055 282.296 C 277.848 280.758, 278.948 279.179, 279.498 278.787 C 280.850 277.826, 281.446 213, 280.103 213 C 279.566 213, 276.286 216.233, 272.813 220.184 M 240.415 258.201 C 236.612 262.711, 231.806 268.281, 229.735 270.579 C 226.194 274.508, 225.647 277.125, 227.975 279 C 228.317 279.275, 229.769 281.525, 231.203 284 C 235.259 291.002, 238.091 293.191, 242.613 292.817 C 248.503 292.331, 248.968 290.572, 248.985 268.750 C 248.993 258.438, 248.624 250, 248.165 250 C 247.706 250, 244.219 253.690, 240.415 258.201 M 224.515 342.976 C 224.183 343.512, 226.315 346.432, 229.251 349.464 L 234.591 354.977 252.542 354.824 L 270.493 354.671 276.247 349.183 C 279.411 346.165, 282 343.314, 282 342.848 C 282 341.635, 225.265 341.762, 224.515 342.976 M 252.264 380.854 C 238.398 385.721, 236.359 386.886, 237.319 389.389 C 237.817 390.687, 238.987 390.482, 245.202 388.011 C 249.216 386.415, 255.200 384.085, 258.500 382.833 C 265.854 380.043, 269.159 378.066, 268.432 376.891 C 267.614 375.566, 266.665 375.799, 252.264 380.854 M 263.007 404.960 C 262.186 405.487, 256.561 407.523, 250.507 409.485 C 237.556 413.681, 236.051 414.451, 237.658 416.058 C 238.872 417.272, 247.250 415.378, 253.651 412.444 C 255.384 411.650, 257.240 411, 257.774 411 C 260.120 411, 268.081 406.742, 267.726 405.677 C 267.208 404.121, 264.869 403.766, 263.007 404.960 M 382.895 453.750 C 379.920 456.913, 372.539 465.547, 366.493 472.937 C 356.429 485.238, 343.174 500.616, 335.624 508.750 L 332.608 512 343.054 511.999 L 353.500 511.997 363 499.819 C 374.823 484.662, 385.850 472, 387.226 472 C 388.374 472, 387.686 505.742, 386.457 509.750 L 385.767 512 399.500 512 L 413.233 512 412.693 509.750 C 412.396 508.512, 411.257 503.675, 410.163 499 C 401.055 460.087, 396.419 448, 390.601 448 C 389.099 448, 386.433 449.989, 382.895 453.750 M 239.014 460.601 C 232.844 467.295, 233.916 467.928, 252.449 468.531 C 262.656 468.863, 267.703 468.661, 268.639 467.884 C 271.785 465.274, 269.270 460.192, 263.316 457.125 C 262.114 456.506, 257.109 456, 252.193 456 L 243.255 456 239.014 460.601" stroke="#000000" fill="black" fill-rule="evenodd"/> </svg>