<svg xmlns="http://www.w3.org/2000/svg" viewBox="0 0 512 512" version="1.1" width="512" height="512"> <path stroke-linecap="round" stroke-linejoin="round" stroke-miterlimit="2" d="M 167.799 64.534 C 167.505 64.828, 164.594 65.499, 161.330 66.024 C 151.181 67.659, 143.635 72.107, 132.500 83.018 C 127 88.408, 120.475 93.794, 118 94.989 C 115.525 96.184, 112.719 97.575, 111.764 98.080 C 110.809 98.586, 109.546 99, 108.959 99 C 108.371 99, 105.777 99.925, 103.195 101.055 C 100.613 102.185, 97.600 103.495, 96.500 103.967 C 82.824 109.835, 72.222 116.640, 63.250 125.310 C 59.038 129.380, 57.792 133.136, 60.168 134.604 C 60.811 135.001, 75.099 135.367, 91.918 135.417 C 121.459 135.505, 122.640 135.583, 126.623 137.716 C 137.563 143.575, 144.339 156.756, 142.091 167.806 C 140.660 174.835, 140.085 193.435, 141.049 201.500 C 142.141 210.633, 144.130 220.389, 145.117 221.450 C 145.602 221.973, 146.003 223.323, 146.006 224.450 C 146.010 225.578, 146.685 227.789, 147.506 229.364 C 148.328 230.940, 149 232.692, 149 233.259 C 149 235.268, 156.361 249.628, 162.030 258.678 C 172.571 275.508, 190.379 294.080, 207.500 306.103 C 210.800 308.420, 216.200 312.206, 219.500 314.516 C 222.800 316.827, 226.453 319.017, 227.618 319.384 C 231.786 320.697, 232.777 322.894, 235.672 337.246 C 236.146 339.596, 235.291 340.965, 229.742 346.746 C 222.237 354.563, 219.050 358.317, 213.243 366.175 L 209.049 371.849 201.634 371.289 C 191.617 370.531, 189.599 371.221, 183.316 377.554 C 180.345 380.549, 177.462 383, 176.909 383 C 175.080 383, 171 377.748, 171 375.393 C 171 372.764, 167.613 369.192, 164.342 368.371 C 161.401 367.633, 158.609 368.617, 154.980 371.670 C 151.171 374.875, 148.582 374.179, 149.459 370.187 C 149.799 368.639, 150.155 362.878, 150.250 357.386 C 150.420 347.602, 150.343 347.239, 146.462 339.463 C 137.340 321.189, 120.563 310.982, 99.701 311.012 C 85.506 311.032, 74.596 315.298, 66.980 323.805 C 60.500 331.043, 60.243 331.407, 57.886 336.691 C 56.705 339.336, 55.264 342.400, 54.682 343.500 C 54.099 344.600, 53.495 349.537, 53.338 354.471 L 53.052 363.441 48.024 365.081 C 36.651 368.788, 25.167 380.262, 23.400 389.683 C 22.437 394.812, 23.607 404.932, 25.632 409 C 28.375 414.509, 38.043 423.634, 42.046 424.491 C 43.946 424.898, 45.950 425.586, 46.500 426.020 C 47.050 426.453, 48.625 426.964, 50 427.154 C 52.377 427.483, 52.508 427.845, 52.666 434.500 C 53.032 449.966, 55.530 456.037, 65.873 466.603 C 71.569 472.423, 82.317 479, 86.129 479 C 86.938 479, 88.162 479.562, 88.850 480.250 C 90.426 481.827, 110.634 481.971, 114.096 480.429 C 141.283 468.321, 149.777 455.098, 148.821 426.369 C 148.594 419.555, 148.806 414, 149.294 414 C 149.780 414, 152.146 416.025, 154.552 418.500 C 160.941 425.073, 167.310 424.103, 171.546 415.912 C 173.629 411.882, 180.864 411.618, 183.394 415.479 C 187.430 421.639, 195.363 421.673, 199.377 415.548 C 202.089 411.408, 206.872 412.012, 210.880 417 C 214.889 421.989, 215.997 421.989, 220.268 417 L 223.692 413 235.464 413 C 247.167 413, 247.256 413.018, 250.717 416.057 C 255.063 419.872, 258.886 419.756, 260.797 415.750 C 262.481 412.220, 265.991 412.128, 270.411 415.500 C 274.494 418.614, 275.332 418.612, 279.448 415.472 C 282.685 413.003, 283.099 412.950, 297.131 413.222 L 311.500 413.500 311.500 419.916 L 311.500 426.332 303.600 426.594 C 291.481 426.997, 291.576 426.824, 291.173 449.340 C 290.775 471.596, 290.096 470.479, 303.417 469.481 C 315.305 468.589, 315.809 468.116, 316.204 457.472 L 316.500 449.500 322.500 449.500 L 328.500 449.500 328.500 458.648 C 328.500 463.680, 328.845 468.149, 329.266 468.581 C 330.487 469.831, 351.328 469.032, 352.709 467.682 C 354.682 465.752, 355.716 429.839, 353.843 428.285 C 353.024 427.605, 348.510 426.957, 343.448 426.792 L 334.500 426.500 334.500 420 L 334.500 413.500 345.150 413 C 357.284 412.430, 359.277 411.398, 361.065 404.758 C 362.348 399.993, 361.536 398.512, 353.428 390.842 C 343.556 381.502, 345.544 382.014, 319.094 382.007 L 295.689 382 292.344 379.449 C 287.023 375.390, 287.692 372.729, 296.111 364.473 C 304.863 355.891, 309 350.414, 309 347.409 C 309 342.485, 311.332 343.258, 325.978 353.039 C 330.887 356.318, 335.170 359, 335.494 359 C 335.819 359, 336.628 359.451, 337.292 360.001 C 337.956 360.552, 341.425 363.104, 345 365.672 C 348.575 368.241, 354.650 373.159, 358.500 376.602 C 365.730 383.067, 394.149 407.419, 410.941 421.536 C 435.778 442.417, 448.018 449.131, 467.420 452.514 C 481.713 455.007, 486.765 450.805, 484.044 438.689 C 483.450 436.042, 482.540 433.342, 482.023 432.689 C 481.505 432.035, 472.851 422.308, 462.791 411.074 C 452.731 399.839, 442.524 388.364, 440.110 385.574 C 437.695 382.783, 427.870 372.082, 418.277 361.793 C 400.264 342.475, 399.784 342.096, 385.500 335.967 C 384.400 335.495, 381.387 334.185, 378.805 333.055 C 376.223 331.925, 373.891 331, 373.625 331 C 373.358 331, 370.071 329.614, 366.320 327.919 C 362.569 326.224, 357.925 324.169, 356 323.351 C 354.075 322.534, 351.600 321.470, 350.500 320.987 C 349.400 320.504, 346.250 319.160, 343.500 318 C 340.750 316.840, 337.600 315.494, 336.500 315.010 C 329.631 311.985, 324.629 310, 323.876 310 C 323.397 310, 319.967 308.606, 316.253 306.902 C 305.891 302.149, 303.244 301, 302.659 301 C 300.589 301, 258.156 279.984, 248.500 274.176 C 238.219 267.992, 238.201 267.981, 230.028 261.886 C 219.116 253.748, 202.286 235.472, 197.427 226.485 C 189.177 211.225, 187.689 206.899, 186.315 194.170 C 185.294 184.722, 190.113 167.467, 194.590 164.533 C 197.719 162.483, 198.422 164.086, 196.419 168.706 C 194.429 173.294, 194.004 195.404, 195.869 197.269 C 196.491 197.891, 197.015 199.323, 197.034 200.450 C 197.053 201.578, 197.937 204.300, 199 206.500 C 200.063 208.700, 200.947 210.803, 200.966 211.174 C 201.099 213.817, 212.831 230.896, 218.864 237.230 C 237.537 256.833, 261.919 271.212, 324.500 299.525 C 327.800 301.018, 333.875 303.813, 338 305.737 C 342.125 307.661, 347.975 310.332, 351 311.672 C 354.025 313.013, 358.750 315.176, 361.500 316.478 C 364.250 317.781, 369.087 320.006, 372.250 321.423 C 390.048 329.399, 402.557 335.136, 420.172 343.400 C 428.867 347.480, 430.997 347.766, 433.345 345.171 C 435.137 343.192, 435.633 337, 434 337 C 433.450 337, 433 336.371, 433 335.603 C 433 334.401, 424.661 322.235, 418.091 313.850 C 413.190 307.597, 399.884 288.591, 392.641 277.500 C 353.618 217.740, 344.463 204.467, 330.797 187.838 C 303.178 154.231, 288.753 141.606, 261.204 126.929 C 255.244 123.754, 254.162 122.699, 251.457 117.429 C 232.611 80.710, 209.685 64, 178.152 64 C 172.752 64, 168.093 64.240, 167.799 64.534 M 163.418 93.969 C 160.540 95.133, 156 100.738, 156 103.126 C 156 111.703, 166.802 115.881, 171.974 109.306 C 177.671 102.063, 171.363 90.755, 163.418 93.969 M 94 331.610 C 74.370 339.094, 66.243 356.096, 75.430 370.459 C 77.317 373.408, 79.792 376.117, 80.930 376.478 C 82.069 376.839, 83 377.554, 83 378.067 C 83 378.580, 84.280 379, 85.845 379 C 88.836 379, 90.902 377.179, 92.684 372.973 C 96.972 362.848, 108.172 359.901, 114.904 367.127 C 117.342 369.744, 117.753 376.104, 115.622 378.235 C 113.485 380.372, 112.751 385.278, 114.260 387.341 C 117.598 391.906, 127.244 383.731, 130.410 373.655 C 135.616 357.084, 128.369 339.710, 113.721 333.643 C 109.743 331.995, 96.555 330.635, 94 331.610 M 261.724 334.682 C 261.460 335.132, 260.503 338.085, 259.596 341.244 C 258.417 345.352, 257.172 347.483, 255.224 348.724 C 234.609 361.865, 220.306 376.734, 224.371 380.800 C 225.664 382.092, 226.547 382.153, 229.823 381.171 C 231.973 380.527, 236.438 380, 239.746 380 C 245.640 380, 245.830 379.913, 249.367 375.597 C 253.022 371.137, 257.648 369.033, 267.090 367.538 C 270.943 366.928, 272.920 365.145, 277.823 357.858 C 281.371 352.587, 285.424 342.494, 284.557 341.092 C 283.843 339.936, 277.298 337.633, 270 335.969 C 266.975 335.279, 263.983 334.524, 263.351 334.289 C 262.719 334.055, 261.987 334.232, 261.724 334.682 M 51.270 385.435 C 43.227 389.050, 41.981 398.324, 48.625 405.128 C 53.888 410.518, 57.252 410.407, 63.631 404.633 C 67.915 400.753, 68.455 399.802, 68.455 396.126 C 68.455 387.977, 58.874 382.017, 51.270 385.435 M 113.331 403.273 C 112.436 404.722, 112.723 409.675, 114.114 416.762 C 115.959 426.164, 113.022 431, 105.466 431 C 101.499 431, 95 425.784, 95 422.600 C 95 421.720, 94.550 421, 94 421 C 93.450 421, 93 420.395, 93 419.656 C 93 416.339, 88.426 412.851, 84.509 413.180 C 75.695 413.921, 69.554 430.094, 73.420 442.385 C 77.515 455.403, 91.674 463.229, 107.296 461.109 C 124.955 458.712, 134.700 439.191, 128.939 417.750 C 128.237 415.137, 127.289 413, 126.832 413 C 126.374 413, 126 412.403, 126 411.674 C 126 408.616, 114.672 401.104, 113.331 403.273" stroke="#000000" fill="black" fill-rule="evenodd"/> </svg>