<svg xmlns="http://www.w3.org/2000/svg" viewBox="0 0 512 512" version="1.1" width="512" height="512"> <path stroke-linecap="round" stroke-linejoin="round" stroke-miterlimit="2" d="M 246 35 C 245.175 35.533, 243.737 35.976, 242.804 35.985 C 241.025 36.001, 230.057 42.097, 227.807 44.320 C 227.088 45.031, 224.475 46.711, 222 48.056 C 219.525 49.400, 217.350 50.837, 217.167 51.250 C 216.983 51.663, 215.997 52, 214.976 52 C 213.954 52, 212.840 52.450, 212.500 53 C 212.160 53.550, 210.649 54, 209.141 54 C 207.633 54, 205.972 54.424, 205.450 54.943 C 204.927 55.461, 198.875 56.096, 192 56.352 C 178.175 56.868, 171.273 57.749, 170.435 59.106 C 170.131 59.598, 168.784 60, 167.441 60 C 166.098 60, 165 60.450, 165 61 C 165 61.550, 164.300 62, 163.445 62 C 161.323 62, 150.465 69.354, 145.160 74.385 C 138.257 80.931, 129 95.662, 129 100.102 C 129 101.146, 128.550 102, 128 102 C 127.450 102, 127 102.948, 127 104.106 C 127 108.020, 121.931 110.803, 111.500 112.615 C 104.665 113.803, 95.174 118.733, 89.705 123.937 C 80.856 132.358, 79.090 138.007, 77.958 161.500 C 77.111 179.074, 76.466 185.068, 75.052 188.500 C 74.599 189.600, 73.648 192.525, 72.940 195 C 72.232 197.475, 71.280 199.928, 70.826 200.450 C 70.372 200.972, 70 202.216, 70 203.214 C 70 204.967, 69.623 205.964, 67.156 210.736 C 66.520 211.966, 66 213.852, 66 214.927 C 66 216.002, 65.550 217.160, 65 217.500 C 64.450 217.840, 64 219.415, 64 221 C 64 222.585, 63.598 224.131, 63.106 224.435 C 60.082 226.304, 60.106 254, 63.132 254 C 63.609 254, 64 254.632, 64 255.405 C 64 260.291, 72.151 269.646, 85.429 280 C 88.603 282.475, 92.535 285.578, 94.168 286.896 C 97.615 289.679, 107 303.209, 107 305.396 C 107 306.213, 107.400 307.129, 107.890 307.432 C 108.379 307.734, 108.969 309.609, 109.201 311.599 C 109.607 315.071, 109.077 315.784, 95.994 329.358 C 88.498 337.136, 80.146 345.949, 77.433 348.943 C 74.720 351.936, 68.951 358.011, 64.613 362.443 C 53.010 374.297, 52 375.835, 52 381.657 C 52 389.410, 54.871 391.505, 67 392.607 C 81.133 393.890, 123.192 393.609, 132.500 392.169 C 136.900 391.488, 142.300 390.676, 144.500 390.363 C 146.700 390.051, 148.927 389.391, 149.450 388.898 C 149.972 388.404, 151.633 388, 153.141 388 C 154.649 388, 156.160 387.550, 156.500 387 C 156.840 386.450, 158.190 386, 159.500 386 C 160.810 386, 162.160 385.550, 162.500 385 C 162.840 384.450, 163.991 384, 165.059 384 C 166.127 384, 167 383.550, 167 383 C 167 382.450, 167.661 382, 168.470 382 C 169.278 382, 171.528 381.100, 173.470 380 C 175.411 378.900, 178.688 377.054, 180.750 375.899 C 182.813 374.743, 185.210 373.168, 186.079 372.399 C 189.197 369.636, 191.020 371.064, 189.097 374.764 C 188.601 375.719, 187.649 378.525, 186.981 381 C 185.593 386.149, 184.164 390.608, 182.977 393.500 C 181.190 397.850, 178.765 404.952, 178.810 405.705 C 178.836 406.142, 178.247 407.175, 177.500 408 C 176.753 408.825, 176.094 409.950, 176.034 410.500 C 175.883 411.898, 168.741 426.390, 167.903 427 C 167.525 427.275, 164.863 432.225, 161.987 438 C 159.111 443.775, 156.363 449.281, 155.879 450.236 C 152.412 457.084, 158.431 467, 166.053 467 C 168.603 467, 176.974 457.367, 180.883 449.933 C 190.530 431.589, 194 424.553, 194 423.340 C 194 422.603, 194.450 422, 195 422 C 195.550 422, 196 421.368, 196 420.595 C 196 419.821, 196.847 417.459, 197.882 415.345 C 200.279 410.448, 204.032 402.094, 205 399.500 C 205.883 397.136, 209.837 388.244, 211.109 385.764 C 211.599 384.809, 212 383.340, 212 382.500 C 212 381.019, 212.416 379.960, 214.844 375.264 C 215.480 374.034, 216 372.346, 216 371.514 C 216 370.681, 216.420 370, 216.934 370 C 217.447 370, 218.010 368.766, 218.184 367.259 C 218.692 362.856, 222 362.950, 222 367.368 C 222 369.301, 222.450 371.160, 223 371.500 C 223.550 371.840, 224 373.415, 224 375 C 224 376.585, 224.450 378.160, 225 378.500 C 225.550 378.840, 226 380.216, 226 381.559 C 226 382.902, 226.450 384, 227 384 C 227.550 384, 228 385.098, 228 386.441 C 228 387.784, 228.450 389.160, 229 389.500 C 229.550 389.840, 230 390.991, 230 392.059 C 230 393.127, 230.450 394, 231 394 C 231.550 394, 232 394.502, 232 395.116 C 232 397.598, 241.415 410.159, 247.640 415.982 C 256.757 424.511, 270.873 433.169, 283.750 438.133 C 288.151 439.829, 291.524 441.246, 293.236 442.117 C 294.191 442.603, 295.852 443, 296.927 443 C 298.002 443, 299.160 443.450, 299.500 444 C 299.840 444.550, 301.415 445, 303 445 C 304.585 445, 306.129 445.400, 306.432 445.890 C 306.734 446.379, 308.561 447.054, 310.491 447.390 C 312.421 447.725, 315.579 448.275, 317.509 448.610 C 319.439 448.946, 321.266 449.621, 321.568 450.110 C 321.871 450.600, 323.415 451, 325 451 C 326.585 451, 328.160 451.450, 328.500 452 C 328.840 452.550, 330.190 453, 331.500 453 C 332.810 453, 334.160 453.450, 334.500 454 C 334.840 454.550, 336.216 455, 337.559 455 C 338.902 455, 340 455.450, 340 456 C 340 456.550, 340.612 457, 341.360 457 C 342.491 457, 349.031 459.931, 357.236 464.115 C 358.191 464.602, 361.177 465, 363.871 465 C 369.949 465, 372.535 462.048, 371.633 456.141 C 370.295 447.382, 369.724 444.948, 368.890 444.432 C 368.400 444.129, 368 442.585, 368 441 C 368 439.415, 367.550 437.840, 367 437.500 C 366.450 437.160, 366 435.585, 366 434 C 366 432.415, 365.550 430.840, 365 430.500 C 364.450 430.160, 364 428.810, 364 427.500 C 364 426.190, 363.550 424.840, 363 424.500 C 362.450 424.160, 362 422.810, 362 421.500 C 362 420.190, 361.550 418.840, 361 418.500 C 360.450 418.160, 360 416.777, 360 415.427 C 360 413.063, 359.681 412.148, 357.156 407.264 C 356.520 406.034, 356 404.340, 356 403.500 C 356 402.019, 355.584 400.960, 353.156 396.264 C 352.520 395.034, 352 393.211, 352 392.214 C 352 391.216, 351.641 389.973, 351.202 389.450 C 350.763 388.928, 349.558 386.025, 348.525 383 C 347.492 379.975, 345.377 375.037, 343.824 372.028 C 342.271 369.018, 341 366.002, 341 365.326 C 341 363.209, 355.499 354, 358.830 354 C 359.804 354, 361.027 353.596, 361.550 353.102 C 362.072 352.609, 364.300 351.957, 366.500 351.653 C 368.700 351.350, 372.750 350.646, 375.500 350.089 C 378.250 349.532, 381.968 348.782, 383.762 348.423 C 385.556 348.063, 387.271 347.371, 387.571 346.885 C 387.872 346.398, 388.991 346, 390.059 346 C 391.127 346, 392 345.599, 392 345.108 C 392 344.618, 393.185 343.920, 394.632 343.556 C 398.542 342.575, 408.258 332.288, 411.214 326 C 414.922 318.113, 415.140 317.053, 417.857 293.608 C 418.728 286.085, 420.767 281.068, 426.868 271.427 C 435.167 258.314, 437.663 239.133, 432.435 228.645 C 429.195 222.145, 422.533 215.251, 413.250 208.794 C 409.262 206.020, 406 203.523, 406 203.246 C 406 202.969, 407.697 200.213, 409.771 197.121 C 422.186 178.616, 425.404 160.706, 420.485 137.500 C 419.891 134.699, 419.457 133.508, 416.657 127 C 414.363 121.672, 408.841 115.178, 403.294 111.288 C 397.259 107.056, 385.552 101, 383.406 101 C 382.724 101, 382.017 100.662, 381.833 100.250 C 381.650 99.837, 379.384 98.428, 376.798 97.117 C 370.526 93.939, 361.065 83.873, 357.598 76.689 C 354.584 70.445, 345.189 60, 342.587 60 C 341.714 60, 341 59.550, 341 59 C 341 58.450, 339.965 58, 338.700 58 C 337.435 58, 335.876 57.476, 335.236 56.836 C 333.666 55.266, 316.614 55.389, 313.161 56.995 C 311.697 57.676, 309.719 58.631, 308.764 59.117 C 305.522 60.765, 302.157 60.091, 300.297 57.420 C 293.524 47.694, 281.501 39.155, 268.929 35.140 C 264.589 33.754, 248.084 33.653, 246 35 M 247.524 55.309 C 246.437 55.964, 243.027 58.152, 239.946 60.171 C 231.945 65.413, 227.161 68, 225.470 68 C 224.661 68, 224 68.450, 224 69 C 224 69.550, 223.094 70, 221.986 70 C 220.879 70, 219.191 70.402, 218.236 70.892 C 215.950 72.067, 205.264 74, 201.055 74 C 178.732 74, 158.963 84.594, 151.603 100.500 C 150.076 103.800, 148.415 107.281, 147.913 108.236 C 146.747 110.455, 146.727 119.490, 147.883 121.764 C 148.369 122.719, 149.368 124.850, 150.103 126.500 C 152.749 132.438, 158.006 140, 159.488 140 C 160.549 140, 161 138.957, 161 136.500 C 161 134.575, 161.450 133, 162 133 C 162.550 133, 163 132.364, 163 131.586 C 163 127.876, 169.911 116.989, 176.452 110.395 C 181.902 104.901, 185.477 102.334, 192.221 99.073 C 201.515 94.580, 206.371 94.183, 223.250 96.538 C 226.200 96.950, 228 96.821, 228 96.199 C 228 95.647, 229.238 94.708, 230.750 94.112 C 232.262 93.516, 234.175 92.583, 235 92.039 C 236.875 90.801, 243.994 87.756, 246 87.333 C 256.462 85.130, 264.850 85.174, 275.500 87.488 C 281.900 88.879, 283.808 89.495, 286.654 91.090 C 288.389 92.063, 290.077 92.590, 290.404 92.262 C 291.331 91.335, 291.105 84.172, 290.087 82.236 C 289.585 81.281, 288.030 78.025, 286.632 75 C 284.174 69.682, 277.085 61.945, 272.113 59.153 C 270.800 58.415, 268.199 56.954, 266.333 55.906 C 262.412 53.704, 250.798 53.335, 247.524 55.309 M 320.490 75.016 C 320.144 75.575, 319.516 75.819, 319.093 75.558 C 318.671 75.297, 316.722 76.752, 314.762 78.791 C 311.414 82.276, 311.208 82.872, 311.349 88.646 C 311.496 94.608, 313.578 99, 316.260 99 C 316.782 99, 319.210 100.350, 321.655 102 C 324.100 103.650, 326.405 105, 326.777 105 C 327.781 105, 342 119.307, 342 120.317 C 342 120.794, 342.898 122.327, 343.996 123.723 C 347.479 128.150, 350 138.783, 350 149.043 C 350 156.822, 350.316 158.714, 351.902 160.436 C 354.426 163.174, 358 169.685, 358 171.544 C 358 172.360, 358.397 173.809, 358.882 174.764 C 361.054 179.041, 362 187.154, 362 201.514 C 362 213.239, 362.304 216.999, 363.250 216.994 C 367.255 216.974, 376.725 209.194, 384.474 199.558 C 390.987 191.459, 395.614 183.787, 399.134 175.250 C 399.757 173.738, 400.770 171.419, 401.384 170.099 C 402.036 168.695, 402.450 162.671, 402.379 155.599 C 402.270 144.798, 401.987 142.964, 399.739 138.500 C 395.977 131.033, 388.328 123.996, 380 120.342 C 359.124 111.181, 350.088 103.884, 342.430 90 C 341.369 88.075, 340.163 86.350, 339.750 86.167 C 339.337 85.983, 339 85.291, 339 84.629 C 339 79.179, 323.040 70.891, 320.490 75.016 M 245.500 110.255 C 235.995 113.558, 230.946 117.586, 226.663 125.285 C 222.219 133.271, 223.409 144.592, 228.487 142.643 C 229.319 142.324, 230 141.425, 230 140.645 C 230 136.016, 251.421 121, 258.023 121 C 259.595 121, 261.160 120.550, 261.500 120 C 262.339 118.642, 270.253 118.734, 273.703 120.141 C 281.359 123.262, 283.135 124.315, 287.773 128.486 C 290.532 130.967, 293.843 135.231, 295.142 137.978 C 296.439 140.720, 297.837 142.973, 298.250 142.982 C 299.298 143.007, 299.191 134.348, 298.117 132.236 C 297.631 131.281, 296.670 129.292, 295.983 127.815 C 292.874 121.144, 280.904 111, 276.140 111 C 275.028 111, 273.840 110.550, 273.500 110 C 272.684 108.680, 249.424 108.892, 245.500 110.255 M 197.709 115.352 C 186.219 122.060, 182 127.999, 182 137.466 C 182 143.882, 183.398 151.849, 185.118 155.236 C 185.603 156.191, 186 157.852, 186 158.927 C 186 160.002, 186.450 161.160, 187 161.500 C 187.550 161.840, 188 162.991, 188 164.059 C 188 165.127, 188.398 166, 188.883 166 C 189.369 166, 190.016 166.787, 190.322 167.750 C 190.869 169.475, 194.020 175.026, 195.006 176 C 195.284 176.275, 196.821 178.300, 198.422 180.500 C 200.022 182.700, 206.865 190.028, 213.627 196.784 C 220.389 203.540, 227.568 211.078, 229.581 213.534 C 238.214 224.069, 235.474 214.631, 224.056 194.500 C 222.808 192.300, 221.433 190.050, 221 189.500 C 220.264 188.565, 219.160 186.658, 213.906 177.250 C 212.754 175.188, 211.404 173.073, 210.906 172.550 C 210.408 172.028, 210 170.790, 210 169.800 C 210 168.810, 209.550 168, 209 168 C 208.450 168, 208 167.319, 208 166.486 C 208 165.654, 207.603 164.191, 207.117 163.236 C 201.345 151.890, 199.533 130.895, 203.362 119.715 C 205.982 112.061, 204.847 111.185, 197.709 115.352 M 315.445 120.317 C 315.054 121.317, 315.244 122.644, 315.867 123.267 C 316.490 123.890, 317 125.408, 317 126.641 C 317 127.874, 317.450 129.160, 318 129.500 C 318.563 129.848, 319 134.657, 319 140.500 C 319 146.343, 318.563 151.152, 318 151.500 C 317.450 151.840, 316.990 153.104, 316.978 154.309 C 316.966 155.514, 316.076 157.625, 315 159 C 313.924 160.375, 313.034 161.862, 313.022 162.303 C 312.936 165.423, 290.477 189.403, 279.393 198.210 C 272.928 203.347, 264.570 212.822, 261.162 218.877 C 260.004 220.934, 260.054 221.471, 261.532 222.877 C 262.806 224.087, 263.358 224.182, 263.703 223.250 C 263.958 222.563, 264.611 222, 265.153 222 C 265.696 222, 268.102 220.650, 270.500 219 C 272.898 217.350, 275.141 216, 275.485 216 C 275.829 216, 278.708 214.236, 281.883 212.079 C 287.997 207.927, 292.941 204.985, 299.526 201.581 C 312.145 195.056, 321.516 185.178, 327.591 172 C 336.389 152.911, 334.640 138.090, 322.009 124.703 C 317.045 119.442, 316.048 118.776, 315.445 120.317 M 122 130.729 C 119.525 130.947, 117.073 131.548, 116.550 132.063 C 116.027 132.578, 114.833 133, 113.895 133 C 111.002 133, 103.846 137.341, 101.533 140.500 C 97.922 145.429, 97 150.827, 97 167.045 C 97 175.467, 96.585 183.740, 96.078 185.429 C 94.264 191.468, 88.241 209.649, 85.288 218 C 80.368 231.912, 79.687 235.923, 81.061 242.902 C 82.608 250.770, 85.033 253.809, 98.500 264.771 C 113.137 276.684, 117.270 281.511, 122.669 293 C 130.744 310.183, 132.881 314.008, 136.684 318.083 C 141.451 323.191, 149.707 327.737, 157.500 329.546 C 172.637 333.058, 189.285 329.464, 199.854 320.400 L 204.208 316.666 201.854 314.855 C 200.559 313.859, 199.138 313.034, 198.695 313.022 C 196.393 312.959, 179.505 300.473, 171.662 293.036 C 161.190 283.107, 147 261.751, 147 255.921 C 147 254.929, 146.550 253.840, 146 253.500 C 145.450 253.160, 145 251.874, 145 250.641 C 145 249.408, 144.594 247.973, 144.097 247.450 C 141.815 245.049, 140.621 204.920, 142.431 191.433 L 143.245 185.365 138.942 181.683 C 136.576 179.657, 134.253 178, 133.780 178 C 131.994 178, 127 173.556, 127 171.967 C 127 169.565, 130.243 167, 133.280 167 C 137.941 167, 146.123 164.842, 146.648 163.475 C 146.929 162.743, 144.968 158.850, 142.292 154.822 C 139.615 150.795, 135.932 144.350, 134.108 140.500 C 132.284 136.650, 130.453 132.825, 130.039 132 C 129.187 130.304, 128.332 130.169, 122 130.729 M 261.500 140.306 C 248.739 147.891, 250.499 150.628, 268.500 151.188 L 278.500 151.500 278.823 148.687 C 279.584 142.040, 268.006 136.439, 261.500 140.306 M 236.706 170.627 C 236.361 170.972, 237.411 173.191, 239.039 175.557 C 240.668 177.924, 242 180.158, 242 180.521 C 242 181.794, 250.299 193, 251.242 193 C 251.766 193, 254.148 190.827, 256.537 188.170 C 258.925 185.514, 262.478 182.252, 264.433 180.920 C 268.989 177.817, 268.937 176.345, 264.250 175.670 C 260.449 175.122, 257.103 174.429, 244.500 171.582 C 236.265 169.721, 237.466 169.868, 236.706 170.627 M 167.769 176.697 C 167.324 177.558, 165.592 183.650, 164.056 189.750 C 162.322 196.641, 160.706 214.869, 161.355 220.216 C 161.708 223.122, 162.243 227.750, 162.544 230.500 C 163.350 237.861, 167.532 252.098, 170.747 258.427 C 175.982 268.730, 189.209 282.484, 202.388 291.328 C 216.842 301.027, 220.503 302.540, 222.771 299.750 C 224.751 297.313, 228 290.918, 228 289.456 C 228 288.640, 228.397 287.191, 228.882 286.236 C 230.845 282.372, 232 274.431, 232 264.807 C 232 246.212, 230.278 243.220, 205.032 217.946 C 189.248 202.145, 182.881 194.995, 177.500 187.023 C 170.841 177.159, 168.702 174.889, 167.769 176.697 M 338.650 193.713 C 332.380 203.520, 323.438 210.471, 293 229.197 C 269.682 243.543, 259.211 254.151, 254.136 268.567 C 252.961 271.903, 252 275.471, 252 276.496 C 252 277.520, 251.580 279.740, 251.068 281.429 C 250.555 283.118, 249.686 286.300, 249.136 288.500 C 248.586 290.700, 247.474 295.055, 246.663 298.178 C 245.853 301.302, 245.447 304.114, 245.762 304.428 C 247.885 306.552, 278.081 304.500, 283.236 301.882 C 284.191 301.397, 285.617 301, 286.403 301 C 288.455 301, 300.788 294.314, 305.500 290.647 C 312.057 285.544, 319.710 277.174, 324.266 270.122 C 328.357 263.792, 329.620 261.398, 332.117 255.250 C 332.731 253.738, 333.631 251.719, 334.117 250.764 C 334.603 249.809, 335 248.340, 335 247.500 C 335 246.660, 335.406 245.191, 335.903 244.236 C 340.186 235.994, 345.158 192.452, 342.036 190.522 C 341.506 190.194, 339.982 191.630, 338.650 193.713 M 387.930 223.745 C 385.493 225.804, 382.620 228.286, 381.545 229.260 C 380.470 230.234, 375.484 233.941, 370.466 237.498 C 350.872 251.388, 347.894 258.115, 360.746 259.455 C 367.900 260.200, 373.399 262.790, 373.800 265.602 C 374.288 269.017, 370.950 270.635, 359.241 272.658 C 357.448 272.968, 355.734 273.621, 355.432 274.110 C 355.129 274.600, 354.009 275, 352.941 275 C 351.873 275, 351 275.340, 351 275.756 C 351 276.172, 349.538 277.141, 347.750 277.911 C 345.962 278.681, 340 283.929, 334.500 289.574 C 323.766 300.591, 316.460 306.776, 308.500 311.585 C 302.169 315.409, 294.456 319, 292.570 319 C 291.771 319, 290.871 319.400, 290.568 319.890 C 290.009 320.795, 289.184 320.980, 276 323.162 C 263.578 325.217, 242.665 324.509, 224.755 321.427 C 220.113 320.628, 217.136 321.536, 218.833 323.233 C 219.475 323.875, 220 325.408, 220 326.641 C 220 327.874, 220.450 329.160, 221 329.500 C 221.550 329.840, 222 330.991, 222 332.059 C 222 333.127, 222.450 334, 223 334 C 223.550 334, 224 334.481, 224 335.070 C 224 337.446, 230.529 345.392, 236.587 350.389 C 250.616 361.961, 265.569 366.498, 287 365.685 C 300.372 365.178, 306.684 364.320, 307.568 362.890 C 307.871 362.400, 309.216 362, 310.559 362 C 311.902 362, 313 361.550, 313 361 C 313 360.450, 313.900 360, 315 360 C 316.100 360, 317 359.550, 317 359 C 317 358.450, 317.563 357.996, 318.250 357.991 C 318.938 357.986, 323.253 354.948, 327.840 351.241 C 339.612 341.725, 345.926 337.254, 349.451 335.937 C 351.128 335.311, 353.400 334.434, 354.500 333.988 C 355.600 333.542, 359.425 332.667, 363 332.043 C 391.964 326.987, 396.017 322.711, 397.641 295.500 C 397.937 290.550, 398.588 286.073, 399.089 285.550 C 399.590 285.028, 400 283.340, 400 281.800 C 400 280.260, 400.450 279, 401 279 C 401.550 279, 402 278.339, 402 277.530 C 402 276.073, 403.223 273.679, 408.403 265 C 409.879 262.525, 411.346 259.712, 411.661 258.750 C 411.976 257.788, 412.631 257, 413.117 257 C 413.602 257, 414 255.902, 414 254.559 C 414 253.216, 414.450 251.840, 415 251.500 C 416.621 250.498, 416.152 240.613, 414.309 236.917 C 411.791 231.870, 406.007 226.703, 397.720 222.100 C 392.860 219.401, 393.121 219.357, 387.930 223.745 M 121.597 341.569 C 113.446 345.755, 104.969 352.028, 95.699 360.734 C 90.858 365.280, 86.470 369, 85.949 369 C 85.427 369, 85 369.675, 85 370.500 C 85 372.435, 85.612 372.390, 88.846 370.214 C 90.306 369.232, 92.625 367.939, 94 367.341 C 97.260 365.923, 104.584 362.630, 109 360.596 C 119.442 355.788, 133 346.741, 133 344.581 C 133 343.157, 128.823 338.988, 127.436 339.026 C 126.921 339.040, 124.294 340.184, 121.597 341.569 M 297.518 384.971 C 296.822 386.097, 299.009 390.601, 301.665 393.510 C 302.674 394.616, 305.297 397.766, 307.492 400.510 C 312.919 407.292, 330.523 424.506, 335.750 428.141 C 338.087 429.766, 340 431.524, 340 432.048 C 340 432.572, 340.675 433, 341.500 433 C 342.325 433, 343 432.613, 343 432.140 C 343 431.238, 336.879 418.863, 336.006 418 C 335.728 417.725, 334.532 415.700, 333.350 413.500 C 328.944 405.303, 327.194 402.316, 322.509 395 C 315.687 384.347, 315.164 384, 305.906 384 C 301.623 384, 297.848 384.437, 297.518 384.971" stroke="#000000" fill="black" fill-rule="evenodd"/> </svg>