<svg xmlns="http://www.w3.org/2000/svg" viewBox="0 0 512 512" version="1.1" width="512" height="512"> <path stroke-linecap="round" stroke-linejoin="round" stroke-miterlimit="2" d="M 239.500 7.983 C 218.902 11.756, 204.005 35.177, 208.988 55.952 C 210.138 60.745, 214.986 71.194, 217.107 73.450 C 218.414 74.841, 218.196 77.768, 216.750 78.250 C 215.871 78.542, 215.459 81.701, 215.363 88.887 C 215.287 94.508, 215.039 99.295, 214.810 99.523 C 214.581 99.752, 204.693 100.359, 192.836 100.872 C 169.698 101.874, 167.150 102.451, 163.088 107.615 C 161.570 109.545, 161 111.710, 161 115.546 C 161 121.921, 164.263 125.408, 171.215 126.463 C 173.572 126.821, 176.400 127.507, 177.500 127.989 C 179.975 129.071, 189.146 130.732, 217.956 135.314 L 225.413 136.500 225.195 228.500 C 224.888 357.900, 224.200 373.351, 218.257 384.269 C 215.494 389.346, 207.306 396, 203.822 396 C 202.885 396, 201.840 396.450, 201.500 397 C 199.892 399.602, 174.683 397.266, 168.764 393.968 C 167.809 393.435, 166.437 393, 165.716 393 C 163.577 393, 147.973 384.696, 138 378.251 C 118.655 365.748, 108 358.169, 108 356.912 C 108 356.411, 112.612 355.980, 118.250 355.956 C 139.960 355.862, 146.580 350.347, 134.066 342.779 C 121.558 335.215, 89.752 304.961, 77.899 289.353 C 69.546 278.353, 68.887 277.766, 65.352 278.178 C 63.034 278.447, 62.292 279.315, 60.796 283.500 C 57.160 293.669, 52.936 318.986, 53.037 330 C 53.127 339.705, 58.133 368.355, 60.105 370.450 C 60.597 370.973, 61.015 372.098, 61.034 372.950 C 61.053 373.803, 61.937 376.300, 63 378.500 C 64.063 380.700, 64.947 382.822, 64.966 383.215 C 64.985 383.608, 67.007 387.234, 69.459 391.274 C 76.106 402.222, 81.016 403.761, 82.587 395.388 C 82.939 393.513, 83.600 391.747, 84.056 391.466 C 84.511 391.184, 85.187 388.933, 85.558 386.464 C 86.506 380.139, 87.068 380.246, 92.543 387.791 C 106.545 407.089, 128.993 425.552, 155.252 439.367 C 159.789 441.754, 166.650 445.416, 170.500 447.506 C 174.350 449.596, 179.842 452.570, 182.705 454.116 C 185.568 455.662, 188.718 457.364, 189.705 457.897 C 210.518 469.145, 229.692 482.639, 240.650 493.750 C 244.582 497.737, 248.369 501, 249.065 501 C 249.761 501, 253.090 498.413, 256.462 495.250 C 269.342 483.173, 284.929 471.467, 297.500 464.432 C 304.803 460.345, 312.952 455.973, 322.500 451.020 C 347.532 438.036, 355.139 433.418, 370.500 421.884 C 380.439 414.422, 397.879 397.811, 405.554 388.498 C 411.679 381.066, 412.244 380.768, 413.131 384.500 C 417.234 401.759, 419.990 404.635, 425.499 397.413 C 429.136 392.644, 435.765 379.498, 437.053 374.500 C 437.620 372.300, 438.471 369.600, 438.944 368.500 C 446.268 351.474, 442.911 303.384, 433.912 296.405 C 430.024 293.391, 429.144 293.858, 415.346 306.270 C 395.977 323.692, 388.978 329.325, 376.405 337.611 C 363.169 346.333, 362.330 347.194, 363.588 350.771 C 364.679 353.873, 366.815 354.532, 381.500 356.297 C 387 356.959, 391.471 357.950, 391.435 358.500 C 391.223 361.762, 344.540 389.840, 335 392.443 C 333.625 392.819, 331.600 393.535, 330.500 394.035 C 322.173 397.820, 302.825 399.129, 295.078 396.431 C 278.850 390.780, 276.992 384.061, 274.317 321.345 C 273.605 304.648, 273.824 303.601, 277.714 305.085 C 279.246 305.669, 283.200 306.227, 286.500 306.324 L 292.500 306.500 292.151 309.973 C 291.959 311.883, 290.690 314.768, 289.331 316.383 C 284.043 322.667, 282.500 327.709, 282.500 338.700 C 282.500 345.527, 282.913 349.314, 283.750 350.150 C 284.438 350.838, 285.008 352.098, 285.017 352.950 C 285.026 353.803, 286.277 356.975, 287.798 360 L 290.562 365.500 296.230 365.798 C 308.448 366.442, 327.090 353.129, 335.050 338.077 L 337.918 332.653 347.209 332.577 L 356.500 332.500 363.500 327.793 C 392.156 308.524, 392 308.697, 392 296.107 L 392 289.344 404.250 288.201 C 410.988 287.573, 419.788 286.772, 423.808 286.422 C 437.656 285.216, 446.420 280.411, 459.750 266.719 C 469.761 256.435, 470.303 254.127, 463.973 248.708 C 460.615 245.834, 451.901 241.049, 442.500 236.915 C 437.476 234.706, 430.554 233.631, 419.030 233.270 C 404.974 232.830, 404.356 232.558, 403.434 226.406 C 403.068 223.969, 402.371 221.729, 401.885 221.429 C 401.398 221.128, 401 219.945, 401 218.800 C 401 215.407, 393.475 200.519, 390.629 198.280 C 387.243 195.617, 387.189 195.887, 392.756 187.589 C 395.372 183.690, 398.363 178.700, 399.403 176.500 C 400.443 174.300, 401.769 171.600, 402.349 170.500 C 402.929 169.400, 403.579 162.650, 403.794 155.500 C 404.505 131.796, 400.084 115.314, 392.504 113.412 C 389.925 112.764, 376.186 118.814, 373 122 C 372.255 122.745, 368.711 124.919, 367 125.680 C 363.573 127.206, 353.114 135.697, 347.814 141.258 C 339.246 150.247, 335.920 158.806, 334.179 176.344 L 333.500 183.187 318 183.344 L 302.500 183.500 296.248 186.890 C 289.775 190.400, 282 197.815, 282 200.478 C 282 201.315, 281.627 202, 281.172 202 C 279.982 202, 278 211.319, 278 216.910 C 278 222.574, 277.288 223.571, 274.831 221.347 C 273.112 219.792, 273 217.148, 273 178.314 C 273 146.126, 273.278 136.834, 274.250 136.474 C 274.938 136.219, 278.425 135.539, 282 134.962 C 304.931 131.260, 314.220 129.555, 325.689 126.942 C 333.185 125.233, 335.509 122.380, 335.465 114.937 C 335.434 109.621, 335.099 108.698, 332.071 105.574 C 327.958 101.330, 326.171 101.073, 298.500 100.740 C 279.099 100.507, 278.512 100.440, 278.893 98.500 C 279.109 97.400, 279.342 91.722, 279.410 85.883 C 279.483 79.685, 280.003 74.690, 280.661 73.883 C 283.602 70.271, 287.908 60.762, 289.014 55.434 C 295.108 26.080, 270.331 2.336, 239.500 7.983 M 240.500 26.889 C 237.340 28.286, 231.496 34.436, 229.669 38.285 C 227.083 43.734, 227.417 53.852, 230.323 58.102 C 232.865 61.820, 232.660 61.796, 242 59.439 C 247.625 58.019, 249.637 57.964, 256.939 59.031 L 265.378 60.263 267.684 57.382 C 269.638 54.940, 269.991 53.334, 269.995 46.858 L 270 39.216 265.407 34.108 C 262.881 31.299, 260.219 29, 259.491 29 C 258.762 29, 257.996 28.488, 257.788 27.863 C 257.316 26.448, 243.284 25.658, 240.500 26.889 M 242.500 74.892 C 236.661 77.438, 233.996 84.803, 236.521 91.415 C 242.310 106.575, 261.094 101.907, 259.693 85.657 C 258.967 77.239, 249.998 71.623, 242.500 74.892 M 241.750 128.668 C 235.035 129.803, 240.388 135, 248.272 135 C 254.651 135, 262.031 131.631, 260.031 129.631 C 258.898 128.498, 246.592 127.849, 241.750 128.668 M 368.093 141.574 C 364.782 144.640, 361.454 148.352, 360.699 149.824 C 359.944 151.296, 357.985 154.975, 356.346 158 C 351.757 166.472, 346.274 183.017, 347.434 184.893 C 349.012 187.447, 352.670 183.034, 356.464 174 C 357.503 171.525, 359.199 167.475, 360.232 165 C 364.733 154.212, 370.941 143.344, 374.524 139.978 C 375.886 138.698, 377 137.280, 377 136.826 C 377 134.674, 373.574 136.500, 368.093 141.574 M 156.109 138.109 C 148.290 139.134, 140.421 143.497, 132.936 150.957 C 119.835 164.015, 116.894 180.252, 125.106 194.180 C 129.340 201.361, 128.595 204.034, 121.980 205.402 C 119.414 205.932, 109.774 211.820, 109.167 213.227 C 108.303 215.231, 105.822 213.496, 101.786 208.066 C 97.305 202.036, 90.017 195.373, 85.173 192.879 C 83.703 192.122, 82.275 191.277, 82 191.002 C 79.933 188.928, 64.881 184.814, 57.405 184.279 C 51.513 183.858, 51.217 183.953, 48.530 187.146 C 43.419 193.220, 45.669 208.714, 54.318 227 C 59.597 238.163, 73.159 251.262, 81.123 252.891 L 84.285 253.538 84.411 266.019 C 84.556 280.385, 85.416 282.946, 92.634 290.479 C 97.056 295.094, 107.820 301, 111.809 301 C 112.828 301, 114.127 302.012, 114.695 303.250 C 119.275 313.226, 120.612 315.628, 123.267 318.651 C 128.618 324.746, 139.757 328.600, 149.652 327.779 L 155.155 327.323 158.255 333.911 C 161.994 341.859, 170.492 351.051, 179.992 357.425 C 183.742 359.941, 187.191 362.003, 187.655 362.006 C 188.120 362.010, 189.667 362.621, 191.093 363.365 C 196.969 366.431, 200.562 366.309, 203.391 362.948 C 204.826 361.242, 206.262 358.643, 206.582 357.173 C 206.901 355.703, 207.678 353.150, 208.308 351.500 C 209.906 347.312, 209.735 323.846, 208.080 320.281 C 207.370 318.751, 206.082 316.022, 205.218 314.215 C 204.354 312.408, 201.701 309.136, 199.324 306.944 C 192.661 300.803, 193.788 292, 201.236 292 C 205.296 292, 214.395 285.077, 216.689 280.242 C 218.746 275.908, 218.966 261.746, 217.048 257.117 C 216.312 255.339, 216.024 252.134, 216.346 249.302 C 218.389 231.328, 218.520 232.902, 214.604 228.362 L 211.035 224.223 213.176 217.862 C 215.549 210.811, 216.479 196.317, 214.920 190.673 C 212.751 182.819, 203.842 180.854, 197.642 186.862 C 193.908 190.481, 191.154 190.449, 193.103 186.808 C 194.807 183.625, 192.931 166.104, 190.180 159.500 C 182.697 141.539, 173.584 135.818, 156.109 138.109 M 389.667 139.667 C 389.300 140.033, 388.997 141.271, 388.994 142.417 C 388.990 143.563, 388.315 145.789, 387.494 147.364 C 386.672 148.940, 386 150.652, 386 151.169 C 386 151.686, 385.067 154.223, 383.928 156.805 C 382.788 159.387, 381.188 163.075, 380.373 165 C 379.558 166.925, 378.283 169.625, 377.540 171 C 376.796 172.375, 375.358 175.075, 374.344 176.999 C 373.330 178.924, 372.275 180.724, 372 180.999 C 369.648 183.355, 365.008 191.204, 365.499 191.998 C 367.737 195.619, 377.087 187.111, 382.295 176.713 C 384.333 172.646, 386 168.790, 386 168.145 C 386 167.500, 386.418 166.191, 386.928 165.236 C 391.547 156.591, 393.803 135.530, 389.667 139.667 M 155.139 153.125 C 143.593 156.524, 133.757 168.956, 135.265 178.247 C 137.430 191.587, 146.979 195.960, 147.015 183.628 C 147.044 173.781, 151.873 165.809, 158.570 164.553 C 169.219 162.555, 175.041 176.341, 168.479 188.015 C 162.764 198.184, 162.766 197.708, 168.421 198.177 C 172.257 198.495, 172.378 198.399, 175.597 192.500 C 182.337 180.149, 179.274 159.583, 170 154.929 C 165.422 152.631, 159.331 151.892, 155.139 153.125 M 248.500 153.944 L 238.500 154.500 237.832 240.164 C 236.822 369.511, 235.446 384.123, 222.930 398.343 C 213.560 408.987, 194.311 413.636, 177 409.436 C 175.625 409.102, 172.925 408.486, 171 408.068 C 161.105 405.916, 134.027 393.240, 134.006 390.750 C 134.003 390.337, 133.523 390, 132.940 390 C 131.296 390, 116.249 378.835, 99.419 365.128 C 93.090 359.973, 87.652 356.015, 87.334 356.332 C 85.930 357.737, 96.283 372.769, 107.136 385.086 C 113.120 391.877, 131.665 408.738, 136.188 411.500 C 137.088 412.050, 141.093 414.699, 145.088 417.387 C 154.180 423.505, 163.384 427.721, 178.044 432.484 C 184.345 434.531, 190.400 436.584, 191.500 437.045 C 192.600 437.506, 195.075 438.187, 197 438.557 C 198.925 438.928, 201.126 439.736, 201.890 440.354 C 202.746 441.045, 207.939 441.482, 215.390 441.489 C 230.585 441.503, 234.278 439.597, 239.588 429 C 243.604 420.986, 243.997 418.549, 245.386 393.107 C 246.307 376.240, 246.779 372.538, 248.114 371.698 C 251.879 369.328, 252.764 371.319, 253.444 383.679 C 255.016 412.261, 255.993 424.291, 256.828 425.357 C 257.321 425.985, 258.012 427.706, 258.364 429.181 C 258.946 431.620, 262.833 436.183, 267.557 439.973 C 270.719 442.510, 286.920 442.578, 297.137 440.097 C 301.887 438.944, 306.505 438, 307.400 438 C 308.295 438, 309.809 437.588, 310.764 437.084 C 311.719 436.581, 315.650 435.187, 319.500 433.987 C 323.350 432.786, 328.840 430.721, 331.701 429.396 C 334.562 428.072, 337.937 426.542, 339.201 425.996 C 341.908 424.829, 342.393 424.526, 355.582 415.767 C 373.464 403.891, 389.468 388.403, 404.323 368.598 C 411.469 359.069, 413.065 355.161, 408.169 359.178 C 400.182 365.731, 381.185 380.770, 379 382.270 C 372.441 386.774, 363.347 392.685, 362 393.320 C 361.175 393.708, 358.250 395.385, 355.500 397.045 C 352.750 398.706, 349.825 400.341, 349 400.680 C 348.175 401.018, 345.925 401.977, 344 402.809 C 336.226 406.172, 333.022 407.078, 322.120 408.997 C 308.354 411.420, 305.459 411.462, 295.357 409.383 C 282.741 406.787, 275.419 401.858, 271.619 393.403 C 270.654 391.257, 269.433 388.600, 268.905 387.500 C 266.571 382.634, 265.567 373.031, 262.948 330.500 C 261.799 311.837, 260.055 222.007, 260.021 179.750 C 260.010 165.037, 259.663 153.087, 259.250 153.194 C 258.837 153.300, 254 153.638, 248.500 153.944 M 304 198.077 C 298.320 200.643, 292.277 206.463, 291.467 210.148 C 291.126 211.704, 290.431 213.234, 289.923 213.548 C 287.016 215.344, 289.790 231.789, 293.751 236.246 C 295.448 238.156, 298 237.025, 298 234.364 C 298 233.599, 298.414 232.191, 298.920 231.236 C 299.425 230.281, 300.816 227.475, 302.009 225 C 307.066 214.514, 314.048 210.466, 325.662 211.287 C 329.973 211.592, 334.446 212.138, 335.603 212.499 C 337.069 212.957, 338.585 212.397, 340.603 210.652 L 343.500 208.148 341.511 204.423 C 340.218 202.001, 338.295 200.218, 336.011 199.324 C 334.080 198.568, 331.719 197.511, 330.764 196.975 C 327.385 195.078, 308.958 195.837, 304 198.077 M 196 201.434 C 194.075 202.704, 191.643 204.701, 190.595 205.871 C 189.547 207.042, 188.111 208, 187.404 208 C 185.188 208, 184.764 209.991, 186.437 212.544 C 187.322 213.895, 188.950 215, 190.054 215 C 191.159 215, 192.322 215.675, 192.638 216.500 C 193.793 219.509, 196 218.118, 196 214.382 C 196 211.773, 196.852 209.793, 199.057 207.283 C 204.263 201.353, 202.176 197.360, 196 201.434 M 56.605 200.830 C 55.819 202.102, 61.486 212.769, 66.104 218.707 C 74.042 228.914, 89.019 239.410, 91.749 236.680 C 93.045 235.383, 91.864 233.915, 81.861 224.393 C 75.612 218.446, 67.468 210.558, 63.763 206.865 C 60.057 203.172, 56.836 200.456, 56.605 200.830 M 142.393 204.939 C 140.424 205.771, 137 212.392, 137 215.365 C 137 218.454, 140.607 220.203, 144.659 219.078 C 155.500 216.067, 161.885 218.680, 171.110 229.900 C 174.723 234.293, 177 234.718, 177 231 C 177 229.965, 177.450 228.840, 178 228.500 C 179.690 227.456, 179.082 222.701, 176.734 218.589 C 172.419 211.035, 149.512 201.929, 142.393 204.939 M 374.082 207.093 C 371.089 208.290, 360.291 208.623, 357.250 207.613 C 351.795 205.800, 356.133 213.658, 367.435 226.057 C 375.467 234.870, 377.380 239.627, 376.726 249.165 C 376.428 253.514, 375.755 257.619, 375.230 258.287 C 371.391 263.168, 373.873 267.456, 381.227 268.649 C 384.326 269.152, 385.023 268.791, 388.269 264.999 C 394.269 257.989, 395.289 254.884, 394.803 245.106 C 394.568 240.373, 393.873 235.600, 393.260 234.500 C 391.824 231.925, 389 222.620, 389 220.463 C 389 217.903, 385.954 211.804, 383.151 208.750 C 380.521 205.886, 378.175 205.457, 374.082 207.093 M 120.450 219.503 C 118.772 220.240, 115.452 222.955, 113.072 225.538 C 108.866 230.101, 108.759 230.381, 109.288 235.504 C 109.926 241.679, 112.394 247, 114.621 247 C 117.918 247, 121.721 243.146, 122.359 239.158 C 123.179 234.028, 125.257 230.168, 128.656 227.457 L 131.427 225.248 128.662 221.624 C 125.650 217.675, 124.996 217.506, 120.450 219.503 M 319.213 222.459 C 313.703 225.500, 309.090 232.186, 310.309 235.362 C 310.975 237.100, 318.157 236.024, 320.779 233.794 C 321.725 232.989, 324.637 231.353, 327.250 230.160 C 332.730 227.656, 333.169 225.969, 329.096 223.068 C 325.859 220.764, 322.642 220.565, 319.213 222.459 M 343.372 222.472 C 342.759 224.069, 351.543 241, 352.984 241 C 354.617 241, 358.141 235.014, 357.819 232.786 C 357.525 230.748, 346.730 221, 344.768 221 C 344.311 221, 343.683 221.662, 343.372 222.472 M 142.595 229.847 C 141.784 231.159, 147.054 235.711, 151.500 237.538 C 153.700 238.442, 156.924 240.541, 158.664 242.203 C 164.055 247.353, 165.996 243.122, 161.505 236.009 C 160.133 233.835, 157.681 231.369, 156.055 230.528 C 152.913 228.904, 143.473 228.426, 142.595 229.847 M 188.003 234.563 C 185.462 235.955, 182 241.325, 182 243.875 C 182 244.648, 182.961 247.355, 184.136 249.890 C 185.311 252.426, 186.696 255.436, 187.214 256.581 C 188.031 258.384, 187.878 266.812, 186.807 279 C 186.517 282.302, 186.687 282.518, 189.796 282.817 C 193.622 283.184, 200.622 280.096, 203.920 276.585 C 206.422 273.922, 206.460 266.898, 204.038 254.500 C 203.149 249.947, 203.144 247.070, 204.019 242.569 C 205.126 236.874, 205.079 236.567, 202.836 234.841 C 200.023 232.677, 191.731 232.522, 188.003 234.563 M 273.442 236.094 C 273.067 236.701, 273.090 248.625, 273.493 262.594 L 274.226 287.991 277.631 290.981 C 284.133 296.689, 288.857 295.849, 296.981 287.538 C 300.246 284.198, 301.195 282.600, 300.481 281.646 C 295.003 274.338, 292.095 268.768, 291.494 264.438 C 290.326 256.007, 288.326 250.458, 284.574 245.236 C 280.285 239.266, 274.445 234.471, 273.442 236.094 M 133.712 239.774 C 130.666 243.154, 130.599 246.507, 133.539 248.433 C 137.166 250.810, 138.330 249.380, 137.464 243.608 C 136.655 238.212, 135.855 237.395, 133.712 239.774 M 326.455 243.455 C 323.594 246.315, 323.421 247.728, 325.557 250.777 C 327.124 253.015, 330.411 253.761, 331.432 252.111 C 331.734 251.622, 333.223 250.916, 334.741 250.542 C 338.802 249.541, 344.258 244.016, 342.855 242.326 C 340.765 239.807, 329.313 240.596, 326.455 243.455 M 362.833 245.750 C 361.323 249.148, 344.566 259.987, 340.809 259.996 C 339.879 259.998, 338.876 260.391, 338.581 260.869 C 338.286 261.346, 336.260 262.023, 334.080 262.371 C 329.115 263.165, 328.554 264.080, 330.163 268.756 C 331.427 272.427, 335.641 280, 336.420 280 C 339.021 280, 349.188 272.848, 355.599 266.508 C 363.915 258.286, 365 256.192, 365 248.375 C 365 245.356, 363.705 243.788, 362.833 245.750 M 302.200 247.200 C 299.831 249.569, 301.868 264.220, 305.161 268.500 C 312.555 278.110, 320.082 283.776, 322.389 281.468 C 323.782 280.075, 323.632 279.362, 320.860 274.212 C 319.170 271.070, 317.436 268.050, 317.006 267.500 C 316.577 266.950, 315.894 264.490, 315.488 262.033 C 314.641 256.898, 311.339 251.198, 307.431 248.125 C 304.302 245.663, 303.822 245.578, 302.200 247.200 M 99.620 249.250 C 98.836 250.488, 97.436 256.107, 96.509 261.737 C 94.064 276.598, 96.370 281.752, 108 287.422 C 114.941 290.805, 120.073 290.650, 124.276 286.929 C 128.822 282.904, 128.861 282.388, 124.750 280.665 C 115.818 276.922, 108.826 266.682, 106.586 254.066 C 105.991 250.712, 103.512 247, 101.868 247 C 101.416 247, 100.404 248.012, 99.620 249.250 M 147.203 248.197 C 145.394 250.006, 145.732 251.406, 148.575 253.878 C 151.806 256.687, 154.407 256.281, 154.801 252.906 C 155.246 249.083, 149.734 245.666, 147.203 248.197 M 169.530 253.199 C 162.740 262.720, 159 269.616, 159 272.613 C 159 274.905, 158.030 277.035, 155.862 279.504 C 152.843 282.943, 152.796 283.132, 154.612 284.507 C 162.658 290.598, 177 277.317, 177 263.776 C 177 255.993, 172.292 249.326, 169.530 253.199 M 443.795 254.538 C 443.500 254.834, 436.819 255.509, 428.950 256.038 C 414.009 257.042, 408.823 258.182, 405.539 261.185 C 402.344 264.106, 404.775 265.314, 412.668 264.727 C 421.038 264.105, 431.805 262.284, 434.500 261.036 C 435.600 260.526, 438.653 259.166, 441.284 258.014 C 443.915 256.862, 445.801 255.487, 445.475 254.960 C 444.793 253.856, 444.541 253.793, 443.795 254.538 M 121.354 257.236 C 120.111 259.248, 121.017 265.369, 122.825 267.164 C 123.746 268.080, 126.975 270.162, 130 271.792 C 133.025 273.421, 136.980 275.598, 138.789 276.627 L 142.078 278.500 146.110 274.213 C 151.811 268.150, 152.340 268.731, 132.828 259.593 C 124.571 255.726, 122.545 255.310, 121.354 257.236 M 358.253 280.348 C 351.834 286.074, 345.797 290, 343.409 290 C 342.149 290, 340.878 290.389, 340.584 290.864 C 339.467 292.671, 321.162 295.395, 318.448 294.158 C 314.191 292.219, 311.311 292.755, 309.068 295.904 C 304.971 301.658, 306.897 304.396, 318.500 309.315 C 321.800 310.714, 328.325 313.763, 333 316.089 C 344.053 321.589, 349.447 321.902, 356 317.426 C 358.475 315.735, 364 311.965, 368.278 309.048 C 379.605 301.324, 380.346 300.151, 379.671 291 C 379.155 283.995, 378.884 283.285, 375.574 280.250 C 370.428 275.532, 363.608 275.570, 358.253 280.348 M 131.482 295.117 C 128.742 297.381, 126.526 299.518, 126.557 299.867 C 126.773 302.259, 129.426 306.137, 133.271 309.682 C 138.333 314.348, 143.670 315.593, 155.257 314.811 C 161.031 314.421, 163.415 313.671, 173 309.230 C 181.416 305.331, 184.228 299.453, 180.188 294.203 L 178.421 291.907 172.961 293.851 C 160.925 298.137, 159.356 298.398, 153.501 297.088 C 150.475 296.410, 147.428 295.285, 146.729 294.586 C 141.996 289.853, 137.669 290.004, 131.482 295.117 M 176.472 322.045 C 176.117 322.620, 179.167 328.132, 183.250 334.295 C 187.334 340.458, 191.213 346.512, 191.872 347.750 C 192.531 348.988, 193.563 350, 194.164 350 C 196.025 350, 194.131 340.167, 191.453 335.926 C 190.104 333.788, 188.997 331.693, 188.994 331.270 C 188.990 330.846, 187.155 328.363, 184.916 325.750 C 181.016 321.200, 177.852 319.812, 176.472 322.045 M 308.419 333.750 C 296.408 353.849, 295.645 358.458, 306.834 343.326 C 317.113 329.427, 318.223 327.366, 316.409 325.551 C 315.555 324.698, 314.720 324, 314.552 324 C 314.384 324, 311.624 328.387, 308.419 333.750" stroke="#000000" fill="black" fill-rule="evenodd"/> </svg>